<svg width="47" height="47" viewBox="0 0 47 47" fill="none" xmlns="http://www.w3.org/2000/svg">
<path fill-rule="evenodd" clip-rule="evenodd" d="M11.9517 31.3735C11.598 31.3735 11.2421 31.2608 10.9415 31.0309C10.2165 30.4717 10.0794 29.4306 10.6387 28.7055L17.2545 20.107C17.5242 19.7555 17.9243 19.5278 18.3619 19.4726C18.8084 19.4151 19.2461 19.5389 19.5931 19.8152L25.8266 24.7113L31.2797 17.6755C31.8412 16.9482 32.8801 16.8134 33.6051 17.3793C34.3301 17.9407 34.4627 18.9818 33.9013 19.7047L27.4247 28.0601C27.155 28.4093 26.7572 28.637 26.3195 28.6901C25.8774 28.7498 25.4397 28.6216 25.0905 28.3497L18.8615 23.4558L13.2669 30.7259C12.9397 31.1503 12.449 31.3735 11.9517 31.3735Z" fill="#4C17D0"/>
<mask id="mask0_3538:7844" style="mask-type:alpha" maskUnits="userSpaceOnUse" x="34" y="0" width="13" height="13">
<path fill-rule="evenodd" clip-rule="evenodd" d="M34.2295 0.420898H46.0421V12.2355H34.2295V0.420898Z" fill="white"/>
</mask>
<g mask="url(#mask0_3538:7844)">
<path fill-rule="evenodd" clip-rule="evenodd" d="M40.1358 3.73655C38.7078 3.73655 37.5451 4.89703 37.5451 6.32718C37.5451 7.75512 38.7078 8.92002 40.1358 8.92002C41.5637 8.92002 42.7264 7.75512 42.7264 6.32718C42.7264 4.89703 41.5637 3.73655 40.1358 3.73655ZM40.1358 12.2357C36.8798 12.2357 34.2295 9.58536 34.2295 6.32718C34.2295 3.069 36.8798 0.420898 40.1358 0.420898C43.394 0.420898 46.0421 3.069 46.0421 6.32718C46.0421 9.58536 43.394 12.2357 40.1358 12.2357Z" fill="#4C17D0"/>
</g>
<mask id="mask1_3538:7844" style="mask-type:alpha" maskUnits="userSpaceOnUse" x="0" y="2" width="45" height="45">
<path fill-rule="evenodd" clip-rule="evenodd" d="M0.420898 2.28174H44.3243V46.1832H0.420898V2.28174Z" fill="white"/>
</mask>
<g mask="url(#mask1_3538:7844)">
<path fill-rule="evenodd" clip-rule="evenodd" d="M31.882 46.1832H12.8634C5.4209 46.1832 0.420898 40.9555 0.420898 33.1748V15.31C0.420898 7.51826 5.4209 2.28174 12.8634 2.28174H28.9289C29.844 2.28174 30.5867 3.02444 30.5867 3.93956C30.5867 4.85468 29.844 5.59739 28.9289 5.59739H12.8634C7.31967 5.59739 3.73655 9.40818 3.73655 15.31V33.1748C3.73655 39.154 7.23346 42.8675 12.8634 42.8675H31.882C37.4258 42.8675 41.0089 39.0634 41.0089 33.1748V17.6155C41.0089 16.7004 41.7516 15.9577 42.6667 15.9577C43.5819 15.9577 44.3246 16.7004 44.3246 17.6155V33.1748C44.3246 40.9555 39.3246 46.1832 31.882 46.1832Z" fill="#4C17D0"/>
</g>
</svg>
