<svg width="45" height="45" viewBox="0 0 45 45" fill="none" xmlns="http://www.w3.org/2000/svg">
<mask id="mask0_3538:7821" style="mask-type:alpha" maskUnits="userSpaceOnUse" x="0" y="27" width="36" height="18">
<path fill-rule="evenodd" clip-rule="evenodd" d="M0.420898 27.9529H35.2441V44.175H0.420898V27.9529Z" fill="white"/>
</mask>
<g mask="url(#mask0_3538:7821)">
<path fill-rule="evenodd" clip-rule="evenodd" d="M17.8325 31.2685C8.48014 31.2685 3.73655 32.8755 3.73655 36.0409C3.73655 39.2372 8.48014 40.8596 17.8325 40.8596C27.1848 40.8596 31.9284 39.2526 31.9284 36.0895C31.9284 32.8888 27.1848 31.2685 17.8325 31.2685ZM17.8325 44.1753C13.5266 44.1753 0.420898 44.1753 0.420898 36.0409C0.420898 28.7906 10.3568 27.9529 17.8325 27.9529C22.1384 27.9529 35.2441 27.9529 35.2441 36.0895C35.2441 43.3375 25.3082 44.1753 17.8325 44.1753Z" fill="#4C17D0"/>
</g>
<path fill-rule="evenodd" clip-rule="evenodd" d="M17.833 3.73655C13.1823 3.73655 9.3958 7.52303 9.3958 12.176C9.38696 14.4284 10.2535 16.5394 11.8339 18.1331C13.4166 19.7246 15.5253 20.6066 17.7711 20.6154H17.833C22.486 20.6154 26.2725 16.829 26.2725 12.176C26.2725 7.52303 22.486 3.73655 17.833 3.73655ZM17.833 23.9311H17.7645C14.6279 23.92 11.688 22.6888 9.48422 20.4695C7.27821 18.2481 6.0691 15.2993 6.08015 12.1694C6.08015 5.695 11.352 0.420898 17.833 0.420898C24.3162 0.420898 29.5881 5.695 29.5881 12.176C29.5881 18.657 24.3162 23.9311 17.833 23.9311Z" fill="#4C17D0"/>
<path fill-rule="evenodd" clip-rule="evenodd" d="M38.4484 25.6846C37.5332 25.6846 36.7905 24.9419 36.7905 24.0268V15.1608C36.7905 14.2456 37.5332 13.5029 38.4484 13.5029C39.3635 13.5029 40.1062 14.2456 40.1062 15.1608V24.0268C40.1062 24.9419 39.3635 25.6846 38.4484 25.6846Z" fill="#4C17D0"/>
<path fill-rule="evenodd" clip-rule="evenodd" d="M42.9719 21.2517H33.9313C33.0161 21.2517 32.2734 20.509 32.2734 19.5939C32.2734 18.6787 33.0161 17.936 33.9313 17.936H42.9719C43.8871 17.936 44.6298 18.6787 44.6298 19.5939C44.6298 20.509 43.8871 21.2517 42.9719 21.2517Z" fill="#4C17D0"/>
</svg>
