<svg width="23" height="28" viewBox="0 0 23 28" fill="none" xmlns="http://www.w3.org/2000/svg">
<mask id="mask0" style="mask-type:alpha" maskUnits="userSpaceOnUse" x="0" y="0" width="23" height="28">
<path fill-rule="evenodd" clip-rule="evenodd" d="M0 0.682251H22.7362V27.1536H0V0.682251Z" fill="white"/>
</mask>
<g mask="url(#mask0)">
<path fill-rule="evenodd" clip-rule="evenodd" d="M6.0973 2.68225C3.88797 2.68225 2.0533 4.47158 2.0013 6.67825V20.9703C1.9533 23.2383 3.73997 25.1049 5.98664 25.1543H16.764C18.9893 25.0743 20.7506 23.2383 20.736 20.9769V9.11959L14.5573 2.68225H6.1133H6.0973ZM6.11342 27.1543H5.94542C2.59609 27.0823 -0.0705756 24.2983 0.00142437 20.9489V6.65425C0.080091 3.34625 2.81076 0.682251 6.09342 0.682251H6.11742H14.9828C15.2548 0.682251 15.5148 0.792918 15.7041 0.988918L22.4588 8.02492C22.6361 8.21025 22.7361 8.45958 22.7361 8.71692V20.9703C22.7574 24.3156 20.1494 27.0343 16.7988 27.1543H6.11342Z" fill="#4C17D0"/>
</g>
<path fill-rule="evenodd" clip-rule="evenodd" d="M21.7308 9.97899H18.0588C15.6174 9.97233 13.6348 7.98299 13.6348 5.54566V1.66699C13.6348 1.11499 14.0828 0.666992 14.6348 0.666992C15.1868 0.666992 15.6348 1.11499 15.6348 1.66699V5.54566C15.6348 6.88433 16.7228 7.97499 18.0614 7.97899H21.7308C22.2828 7.97899 22.7308 8.42699 22.7308 8.97899C22.7308 9.53099 22.2828 9.97899 21.7308 9.97899Z" fill="#4C17D0"/>
<path fill-rule="evenodd" clip-rule="evenodd" d="M10.8574 20.2666C10.3054 20.2666 9.85742 19.8186 9.85742 19.2666V11.2119C9.85742 10.6599 10.3054 10.2119 10.8574 10.2119C11.4094 10.2119 11.8574 10.6599 11.8574 11.2119V19.2666C11.8574 19.8186 11.4094 20.2666 10.8574 20.2666Z" fill="#4C17D0"/>
<path fill-rule="evenodd" clip-rule="evenodd" d="M10.8544 20.2654C10.589 20.2654 10.333 20.1601 10.1464 19.9707L7.01968 16.8321C6.63035 16.4401 6.63168 15.8067 7.02235 15.4174C7.41435 15.0281 8.04768 15.0281 8.43702 15.4201L10.8544 17.8494L13.2717 15.4201C13.661 15.0281 14.2944 15.0281 14.6863 15.4174C15.077 15.8067 15.0784 16.4401 14.689 16.8321L11.5624 19.9707C11.3757 20.1601 11.1197 20.2654 10.8544 20.2654Z" fill="#4C17D0"/>
</svg>
