<svg width="90" height="90" viewBox="0 0 90 90" fill="none" xmlns="http://www.w3.org/2000/svg">
<path fill-rule="evenodd" clip-rule="evenodd" d="M45.7361 89.233C70.1783 88.8059 89.86 68.9956 89.86 44.62C89.86 42.6364 89.7297 40.683 89.477 38.7679C89.7301 40.6848 89.8607 42.6401 89.8607 44.6256C89.8607 69.0053 70.1747 88.8153 45.7302 89.24C45.7322 89.2377 45.7341 89.2353 45.7361 89.233ZM31.6544 87.2602C31.6557 87.2632 31.657 87.2662 31.6584 87.2692C13.3234 81.6478 0 64.682 0 44.6256C0 19.9788 20.1157 0 44.9301 0C44.9301 0 44.9302 0 44.9301 0C20.116 0 0 19.9771 0 44.62C0 64.6735 13.3209 81.6371 31.6544 87.2602ZM31.6544 87.2602C31.1021 86.0141 30.7482 84.6621 30.5104 83.3246L19.6129 22.0262C18.4275 15.3588 21.2514 11.3508 27.9643 10.1735L63.4415 3.95218C57.8163 1.42339 51.5756 0.0103836 45.0027 5.71406e-05C67.7868 0.0358826 86.5942 16.9137 89.477 38.7679C88.0642 28.0656 82.8331 18.5571 75.1867 11.6354C74.384 14.6261 71.3608 15.8042 68.5483 16.2982L36.7316 21.8783L40.2851 41.8644L66.8547 37.2051C71.1881 36.4444 74.7015 37.4564 75.5358 42.1497C76.3721 46.8496 73.3468 48.9645 69.0773 49.7131L42.5089 54.3732L47.1379 80.4094C47.6555 83.3203 47.741 86.8245 45.7361 89.233C45.468 89.2376 45.1993 89.24 44.93 89.24C40.3086 89.24 35.8502 88.5471 31.6544 87.2602Z" fill="white"/>
</svg>
