<svg width="23" height="28" viewBox="0 0 23 28" fill="none" xmlns="http://www.w3.org/2000/svg">
<mask id="mask0" style="mask-type:alpha" maskUnits="userSpaceOnUse" x="0" y="0" width="23" height="28">
<path fill-rule="evenodd" clip-rule="evenodd" d="M0 0.682251H22.7362V27.1536H0V0.682251Z" fill="white"/>
</mask>
<g mask="url(#mask0)">
<path fill-rule="evenodd" clip-rule="evenodd" d="M6.0973 2.68225C3.88797 2.68225 2.0533 4.47158 2.0013 6.67825V20.9703C1.9533 23.2383 3.73997 25.1049 5.98664 25.1543H16.764C18.9893 25.0743 20.7506 23.2383 20.736 20.9769V9.11959L14.5573 2.68225H6.1133H6.0973ZM6.11342 27.1543H5.94542C2.59609 27.0823 -0.0705756 24.2983 0.00142437 20.9489V6.65425C0.080091 3.34625 2.81076 0.682251 6.09342 0.682251H6.11742H14.9828C15.2548 0.682251 15.5148 0.792918 15.7041 0.988918L22.4588 8.02492C22.6361 8.21025 22.7361 8.45958 22.7361 8.71692V20.9703C22.7574 24.3156 20.1494 27.0343 16.7988 27.1543H6.11342Z" fill="#4C17D0"/>
</g>
</svg>
