<svg width="90" height="90" viewBox="0 0 90 90" fill="none" xmlns="http://www.w3.org/2000/svg">
<path fill-rule="evenodd" clip-rule="evenodd" d="M44.9301 0C51.5296 0 57.7956 1.41409 63.4415 3.95218L27.9643 10.1735C21.2514 11.3508 18.4275 15.3588 19.6129 22.0262L30.5104 83.3246C30.7488 84.6653 31.1038 86.0207 31.6584 87.2692C13.3234 81.6478 0 64.682 0 44.6256C0 19.9788 20.1157 0 44.9301 0ZM75.1867 11.6354C84.2027 19.7969 89.8607 31.5549 89.8607 44.6256C89.8607 69.0053 70.1747 88.8153 45.7302 89.24C47.7412 86.8313 47.656 83.3231 47.1379 80.4094L42.5089 54.3732L69.0773 49.7131C73.3468 48.9645 76.3721 46.8496 75.5358 42.1497C74.7015 37.4564 71.1881 36.4444 66.8547 37.2051L40.2851 41.8644L36.7316 21.8783L68.5483 16.2982C71.3608 15.8042 74.384 14.6261 75.1867 11.6354Z" fill="#F5F5F5"/>
</svg>
