<svg width="24" height="24" viewBox="0 0 24 24" fill="none" xmlns="http://www.w3.org/2000/svg">
<path fill-rule="evenodd" clip-rule="evenodd" d="M17.6079 6.04338C17.2167 5.65221 16.5825 5.65221 16.1913 6.04338L7.46881 14.7659L3.45977 10.7586C3.06852 10.3675 2.43431 10.3676 2.04323 10.7589C1.65214 11.1501 1.65228 11.7843 2.04352 12.1754L6.76084 16.8907C7.15203 17.2817 7.78612 17.2817 8.17723 16.8906L17.6079 7.45992C17.999 7.06875 17.999 6.43454 17.6079 6.04338ZM21.6166 8.04777C21.2255 7.6566 20.5912 7.6566 20.2001 8.04777L11.4776 16.7703L11.1552 16.4481C10.764 16.057 10.1299 16.0571 9.7388 16.4482C9.34757 16.8394 9.34764 17.4738 9.73895 17.8649L10.7696 18.8951C11.1608 19.2861 11.7949 19.2861 12.186 18.895L21.6166 9.46431C22.0078 9.07314 22.0078 8.43893 21.6166 8.04777Z" fill="#4C17D0"/>
</svg>
