<svg width="179" height="57" viewBox="0 0 179 57" fill="none" xmlns="http://www.w3.org/2000/svg">
<path fill-rule="evenodd" clip-rule="evenodd" d="M88.4962 9.51752C90.1861 7.82814 92.9259 7.82814 94.6158 9.51752C96.3058 11.207 96.3058 13.9462 94.6158 15.6357L84.3131 25.9359C81.3551 21.9726 81.6765 16.3358 85.2772 12.736L88.4962 9.51752Z" fill="#4F9E91"/>
<path fill-rule="evenodd" clip-rule="evenodd" d="M103.225 32.757C104.915 34.4464 104.915 37.1856 103.225 38.875C101.536 40.5645 98.7954 40.5645 97.1055 38.875L86.8027 28.5749C90.767 25.6176 96.4052 25.9388 100.006 29.5386L103.225 32.757Z" fill="#EBE1C5"/>
<path fill-rule="evenodd" clip-rule="evenodd" d="M79.9802 47.4822C78.2904 49.1717 75.5505 49.1717 73.8607 47.4822C72.1708 45.7927 72.1708 43.0536 73.8607 41.3641L84.1633 31.064C87.1213 35.0273 86.8001 40.6641 83.1994 44.2638L79.9802 47.4822Z" fill="#EBCC6E"/>
<path fill-rule="evenodd" clip-rule="evenodd" d="M65.2516 24.2427C63.5617 22.5532 63.5617 19.814 65.2516 18.1245C66.9415 16.435 69.6813 16.435 71.3712 18.1245L81.6739 28.4248C77.7096 31.3821 72.0713 31.0608 68.4708 27.4611L65.2516 24.2427Z" fill="#ED834E"/>
<path fill-rule="evenodd" clip-rule="evenodd" d="M86.1938 46.2205C88.6856 43.4507 89.8437 39.9065 89.668 36.417L94.616 41.3637C94.6283 41.376 94.6407 41.3883 94.6531 41.4006V44.9323C94.6531 47.3215 92.7158 49.2584 90.326 49.2584C88.3848 49.2584 86.7423 47.9806 86.1938 46.2205Z" fill="#ED834E"/>
<path fill-rule="evenodd" clip-rule="evenodd" d="M66.5132 30.4546C69.2836 32.9459 72.8286 34.1037 76.319 33.928L71.3712 38.8748C71.3588 38.8871 71.3465 38.8995 71.3343 38.9118H67.8018C65.412 38.9119 63.4746 36.9749 63.4746 34.5857C63.4746 32.6452 64.7527 31.0029 66.5132 30.4546Z" fill="#4F9E91"/>
<path fill-rule="evenodd" clip-rule="evenodd" d="M101.963 26.5452C99.1929 24.054 95.6478 22.8961 92.1575 23.0716L97.1053 18.125C97.1177 18.1127 97.1299 18.1003 97.1422 18.0879H100.675C103.065 18.0879 105.002 20.0249 105.002 22.4141C105.002 24.3548 103.724 25.9969 101.963 26.5452Z" fill="#EBCC6E"/>
<path fill-rule="evenodd" clip-rule="evenodd" d="M82.2828 10.7792C79.7909 13.5489 78.6329 17.0931 78.8085 20.5828L73.8606 15.636C73.8482 15.6237 73.8359 15.6114 73.8235 15.5991V12.0675C73.8235 9.6782 75.7608 7.74121 78.1507 7.74121C80.0918 7.74121 81.7343 9.01911 82.2828 10.7792Z" fill="#EBE1C5"/>
<path fill-rule="evenodd" clip-rule="evenodd" d="M78.1509 4.22168C73.8166 4.22168 70.303 7.73446 70.303 12.0676V13.5936C67.6954 12.9125 64.8056 13.5933 62.7622 15.6362C59.6974 18.7002 59.6974 23.668 62.7622 26.7321L63.8414 27.8111C61.5159 29.1728 59.9541 31.6971 59.9541 34.5861C59.9541 38.9193 63.4677 42.4321 67.802 42.4321H69.3282C68.6469 45.039 69.3279 47.9281 71.3713 49.9709C74.4361 53.0349 79.4051 53.0349 82.4699 49.9709L85.6889 46.7526C88.5287 43.9135 89.855 40.1342 89.6679 36.417L94.6159 41.3638C97.6807 44.4278 102.65 44.4278 105.715 41.3638C108.78 38.2997 108.78 33.3319 105.715 30.268L104.636 29.1891C106.96 27.8274 108.523 25.3031 108.523 22.4141C108.523 18.0809 105.009 14.5682 100.675 14.5682H99.1484C99.8298 11.9611 99.1488 9.07201 97.1054 7.02911C94.0407 3.96505 89.0717 3.96505 86.0069 7.02911L82.7877 10.2475C79.9479 13.0866 78.6216 16.8657 78.8088 20.5829L73.8608 15.6362C73.8484 15.6239 73.8361 15.6116 73.8237 15.5993V12.0676C73.8237 9.67839 75.761 7.74152 78.1509 7.74152C80.092 7.74152 81.7345 9.0193 82.2829 10.7794C82.4455 10.5987 82.6137 10.4214 82.7876 10.2475L84.9275 8.10808C83.5654 5.78311 81.0405 4.22168 78.1509 4.22168ZM97.1423 18.088C97.13 18.1003 97.1178 18.1127 97.1054 18.125L92.1575 23.0716C95.648 22.8961 99.193 24.0538 101.963 26.5452C103.724 25.9969 105.002 24.3546 105.002 22.4141C105.002 20.0249 103.065 18.088 100.675 18.088H97.1423ZM71.3342 38.9122C71.3465 38.8998 71.3588 38.8874 71.3713 38.8751L76.3191 33.9283C72.8287 34.104 69.2838 32.9461 66.5134 30.455C64.7529 31.0033 63.4747 32.6454 63.4747 34.5861C63.4747 36.9753 65.4121 38.9122 67.802 38.9122H71.3342ZM66.3785 30.332C66.2442 30.208 66.1118 30.0808 65.9814 29.9504V29.9505C66.1118 30.0809 66.2442 30.208 66.3785 30.332ZM90.3259 52.7785C87.4361 52.7785 84.9112 51.217 83.5491 48.892L85.6889 46.7526C85.8629 46.5787 86.0311 46.4014 86.1937 46.2207C86.7421 47.9808 88.3847 49.2587 90.3259 49.2587C92.7157 49.2587 94.6531 47.3218 94.6531 44.9326V41.4009C95.6672 42.4015 96.8861 43.0701 98.1738 43.4065V44.9326C98.1738 49.2658 94.6601 52.7785 90.3259 52.7785ZM94.6159 9.51794C92.926 7.82857 90.1862 7.82857 88.4963 9.51794L85.2771 12.7363C81.6765 16.3362 81.3552 21.9729 84.3132 25.9363L94.6159 15.6361C96.3058 13.9466 96.3058 11.2074 94.6159 9.51794ZM103.225 38.875C104.915 37.1855 104.915 34.4463 103.225 32.7568L100.006 29.5384C96.4052 25.9387 90.7669 25.6174 86.8026 28.5747L97.1054 38.875C98.7953 40.5644 101.536 40.5644 103.225 38.875ZM79.9803 47.482C78.2904 49.1715 75.5506 49.1715 73.8607 47.482C72.1709 45.7925 72.1709 43.0534 73.8607 41.3639L84.1634 31.0637C87.1214 35.027 86.8001 40.6639 83.1995 44.2636L79.9803 47.482ZM65.2517 18.125C63.5619 19.8145 63.5619 22.5536 65.2517 24.2431L68.4708 27.4615C72.0715 31.0613 77.7097 31.3825 81.674 28.4252L71.3713 18.125C69.6814 16.4356 66.9416 16.4356 65.2517 18.125Z" fill="#3D3A2C"/>
<path d="M1.86646 20.0874H5.71508V32.0436H12.3252V35.2826H1.86646V20.0874Z" fill="#3D3A2C"/>
<path d="M19.3129 35.6086C18.0228 35.6086 16.892 35.3767 15.9208 34.913C14.9496 34.4347 14.1958 33.7825 13.6594 32.9565C13.1377 32.1159 12.8767 31.1522 12.8767 30.0652C12.8767 28.9784 13.1377 28.0219 13.6594 27.1959C14.1958 26.3552 14.9496 25.7031 15.9208 25.2394C16.892 24.7611 18.0228 24.522 19.3129 24.522C20.6031 24.522 21.7337 24.7611 22.7049 25.2394C23.6761 25.7031 24.4227 26.3552 24.9445 27.1959C25.4809 28.0219 25.749 28.9784 25.749 30.0652C25.749 31.1522 25.4809 32.1159 24.9445 32.9565C24.4227 33.7825 23.6761 34.4347 22.7049 34.913C21.7337 35.3767 20.6031 35.6086 19.3129 35.6086ZM19.3129 32.6304C20.0812 32.6304 20.69 32.4058 21.1393 31.9566C21.6033 31.4928 21.8351 30.8624 21.8351 30.0652C21.8351 29.2682 21.6033 28.645 21.1393 28.1958C20.69 27.732 20.0812 27.5002 19.3129 27.5002C18.5446 27.5002 17.9285 27.732 17.4647 28.1958C17.0153 28.645 16.7906 29.2682 16.7906 30.0652C16.7906 30.8624 17.0153 31.4928 17.4647 31.9566C17.9285 32.4058 18.5446 32.6304 19.3129 32.6304Z" fill="#3D3A2C"/>
<path d="M32.9374 40.2824C32.2416 40.2824 31.5385 40.2172 30.8282 40.0868C30.1324 39.9563 29.5308 39.7825 29.0235 39.565V36.9129C30.1686 37.4056 31.4732 37.652 32.9374 37.652C33.9956 37.652 34.7566 37.4346 35.2204 36.9999C35.6989 36.5651 35.938 35.9275 35.938 35.0869V34.4565C35.5177 34.8188 34.9958 35.1013 34.3724 35.3043C33.7636 35.5072 33.1113 35.6086 32.4155 35.6086C31.3138 35.6086 30.3426 35.3767 29.5018 34.913C28.6611 34.4492 28.0015 33.797 27.5232 32.9565C27.0592 32.1159 26.8274 31.1523 26.8274 30.0652C26.8274 28.9639 27.0592 27.9929 27.5232 27.1524C27.987 26.3118 28.6393 25.6668 29.4801 25.2176C30.3208 24.7539 31.2849 24.522 32.372 24.522C33.8651 24.522 35.0972 24.9785 36.0684 25.8915V24.848H39.765V34.5652C39.765 36.3767 39.2068 37.7825 38.0906 38.7825C36.989 39.7825 35.2712 40.2824 32.9374 40.2824ZM33.3722 32.6522C33.9666 32.6522 34.4957 32.5 34.9595 32.1957C35.4234 31.8913 35.7495 31.4856 35.938 30.9783V29.1523C35.735 28.645 35.4016 28.2465 34.9378 27.9566C34.4739 27.6524 33.9521 27.5002 33.3722 27.5002C32.5895 27.5002 31.9588 27.732 31.4805 28.1958C31.0021 28.645 30.763 29.2609 30.763 30.0436C30.763 30.8406 31.0021 31.4783 31.4805 31.9566C31.9588 32.4203 32.5895 32.6522 33.3722 32.6522Z" fill="#3D3A2C"/>
<path d="M47.172 35.6086C45.8819 35.6086 44.7513 35.3767 43.7801 34.913C42.8088 34.4347 42.055 33.7825 41.5187 32.9565C40.9968 32.1159 40.7358 31.1522 40.7358 30.0652C40.7358 28.9784 40.9968 28.0219 41.5187 27.1959C42.055 26.3552 42.8088 25.7031 43.7801 25.2394C44.7513 24.7611 45.8819 24.522 47.172 24.522C48.4622 24.522 49.5928 24.7611 50.564 25.2394C51.5353 25.7031 52.2818 26.3552 52.8037 27.1959C53.34 28.0219 53.6083 28.9784 53.6083 30.0652C53.6083 31.1522 53.34 32.1159 52.8037 32.9565C52.2818 33.7825 51.5353 34.4347 50.564 34.913C49.5928 35.3767 48.4622 35.6086 47.172 35.6086ZM47.172 32.6304C47.9403 32.6304 48.5491 32.4058 48.9986 31.9566C49.4624 31.4928 49.6944 30.8624 49.6944 30.0652C49.6944 29.2682 49.4624 28.645 48.9986 28.1958C48.5491 27.732 47.9403 27.5002 47.172 27.5002C46.4038 27.5002 45.7877 27.732 45.3238 28.1958C44.8744 28.645 44.6497 29.2682 44.6497 30.0652C44.6497 30.8624 44.8744 31.4928 45.3238 31.9566C45.7877 32.4058 46.4038 32.6304 47.172 32.6304Z" fill="#3D3A2C"/>
<path d="M114.989 20.0874H118.838V35.2826H114.989V20.0874Z" fill="#3D3A2C"/>
<path d="M120.786 24.848H124.483V25.8915C125.453 24.9785 126.686 24.522 128.179 24.522C129.266 24.522 130.23 24.7539 131.071 25.2176C131.912 25.6668 132.563 26.3118 133.027 27.1524C133.491 27.9784 133.724 28.9422 133.724 30.0436C133.724 31.1305 133.491 32.1015 133.027 32.9565C132.563 33.797 131.912 34.4492 131.071 34.913C130.245 35.3767 129.281 35.6086 128.179 35.6086C127.483 35.6086 126.816 35.4999 126.179 35.2825C125.556 35.0797 125.033 34.797 124.613 34.4347V40.0432H120.786V24.848ZM127.179 32.6304C127.962 32.6304 128.593 32.3986 129.07 31.9348C129.548 31.4711 129.788 30.8406 129.788 30.0436C129.788 29.2464 129.548 28.6234 129.07 28.174C128.593 27.7103 127.962 27.4784 127.179 27.4784C126.599 27.4784 126.077 27.6306 125.613 27.9349C125.149 28.2248 124.817 28.6234 124.613 29.1305V30.9783C124.817 31.4856 125.149 31.8913 125.613 32.1957C126.077 32.4855 126.599 32.6304 127.179 32.6304Z" fill="#3D3A2C"/>
<path d="M139.429 35.6086C138.589 35.6086 137.712 35.5217 136.799 35.3477C135.885 35.1884 135.16 34.9565 134.624 34.6521V31.8479C135.218 32.1957 135.928 32.4855 136.755 32.7175C137.595 32.9348 138.363 33.0435 139.06 33.0435C139.567 33.0435 139.937 33.0072 140.168 32.9348C140.401 32.8623 140.516 32.7175 140.516 32.5C140.516 32.3261 140.437 32.1884 140.278 32.087C140.133 31.9711 139.856 31.8551 139.451 31.7392C139.06 31.6088 138.603 31.4711 138.081 31.3261C137.197 31.0652 136.502 30.7971 135.994 30.5218C135.486 30.2464 135.11 29.8986 134.863 29.4783C134.617 29.0581 134.494 28.5291 134.494 27.8915C134.494 26.761 134.936 25.9205 135.82 25.3698C136.718 24.8045 137.943 24.522 139.495 24.522C140.248 24.522 141.039 24.6017 141.864 24.7611C142.706 24.9205 143.335 25.1307 143.757 25.3916V28.1524C143.322 27.8625 142.741 27.6233 142.017 27.4349C141.307 27.2465 140.639 27.1524 140.016 27.1524C139.524 27.1524 139.139 27.203 138.864 27.3044C138.589 27.3915 138.451 27.5508 138.451 27.7828C138.451 28.0002 138.589 28.1668 138.864 28.2827C139.139 28.3986 139.632 28.5436 140.342 28.7175C140.806 28.8335 141.002 28.8841 140.929 28.8696C141.857 29.116 142.574 29.3914 143.082 29.6958C143.59 30.0001 143.944 30.3624 144.147 30.7827C144.365 31.1884 144.474 31.7102 144.474 32.3478C144.474 33.3478 144.039 34.1448 143.17 34.7391C142.314 35.3188 141.067 35.6086 139.429 35.6086Z" fill="#3D3A2C"/>
<path d="M150.187 35.6088C148.753 35.6088 147.673 35.2102 146.948 34.4132C146.238 33.616 145.883 32.5654 145.883 31.2611V24.8481H149.71V30.8263C149.71 32.0292 150.253 32.6306 151.34 32.6306C151.833 32.6306 152.283 32.5147 152.688 32.2828C153.094 32.0508 153.427 31.7103 153.688 31.2611V24.8481H157.515V35.2827H153.819V34.1523C153.37 34.6305 152.826 34.9928 152.188 35.2392C151.551 35.4856 150.884 35.6088 150.187 35.6088Z" fill="#3D3A2C"/>
<path d="M159.474 24.848H163.019V25.9785C163.454 25.5148 163.954 25.1596 164.519 24.9132C165.084 24.6524 165.686 24.522 166.324 24.522C167.107 24.522 167.73 24.6379 168.194 24.8698C168.673 25.1017 169.056 25.4495 169.346 25.9132C169.781 25.4785 170.311 25.1379 170.934 24.8916C171.557 24.6452 172.188 24.522 172.825 24.522C174.202 24.522 175.181 24.8771 175.761 25.5872C176.341 26.2828 176.63 27.29 176.63 28.6088V35.2825H172.977V29.1523C172.977 28.5726 172.869 28.1524 172.651 27.8915C172.434 27.6306 172.071 27.5002 171.565 27.5002C170.912 27.5002 170.382 27.732 169.977 28.1958C169.992 28.4421 169.999 28.819 169.999 29.3262V35.2825H166.346V29.0001C166.346 28.4639 166.252 28.0798 166.063 27.848C165.875 27.6161 165.541 27.5002 165.064 27.5002C164.323 27.5002 163.686 27.9131 163.149 28.7393V35.2825H159.474V24.848Z" fill="#3D3A2C"/>
</svg>
