<svg width="44" height="42" viewBox="0 0 44 42" fill="none" xmlns="http://www.w3.org/2000/svg">
<path fill-rule="evenodd" clip-rule="evenodd" d="M21.9723 3.947C21.7712 3.947 21.276 4.00226 21.013 4.52834L16.9767 12.5986C16.3379 13.8741 15.1067 14.7604 13.6832 14.9638L4.64692 16.2658C4.0501 16.352 3.84674 16.794 3.78485 16.9797C3.72959 17.1588 3.64117 17.6141 4.05232 18.0076L10.5864 24.2852C11.6275 25.2865 12.1005 26.73 11.8529 28.1424L10.3145 37.0063C10.2194 37.5611 10.5665 37.8838 10.7212 37.9943C10.8848 38.1181 11.3224 38.3635 11.864 38.0805L19.9431 33.8918C21.2163 33.2353 22.7327 33.2353 24.0015 33.8918L32.0784 38.0783C32.6222 38.3591 33.0599 38.1137 33.2256 37.9943C33.3804 37.8838 33.7274 37.5611 33.6324 37.0063L32.0895 28.1424C31.8419 26.73 32.3149 25.2865 33.3561 24.2852L39.8901 18.0076C40.3035 17.6141 40.215 17.1566 40.1576 16.9797C40.0979 16.794 39.8945 16.352 39.2977 16.2658L30.2614 14.9638C28.8401 14.7604 27.6089 13.8741 26.9701 12.5964L22.9294 4.52834C22.6686 4.00226 22.1735 3.947 21.9723 3.947ZM11.3557 41.5244C10.4428 41.5244 9.53655 41.237 8.76068 40.6712C7.42116 39.6897 6.76466 38.0695 7.04981 36.4382L8.58827 27.5743C8.64574 27.245 8.53301 26.9112 8.28986 26.6769L1.75582 20.3993C0.553339 19.2476 0.122304 17.5456 0.630704 15.9651C1.14353 14.367 2.50073 13.2242 4.17403 12.9855L13.2103 11.6835C13.5595 11.6349 13.8602 11.4205 14.0105 11.1154L18.0489 3.04293C18.7938 1.55531 20.2969 0.631348 21.9725 0.631348C23.648 0.631348 25.1511 1.55531 25.896 3.04293L29.9367 11.1132C30.0892 11.4205 30.3876 11.6349 30.7346 11.6835L39.7709 12.9855C41.4442 13.2242 42.8014 14.367 43.3142 15.9651C43.8226 17.5456 43.3894 19.2476 42.1869 20.3993L35.6528 26.6769C35.4097 26.9112 35.2992 27.245 35.3566 27.5721L36.8973 36.4382C37.1803 38.0717 36.5238 39.6919 35.182 40.6712C33.8226 41.6681 32.052 41.8029 30.5512 41.0204L22.4764 36.8361C22.1603 36.6725 21.7824 36.6725 21.4663 36.8361L13.3915 41.0226C12.7461 41.3586 12.0498 41.5244 11.3557 41.5244Z" fill="#4C17D0"/>
</svg>
