<svg width="47" height="44" viewBox="0 0 47 44" fill="none" xmlns="http://www.w3.org/2000/svg">
<path fill-rule="evenodd" clip-rule="evenodd" d="M44.3833 29.1363H35.4355C31.2423 29.1363 27.8294 25.7256 27.8271 21.5346C27.8271 17.3392 31.2401 13.9263 35.4355 13.9241H44.3833C45.2984 13.9241 46.0411 14.6668 46.0411 15.5819C46.0411 16.497 45.2984 17.2397 44.3833 17.2397H35.4355C33.0681 17.2419 31.1428 19.1672 31.1428 21.5324C31.1428 23.8953 33.0703 25.8206 35.4355 25.8206H44.3833C45.2984 25.8206 46.0411 26.5633 46.0411 27.4785C46.0411 28.3936 45.2984 29.1363 44.3833 29.1363Z" fill="#4C17D0"/>
<path fill-rule="evenodd" clip-rule="evenodd" d="M36.4471 23.0542H35.7574C34.8423 23.0542 34.0996 22.3115 34.0996 21.3964C34.0996 20.4812 34.8423 19.7385 35.7574 19.7385H36.4471C37.3622 19.7385 38.1049 20.4812 38.1049 21.3964C38.1049 22.3115 37.3622 23.0542 36.4471 23.0542Z" fill="#4C17D0"/>
<mask id="mask0_3538:7832" style="mask-type:alpha" maskUnits="userSpaceOnUse" x="0" y="0" width="47" height="44">
<path fill-rule="evenodd" clip-rule="evenodd" d="M0.420898 0.631348H46.0412V43.0118H0.420898V0.631348Z" fill="white"/>
</mask>
<g mask="url(#mask0_3538:7832)">
<path fill-rule="evenodd" clip-rule="evenodd" d="M13.6786 3.947C8.19672 3.947 3.73606 8.40766 3.73606 13.8895V29.7538C3.73606 35.2357 8.19672 39.6964 13.6786 39.6964H32.7856C38.2675 39.6964 42.7259 35.2357 42.7259 29.7538V13.8895C42.7259 8.40766 38.2675 3.947 32.7856 3.947H13.6786ZM32.7856 43.012H13.6786C6.36869 43.012 0.42041 37.0637 0.42041 29.7538V13.8895C0.42041 6.57742 6.36869 0.631348 13.6786 0.631348H32.7856C40.0955 0.631348 46.0416 6.57742 46.0416 13.8895V29.7538C46.0416 37.0637 40.0955 43.012 32.7856 43.012Z" fill="#4C17D0"/>
</g>
<path fill-rule="evenodd" clip-rule="evenodd" d="M24.0378 13.9792H12.1036C11.1885 13.9792 10.4458 13.2365 10.4458 12.3214C10.4458 11.4063 11.1885 10.6636 12.1036 10.6636H24.0378C24.9529 10.6636 25.6956 11.4063 25.6956 12.3214C25.6956 13.2365 24.9529 13.9792 24.0378 13.9792Z" fill="#4C17D0"/>
</svg>
