<svg width="1440" height="1742" viewBox="0 0 1440 1742" fill="none" xmlns="http://www.w3.org/2000/svg">
<path fill-rule="evenodd" clip-rule="evenodd" d="M1307 3462.94C1256.69 3462.89 1206.24 3439.13 1150.7 3412.98C1040.2 3360.94 909.585 3299.43 719.999 3396.5C533.991 3491.74 428.386 3438.45 330.536 3389.08C235.325 3341.04 147.455 3296.7 -0.000488281 3396.5L0.00012207 37.9302C267.078 233.265 685.248 52.9116 685.248 52.9116C685.248 52.9116 706.41 43.3227 720 37.9303C899.951 -33.4749 1082.57 8.14953 1184.23 62.7018C1275.43 111.646 1343.29 148.063 1440 37.9299L1440 3396.5C1393.78 3445.28 1350.59 3462.9 1307.31 3462.94C1307.21 3462.94 1307.11 3462.94 1307 3462.94Z" fill="#F8F6FE"/>
</svg>
