<svg width="120" height="48" viewBox="0 0 120 48" fill="none" xmlns="http://www.w3.org/2000/svg">
<path fill-rule="evenodd" clip-rule="evenodd" d="M50.6157 39.5353C51.1397 39.5353 51.5986 39.6702 51.9917 39.9398C52.3848 40.2094 52.6885 40.5877 52.9025 41.0747C53.1165 41.5619 53.2234 42.1271 53.2234 42.7708V43.4494C53.2234 44.0582 53.101 44.6127 52.8565 45.1127C52.6119 45.6129 52.2756 46.0065 51.8473 46.2935C51.4194 46.5807 50.9388 46.7241 50.4058 46.7241C49.6458 46.7241 48.9991 46.4459 48.4661 45.8892L48.3745 46.5677H47.5883V36.9127H48.5581V40.4354C49.065 39.8351 49.7505 39.5353 50.6157 39.5353ZM110.568 8.50213C111.184 8.50213 111.743 8.75084 112.146 9.15292C112.55 9.55549 112.8 10.1116 112.8 10.724C112.8 11.3374 112.55 11.8933 112.146 12.2951C111.743 12.6969 111.184 12.946 110.568 12.946C109.953 12.946 109.395 12.6969 108.991 12.2947C108.586 11.8933 108.337 11.3374 108.337 10.724C108.337 10.1116 108.586 9.55589 108.99 9.15368C109.395 8.75084 109.953 8.50213 110.568 8.50213ZM111.927 9.37193C111.579 9.02602 111.099 8.81182 110.568 8.81182C110.038 8.81182 109.557 9.02561 109.21 9.37117C108.863 9.71713 108.647 10.1956 108.647 10.724C108.647 11.252 108.863 11.7305 109.21 12.0761C109.557 12.4224 110.038 12.6362 110.568 12.6362C111.099 12.6362 111.579 12.422 111.927 12.0761C112.274 11.7305 112.489 11.252 112.489 10.724C112.489 10.1956 112.274 9.71713 111.927 9.37193ZM109.512 11.9197V9.52795H110.577C110.791 9.52795 110.953 9.54991 111.065 9.59275C111.176 9.63559 111.265 9.71114 111.331 9.81995C111.398 9.92822 111.431 10.0485 111.431 10.18C111.431 10.3498 111.376 10.4928 111.266 10.6094C111.155 10.7255 110.985 10.7988 110.755 10.8308C110.839 10.8707 110.903 10.9109 110.947 10.9501C111.04 11.0345 111.127 11.1407 111.21 11.2685L111.625 11.9197H111.228L110.911 11.4218C110.818 11.2778 110.742 11.1682 110.682 11.092C110.621 11.0156 110.568 10.9627 110.52 10.9321C110.473 10.902 110.424 10.8808 110.375 10.8685C110.34 10.8614 110.281 10.8577 110.199 10.8577H109.831V11.9197H109.512ZM109.831 10.5836H110.513C110.658 10.5836 110.771 10.5687 110.853 10.5386C110.935 10.5088 110.997 10.4612 111.039 10.3948C111.081 10.3293 111.102 10.2578 111.102 10.1804C111.102 10.0675 111.061 9.97403 110.979 9.90104C110.897 9.8281 110.767 9.79201 110.59 9.79201H109.831V10.5836ZM31.8521 7.3778C32.1977 7.71076 32.5302 8.05667 32.849 8.41564L16.5143 17.3895L16.2581 15.9451L29.2563 8.80403C29.9049 8.63056 30.5292 8.34535 30.9571 7.86979L31.8521 7.3778ZM33.2203 8.84575C33.521 9.20512 33.808 9.57605 34.0813 9.9577L16.8731 19.4111L16.6168 17.9671L33.2203 8.84575ZM34.3997 10.4164C34.6577 10.8007 34.9023 11.1954 35.1316 11.5995L22.2909 18.6542L18.0479 19.4L34.3997 10.4164ZM35.3983 12.0873C35.6148 12.4961 35.8169 12.914 36.0028 13.3403L28.2191 17.6167C28.1357 17.6282 28.0517 17.6416 27.9667 17.6561L23.9878 18.3558L35.3983 12.0873ZM36.2178 13.8556C36.3918 14.2895 36.5499 14.7318 36.6913 15.181L30.966 18.3261C30.579 17.887 30.0493 17.6576 29.4274 17.5861L36.2178 13.8556ZM36.8537 15.7254C36.9827 16.1857 37.0949 16.6534 37.1887 17.1266L31.6341 20.1782C31.6263 20.0319 31.6086 19.8796 31.5802 19.7194C31.5162 19.3583 31.4138 19.0492 31.2792 18.7878L36.8537 15.7254ZM37.2935 17.7027C37.3742 18.1913 37.4364 18.6862 37.4779 19.1866L18.6661 29.5214L18.4095 28.0767L27.4004 23.1375L28.8916 22.8754C30.2894 22.6299 31.3663 22.0319 31.5937 20.834L37.2935 17.7027ZM37.5186 19.798C37.5348 20.1142 37.5434 20.4326 37.5434 20.7527C37.5434 20.9613 37.5389 21.1687 37.5317 21.3758L19.0244 31.5435L18.7686 30.099L37.5186 19.798ZM37.4992 22.0278C37.4604 22.5991 37.3956 23.1631 37.3058 23.7191L19.3832 33.5654L19.1269 32.121L37.4992 22.0278ZM37.1797 24.4217C37.054 25.0486 36.8967 25.6636 36.7093 26.2659L19.7418 35.5875L19.4855 34.1426L37.1797 24.4217ZM36.4489 27.0426C36.1913 27.7564 35.8917 28.4498 35.5524 29.1204L19.8427 37.7505C19.9158 37.2299 19.8967 36.6874 19.8326 36.171L36.4489 27.0426ZM35.0631 30.0227C34.5396 30.929 33.9411 31.787 33.2768 32.5891L21.1997 39.2241C20.5344 39.3075 19.8585 39.3574 19.1733 39.3693C19.3966 39.1007 19.5582 38.7995 19.67 38.4793L35.0631 30.0227ZM32.1296 33.8533C29.6431 36.3527 26.4507 38.155 22.8747 38.9377L32.1296 33.8533ZM18.3074 27.4995L18.0512 26.055L21.4597 24.1821L25.7039 23.4361L18.3074 27.4995ZM17.9487 25.4774L17.8319 24.8198L19.7638 24.4803L17.9487 25.4774ZM16.1559 15.3675L15.8994 13.9231L23.248 9.88574L27.4916 9.13991L16.1559 15.3675ZM15.7969 13.3455L15.5411 11.9011L17.3077 10.9303L21.5517 10.1841L15.7969 13.3455ZM15.4382 11.3236L15.4274 11.261L15.6106 11.2286L15.4382 11.3236ZM18.84 2.13184C19.2259 2.13184 19.6091 2.14345 19.9891 2.16653L12.5829 6.23539L11.7776 6.377C10.1322 6.66631 9.04826 7.3652 8.53587 8.45848L2.42994 11.8132C2.91168 10.9393 3.46109 10.1073 4.07224 9.32576L17.005 2.22085C17.6087 2.16244 18.2207 2.13184 18.84 2.13184ZM20.9851 2.25289C21.7294 2.33744 22.4599 2.46551 23.1754 2.63489L18.5224 5.19134L14.2784 5.93717L20.9851 2.25289ZM23.9593 2.83825C24.5679 3.00992 25.1637 3.21211 25.7454 3.4426L24.4631 4.14676L20.2198 4.89272L23.9593 2.83825ZM26.4006 3.71597L26.5458 3.78077L26.1594 3.8485L26.4006 3.71597ZM8.28158 9.23189C8.18164 9.71303 8.16483 10.2511 8.23186 10.8446L1.13162 14.7452C1.37172 14.0434 1.65259 13.3593 1.97202 12.6979L8.28158 9.23189ZM8.32013 11.4301L8.57624 12.8745L0.451266 17.3385C0.567249 16.718 0.713019 16.1094 0.88844 15.5124L8.32013 11.4301ZM8.67916 13.4517L8.93499 14.8961L0.165828 19.7135C0.197332 19.1472 0.254465 18.5874 0.335689 18.0356L8.67916 13.4517ZM9.0375 15.4736L9.29325 16.9185L0.173376 21.9287C0.14942 21.5401 0.136719 21.1479 0.136719 20.7527C0.136719 20.6218 0.138888 20.491 0.1416 20.3607L9.0375 15.4736ZM9.39612 17.4961L9.6524 18.9404L0.422835 24.0107C0.336864 23.5255 0.269471 23.0329 0.222328 22.5354L9.39612 17.4961ZM9.75451 19.5176L10.0106 20.9624L0.882926 25.9768C0.749043 25.5199 0.63193 25.0548 0.532761 24.5837L9.75451 19.5176ZM10.1131 21.5397L10.3694 22.984L1.53814 27.8361C1.35983 27.4048 1.19711 26.9651 1.05152 26.5179L10.1131 21.5397ZM10.4715 23.562L10.7281 25.0061L2.37638 29.5941C2.15612 29.1879 1.9496 28.7723 1.75917 28.3481L10.4715 23.562ZM10.8305 25.5839L11.0864 27.0284L3.39406 31.2544C3.13117 30.8724 2.88208 30.4811 2.64826 30.0792L10.8305 25.5839ZM11.1889 27.6056L11.4455 29.0501L4.59217 32.8155C4.28698 32.4583 3.99549 32.0897 3.7176 31.7103L11.1889 27.6056ZM11.5476 29.6276L11.8037 31.0721L5.97941 34.2719C5.62938 33.9416 5.29228 33.5982 4.96873 33.2418L11.5476 29.6276ZM11.9063 31.6496L12.1625 33.0944L7.57316 35.615C7.17327 35.3145 6.78623 34.9987 6.41283 34.6677L11.9063 31.6496ZM12.265 33.6716L12.5208 35.1164L9.40136 36.83C8.94475 36.5639 8.50003 36.2796 8.0695 35.9769L12.265 33.6716ZM12.6236 35.6939L12.8376 36.9009C12.8514 36.9794 12.866 37.058 12.8824 37.1368L11.5132 37.8891C10.9866 37.6653 10.4722 37.4187 9.97219 37.1503L12.6236 35.6939ZM13.0157 37.697C13.096 37.9878 13.194 38.2734 13.3152 38.5471C12.9308 38.4286 12.5523 38.2984 12.1789 38.1568L13.0157 37.697ZM5.08662 8.13488C7.77918 5.22703 11.3898 3.17566 15.4603 2.43568L5.08662 8.13488ZM100.081 14.682H100.194V14.2124L105.46 11.3198C105.468 11.531 105.473 11.757 105.473 11.9975V12.898L97.658 17.191C97.6158 17.0265 97.5945 16.8533 97.5945 16.673C97.5945 16.3853 97.6517 16.1179 97.765 15.8736C97.8559 15.6781 97.9823 15.4994 98.1409 15.3403L99.1358 14.7941C99.4179 14.7192 99.7339 14.682 100.081 14.682ZM100.194 13.579V12.358L100.196 11.9924L105.01 9.34849C105.038 9.39272 105.066 9.4379 105.092 9.48407C105.206 9.69251 105.289 9.92044 105.339 10.1663C105.372 10.3256 105.399 10.5066 105.42 10.7084L100.194 13.579ZM100.21 11.3512C100.22 11.0692 100.235 10.8235 100.254 10.6168C100.277 10.3789 100.318 10.161 100.378 9.96431C100.417 9.83588 100.465 9.71227 100.521 9.59504L103.096 8.18029C103.335 8.20531 103.567 8.26408 103.79 8.35682C104.089 8.48044 104.373 8.66588 104.638 8.91055L104.643 8.91541L100.21 11.3512ZM105.473 13.5318V14.682H106.265L99.1456 18.5927C99.0988 18.581 99.0532 18.5684 99.008 18.5547C98.7076 18.4623 98.4518 18.3201 98.2397 18.1283C98.0949 18.001 97.9741 17.8591 97.8773 17.7046L105.473 13.5318ZM107.335 14.7274C107.464 14.7487 107.586 14.777 107.702 14.8127C107.999 14.9039 108.254 15.0444 108.463 15.2305C108.57 15.3257 108.664 15.4286 108.744 15.5388L100.194 20.2359V18.6876H100.127L107.335 14.7274ZM109 16.0326C109.067 16.2326 109.101 16.447 109.101 16.673C109.101 17.0429 109.023 17.3634 108.868 17.6342L108.817 17.7176L107.244 18.581L107.185 18.5923C106.818 18.6556 106.401 18.6876 105.93 18.6876H105.473V19.5545L100.194 22.4545V20.8697L109 16.0326ZM105.473 20.1887V21.7739L100.194 24.6739V23.0887L105.473 20.1887ZM105.473 22.4072V23.9929L100.194 26.8928V25.3076L105.473 22.4072ZM105.473 24.6266V26.2118L100.303 29.0519L100.282 28.8605C100.241 28.4468 100.213 28.0007 100.201 27.523L105.473 24.6266ZM105.474 26.8448C105.476 27.0932 105.481 27.3107 105.489 27.4946C105.5 27.756 105.518 27.9768 105.542 28.1526C105.552 28.2286 105.565 28.3008 105.584 28.3697L100.773 31.0125C100.682 30.8132 100.606 30.6037 100.547 30.3824C100.485 30.1556 100.431 29.908 100.386 29.6399L105.474 26.8448ZM105.837 28.865C105.904 28.9357 105.995 28.9912 106.108 29.0288C106.243 29.0738 106.412 29.0965 106.614 29.0965C106.737 29.0965 106.879 29.0866 107.038 29.0656C107.198 29.0453 107.388 29.0109 107.609 28.9648L107.614 28.9636C107.837 28.9193 108.046 28.8825 108.242 28.8561C108.441 28.8295 108.609 28.8151 108.745 28.8151L108.81 28.8165L102.067 32.5206C101.694 32.2678 101.382 31.9686 101.133 31.6269C101.102 31.5844 101.073 31.5416 101.044 31.4977L105.837 28.865ZM109.57 29.0329C109.722 29.119 109.868 29.2302 110.004 29.3666C110.188 29.5498 110.326 29.7564 110.417 29.9843C110.436 30.0305 110.452 30.0778 110.467 30.125L104.678 33.3052C104.293 33.2746 103.936 33.2236 103.608 33.1514C103.252 33.0724 102.929 32.9682 102.64 32.8394L109.57 29.0329ZM110.553 30.7116V30.7168C110.553 31.1592 110.43 31.5528 110.185 31.8965C109.95 32.2253 109.604 32.5005 109.149 32.7205C108.717 32.9298 108.197 33.0862 107.59 33.1879C107.054 33.2783 106.448 33.3283 105.774 33.3372L110.553 30.7116ZM77.9887 21.9735H80.8743L72.1672 26.757C72.0525 26.296 71.9663 25.8148 71.9099 25.3129L77.9887 21.9735ZM82.0278 21.9735H84.5962C84.5434 21.5069 84.4579 21.0831 84.3404 20.7032L88.7091 18.3034L88.7845 18.4404C88.9839 18.8123 89.1534 19.1881 89.2925 19.5675L78.8508 25.304H77.2185C77.2379 25.5929 77.2754 25.8719 77.3296 26.14L72.8371 28.608C72.6931 28.315 72.564 28.0111 72.4512 27.6961C72.4052 27.568 72.3614 27.438 72.3202 27.3062L82.0278 21.9735ZM84.1443 20.1771C83.9701 19.7832 83.7505 19.4466 83.4876 19.1687C83.442 19.1206 83.3952 19.0741 83.3474 19.0298L87.5238 16.7357L87.5357 16.7475C87.8656 17.0822 88.1603 17.4427 88.4181 17.8292L84.1443 20.1771ZM82.8682 18.6593C82.7104 18.5599 82.5439 18.4753 82.3693 18.4054C81.9409 18.2337 81.4555 18.1472 80.9143 18.1472L85.8458 15.4382C86.3025 15.7093 86.7191 16.0084 87.0966 16.336L82.8682 18.6593ZM77.9878 19.7549C77.8503 19.9797 77.7291 20.2277 77.625 20.4992C77.4841 20.8657 77.374 21.2729 77.2948 21.7209L71.856 24.7089C71.8358 24.4043 71.8262 24.0926 71.8262 23.7735C71.8262 23.5579 71.8313 23.3438 71.8418 23.1315L77.9878 19.7549ZM85.6659 25.304H84.0437L89.7739 22.1563V22.2151C89.7739 22.8332 89.6812 23.3516 89.4964 23.7682C89.4701 23.8275 89.4421 23.8852 89.4122 23.94L87.1134 25.203C86.6776 25.2704 86.1945 25.304 85.6659 25.304ZM82.8902 25.304H80.0046L89.4691 20.1045L89.5248 20.3052C89.6321 20.7149 89.7051 21.1262 89.7428 21.5393L82.8902 25.304ZM77.4728 26.6947C77.5574 26.9614 77.6613 27.215 77.784 27.4545C77.8748 27.6302 77.9725 27.7944 78.0769 27.9482L73.8967 30.245C73.5987 29.8856 73.3319 29.5032 73.0986 29.098L77.4728 26.6947ZM78.4244 28.391L78.4273 28.3939C78.6694 28.6609 78.9424 28.8829 79.2435 29.0601C79.3864 29.1454 79.5318 29.2206 79.6814 29.2857L75.3906 31.6429C75.0184 31.3751 74.6713 31.0765 74.3486 30.7459L74.2757 30.6702L78.4244 28.391ZM80.4127 29.5177C80.6847 29.574 80.9667 29.6027 81.2584 29.6027C81.5213 29.6027 81.7638 29.5889 81.9862 29.5602C82.2122 29.5315 82.4276 29.4872 82.6326 29.4281L82.6378 29.4261C82.8435 29.3702 83.0455 29.2965 83.2426 29.2075C83.4401 29.1174 83.6357 29.0094 83.8298 28.8833C84.0348 28.7533 84.2293 28.6192 84.416 28.4795C84.6007 28.3418 84.7765 28.1984 84.9437 28.0513C85.1314 27.8883 85.3335 27.7084 85.5496 27.511C85.7767 27.3036 86.0314 27.0676 86.313 26.8039L86.3268 26.7923C86.4827 26.6598 86.6686 26.5604 86.8853 26.4948C87.0884 26.433 87.3158 26.4017 87.5649 26.4017C87.8368 26.4017 88.0893 26.4409 88.3178 26.519C88.4049 26.5484 88.4883 26.5831 88.568 26.6229L77.4657 32.7224L77.3905 32.6952C76.8654 32.5027 76.3732 32.2678 75.9143 31.9896L80.4127 29.5177ZM89.0595 26.9867C89.1918 27.1282 89.2967 27.2932 89.3719 27.4809C89.4635 27.705 89.5091 27.9582 89.5091 28.2356L89.5064 28.3258L80.4381 33.3082C79.6422 33.2556 78.8972 33.1364 78.2029 32.951L89.0595 26.9867ZM89.3576 29.0418C89.2701 29.294 89.1421 29.5624 88.9765 29.8484L88.9749 29.8532C88.7984 30.1485 88.5781 30.4405 88.3141 30.7232C88.0605 30.9954 87.7635 31.2624 87.4242 31.5208C87.0812 31.7863 86.6967 32.029 86.2734 32.2461C85.8548 32.4603 85.3917 32.652 84.885 32.8222C84.3756 32.9958 83.8284 33.1246 83.2475 33.2098C82.7066 33.2895 82.1358 33.332 81.5369 33.338L89.3576 29.0418ZM71.8915 22.4702C71.9147 22.2409 71.9447 22.0137 71.9805 21.7892C72.0393 21.4223 72.1152 21.0626 72.2088 20.7107L83.5025 14.5062L83.6148 14.533C84.2005 14.6764 84.7504 14.8735 85.2643 15.1236L71.8915 22.4702ZM72.4422 19.9489L72.4424 19.9481C72.6486 19.3542 72.9022 18.8057 73.2015 18.3007C73.3132 18.1123 73.4318 17.9287 73.5568 17.751L79.8315 14.3044C80.231 14.2634 80.6401 14.2426 81.0601 14.2426C81.6085 14.2426 82.1347 14.2776 82.6386 14.3476L72.4422 19.9489ZM74.5988 16.5453C74.9093 16.2549 75.2447 15.9897 75.6042 15.7518C76.0926 15.426 76.6301 15.1493 77.2132 14.9225C77.4942 14.8131 77.7829 14.7167 78.0787 14.6332L74.5988 16.5453ZM51.7509 16.6709C51.9405 16.466 52.1339 16.2754 52.3309 16.0985L55.1834 14.5316C55.2682 14.5093 55.3539 14.4879 55.4406 14.4686C56.0136 14.3405 56.6203 14.2761 57.2584 14.2761C57.6463 14.2761 58.0229 14.3025 58.3887 14.3562L46.7807 20.7331V19.1476L51.7172 16.4359C51.731 16.5122 51.7419 16.5904 51.7509 16.6709ZM59.2251 14.5301C59.7233 14.6656 60.196 14.8562 60.6411 15.1005C60.7125 15.1397 60.7829 15.1802 60.8517 15.2215L54.4364 18.7462C54.1783 18.8478 53.9295 18.9848 53.6894 19.1561L46.7807 22.952V21.3661L59.2251 14.5301ZM61.3679 15.5716C61.5811 15.7347 61.7793 15.9119 61.9623 16.103C62.1122 16.2594 62.2528 16.4255 62.3826 16.5997L57.6197 19.216C57.469 19.0324 57.2767 18.8853 57.0452 18.7754C56.7565 18.6389 56.4034 18.5562 55.9856 18.5286L61.3679 15.5716ZM62.6919 17.0634C62.7675 17.1903 62.8385 17.3214 62.9047 17.4565C63.0548 17.7366 63.1805 18.0256 63.2807 18.3257L58.2709 21.0775C58.2579 20.9912 58.244 20.907 58.2294 20.8247C58.1509 20.3946 58.0402 20.0178 57.8987 19.6963L62.6919 17.0634ZM63.4337 18.875C63.4688 19.0321 63.4984 19.1922 63.5212 19.3552C63.5605 19.6577 63.5919 19.9928 63.6143 20.3607L58.3772 23.238V22.7159C58.3772 22.3451 58.3641 21.9976 58.3378 21.6744L63.4337 18.875ZM63.642 20.9792C63.651 21.2555 63.6551 21.5441 63.6551 21.8443V22.5573L58.3772 25.457V23.8715L63.642 20.9792ZM63.6551 23.1911V24.7764L58.3772 27.676V26.0905L63.6551 23.1911ZM63.6551 25.4101V26.9949L58.3772 29.8945V28.3094L63.6551 25.4101ZM63.6551 27.6287V29.2139L58.7202 31.9255C58.6547 31.7915 58.5989 31.6492 58.5522 31.4981C58.4606 31.2038 58.4052 30.8792 58.3854 30.5239L63.6551 27.6287ZM63.6551 29.848V30.2212C63.6551 30.7056 63.5972 31.1388 63.4818 31.5177L63.4777 31.5305L60.3385 33.255C60.2103 33.2226 60.0861 33.1801 59.9661 33.1287C59.641 32.9886 59.3526 32.779 59.1039 32.5012C59.0736 32.4669 59.0441 32.4327 59.0156 32.397L63.6551 29.848ZM63.0244 32.4133C62.9956 32.4494 62.9665 32.4841 62.9362 32.5179C62.6923 32.7905 62.4076 32.9965 62.0876 33.1339C61.8664 33.2284 61.6283 33.2907 61.375 33.3196L63.0244 32.4133ZM52.6283 20.373C52.5314 20.5521 52.4458 20.7431 52.3721 20.9456C52.2753 21.2421 52.1993 21.6674 52.1465 22.2226L46.7807 25.1706V23.5855L52.6283 20.373ZM52.0994 22.8827C52.0736 23.3527 52.0598 23.8882 52.0586 24.4904L46.7807 27.39V25.8045L52.0994 22.8827ZM52.0586 25.1241V26.7093L46.7807 29.6086V28.0238L52.0586 25.1241ZM52.0586 27.3427V28.9279L47.0231 31.6943C46.9984 31.6302 46.976 31.565 46.9554 31.4981C46.8406 31.1275 46.7827 30.7082 46.7807 30.242L52.0586 27.3427ZM52.0586 29.5621V30.2212C52.0586 30.5757 52.0276 30.9015 51.9655 31.1983L48.4088 33.1521L48.3528 33.1287C48.0334 32.9876 47.7495 32.7775 47.5034 32.4997C47.4188 32.4036 47.3418 32.3008 47.2718 32.1914L52.0586 29.5621ZM51.6988 31.978C51.5942 32.1847 51.4666 32.3687 51.3166 32.5299C51.0664 32.7965 50.7788 32.9999 50.4555 33.1353C50.1328 33.2705 49.779 33.3386 49.3971 33.3386C49.3414 33.3386 49.286 33.3372 49.2314 33.3342L51.6988 31.978ZM46.7807 18.5141V17.2134C46.7807 17.1146 46.7837 17.0186 46.7882 16.9248L50.7425 14.7524C50.8542 14.8358 50.9575 14.9296 51.0518 15.0328C51.201 15.1959 51.333 15.388 51.4449 15.6055C51.4905 15.6948 51.5312 15.7879 51.5679 15.884L46.7807 18.5141ZM46.8719 16.2448C46.9741 15.7547 47.1623 15.3537 47.4357 15.0436L47.4391 15.0405C47.6676 14.7863 47.9358 14.5933 48.2439 14.466C48.547 14.3401 48.8865 14.2761 49.2613 14.2761C49.4894 14.2761 49.7112 14.3048 49.9244 14.3606C50.0053 14.3818 50.085 14.4072 50.1631 14.437L46.8719 16.2448ZM52.2535 42.7578C52.2535 41.9752 52.0987 41.3727 51.7887 40.9507C51.4782 40.5289 51.0394 40.318 50.4713 40.318C50.0696 40.318 49.7067 40.4071 49.3836 40.5854C49.0605 40.7638 48.7851 41.0137 48.5581 41.3358V45.1325C49.0122 45.6802 49.589 45.9544 50.2881 45.9544C50.8733 45.9544 51.3473 45.7305 51.7097 45.2826C52.0725 44.8346 52.2535 44.232 52.2535 43.4755V42.7578ZM61.8997 39.6917V46.5677H61.0742L60.9953 45.589C60.3928 46.3457 59.6328 46.7241 58.7153 46.7241C58.0862 46.7241 57.5663 46.5349 57.1556 46.1566C56.7448 45.7782 56.5399 45.2759 56.5399 44.6496V39.6917H57.5093V44.6104C57.5093 45.0368 57.6317 45.3674 57.8763 45.602C58.1209 45.837 58.4617 45.9544 58.8985 45.9544C59.3006 45.9544 59.6784 45.8456 60.0322 45.6282C60.3861 45.4107 60.6852 45.1105 60.93 44.7281V39.6917H61.8997ZM67.7582 46.7241C66.7274 46.7241 65.8405 46.4284 65.098 45.837L65.5959 45.2107C65.8929 45.4542 66.2096 45.6389 66.546 45.7652C66.8826 45.8915 67.2604 45.9544 67.6796 45.9544C68.2126 45.9544 68.6256 45.8609 68.9181 45.674C69.2109 45.487 69.3572 45.2152 69.3572 44.8585V44.7541C69.3572 44.441 69.2633 44.1996 69.0755 44.0299C68.8877 43.8605 68.5358 43.6884 68.0203 43.5145L67.1032 43.1884C66.5175 42.9883 66.0896 42.7578 65.8188 42.4969C65.548 42.2358 65.4127 41.8966 65.4127 41.4792V41.2576C65.4127 40.9269 65.515 40.6313 65.7204 40.3702C65.9258 40.1092 66.2119 39.9048 66.5789 39.7569C66.9457 39.6091 67.3565 39.5353 67.8109 39.5353C68.2826 39.5353 68.7281 39.6069 69.1473 39.7506C69.5669 39.8939 69.938 40.1007 70.2615 40.3702L69.7764 40.9445C69.4447 40.718 69.1278 40.5572 68.8263 40.4614C68.5249 40.3657 68.191 40.318 67.824 40.318C67.3781 40.318 67.0266 40.4008 66.7689 40.5661C66.5111 40.7311 66.3821 40.9575 66.3821 41.2442V41.3488C66.3821 41.6098 66.4782 41.8228 66.6705 41.9882C66.8627 42.1531 67.208 42.323 67.7058 42.4969L68.6233 42.823C69.2001 43.023 69.6279 43.2557 69.9077 43.5213C70.1871 43.7864 70.3269 44.1625 70.3269 44.6496V44.8715C70.3269 45.4456 70.0847 45.8977 69.5994 46.2283C69.1148 46.5591 68.501 46.7241 67.7582 46.7241ZM74.8093 46.5677H73.8399V40.4484H72.7519V39.6917H74.8093V46.5677ZM74.2592 38.3479C74.0845 38.3479 73.9379 38.2872 73.82 38.1653C73.7022 38.0436 73.6431 37.8954 73.6431 37.7216C73.6431 37.5476 73.7022 37.402 73.82 37.2843C73.9379 37.1671 74.0845 37.1083 74.2592 37.1083C74.4338 37.1083 74.5823 37.1671 74.7047 37.2843C74.827 37.402 74.8883 37.5476 74.8883 37.7216C74.8883 37.8954 74.827 38.0436 74.7047 38.1653C74.5823 38.2872 74.4338 38.3479 74.2592 38.3479ZM81.9259 39.5353C82.5899 39.5353 83.1252 39.7353 83.5314 40.1352C83.9375 40.5355 84.1406 41.1008 84.1406 41.8314V46.5677H83.1712V41.9096C83.1712 41.3704 83.0444 40.9705 82.7912 40.7095C82.5375 40.4484 82.1792 40.318 81.7162 40.318C80.9123 40.318 80.253 40.7225 79.7375 41.5312V46.5677H78.7678V39.6917H79.5932L79.6721 40.6182C80.2137 39.8962 80.9651 39.5353 81.9259 39.5353ZM88.3612 43.4233V43.4494C88.3612 44.2496 88.5579 44.867 88.951 45.3019C89.3442 45.7369 89.8943 45.9544 90.6024 45.9544C90.9693 45.9544 91.297 45.9 91.585 45.7912C91.8733 45.6825 92.1747 45.5239 92.4893 45.315L92.8693 45.9413C92.5723 46.1678 92.223 46.3546 91.821 46.5025C91.4192 46.6503 90.9955 46.7241 90.5496 46.7241C89.9119 46.7241 89.355 46.583 88.8788 46.3003C88.4027 46.0176 88.0402 45.6282 87.7912 45.1325C87.5421 44.6365 87.4176 44.0757 87.4176 43.4494V42.7708C87.4176 42.1707 87.5376 41.6247 87.7781 41.1337C88.0182 40.642 88.3589 40.253 88.8003 39.9659C89.2413 39.6787 89.7589 39.5353 90.3533 39.5353C91.2356 39.5353 91.9257 39.8244 92.4238 40.403C92.9217 40.9813 93.1708 41.7838 93.1708 42.81C93.1708 43.0621 93.1577 43.2666 93.1316 43.4233H88.3612ZM90.3533 40.305C89.7328 40.305 89.248 40.5204 88.8987 40.9507C88.5489 41.3812 88.3698 41.9707 88.3612 42.7188H92.2926V42.6276C92.2926 41.9055 92.1246 41.338 91.7881 40.9247C91.4518 40.5117 90.9734 40.305 90.3533 40.305ZM98.4263 46.7241C97.3955 46.7241 96.5086 46.4284 95.7662 45.837L96.264 45.2107C96.561 45.4542 96.8779 45.6389 97.2141 45.7652C97.5507 45.8915 97.9285 45.9544 98.3477 45.9544C98.8807 45.9544 99.2937 45.8609 99.5862 45.674C99.8791 45.487 100.025 45.2152 100.025 44.8585V44.7541C100.025 44.441 99.9314 44.1996 99.7437 44.0299C99.5558 43.8605 99.2039 43.6884 98.6885 43.5145L97.7714 43.1884C97.1856 42.9883 96.7578 42.7578 96.4869 42.4969C96.2162 42.2358 96.0808 41.8966 96.0808 41.4792V41.2576C96.0808 40.9269 96.1833 40.6313 96.3885 40.3702C96.5939 40.1092 96.8801 39.9048 97.247 39.7569C97.614 39.6091 98.0246 39.5353 98.479 39.5353C98.9507 39.5353 99.3962 39.6069 99.8154 39.7506C100.235 39.8939 100.606 40.1007 100.93 40.3702L100.445 40.9445C100.113 40.718 99.796 40.5572 99.4946 40.4614C99.1931 40.3657 98.8591 40.318 98.4922 40.318C98.0463 40.318 97.6947 40.4008 97.437 40.5661C97.1794 40.7311 97.0502 40.9575 97.0502 41.2442V41.3488C97.0502 41.6098 97.1464 41.8228 97.3386 41.9882C97.5309 42.1531 97.8761 42.323 98.374 42.4969L99.2914 42.823C99.8682 43.023 100.296 43.2557 100.576 43.5213C100.855 43.7864 100.995 44.1625 100.995 44.6496V44.8715C100.995 45.4456 100.753 45.8977 100.268 46.2283C99.7829 46.5591 99.1692 46.7241 98.4263 46.7241ZM106.329 46.7241C105.298 46.7241 104.412 46.4284 103.669 45.837L104.167 45.2107C104.464 45.4542 104.781 45.6389 105.117 45.7652C105.454 45.8915 105.831 45.9544 106.251 45.9544C106.784 45.9544 107.196 45.8609 107.489 45.674C107.782 45.487 107.928 45.2152 107.928 44.8585V44.7541C107.928 44.441 107.834 44.1996 107.646 44.0299C107.459 43.8605 107.107 43.6884 106.591 43.5145L105.674 43.1884C105.089 42.9883 104.661 42.7578 104.39 42.4969C104.119 42.2358 103.984 41.8966 103.984 41.4792V41.2576C103.984 40.9269 104.086 40.6313 104.291 40.3702C104.497 40.1092 104.783 39.9048 105.15 39.7569C105.517 39.6091 105.927 39.5353 106.382 39.5353C106.854 39.5353 107.299 39.6069 107.718 39.7506C108.138 39.8939 108.509 40.1007 108.833 40.3702L108.347 40.9445C108.016 40.718 107.699 40.5572 107.397 40.4614C107.096 40.3657 106.762 40.318 106.395 40.318C105.949 40.318 105.598 40.4008 105.34 40.5661C105.082 40.7311 104.953 40.9575 104.953 41.2442V41.3488C104.953 41.6098 105.049 41.8228 105.242 41.9882C105.434 42.1531 105.779 42.323 106.277 42.4969L107.194 42.823C107.771 43.023 108.199 43.2557 108.479 43.5213C108.758 43.7864 108.898 44.1625 108.898 44.6496V44.8715C108.898 45.4456 108.656 45.8977 108.171 46.2283C107.686 46.5591 107.072 46.7241 106.329 46.7241Z" fill="#D8C2A6"/>
</svg>
