<svg width="1440" height="506" viewBox="0 0 1440 506" fill="none" xmlns="http://www.w3.org/2000/svg">
<g opacity="0.1" clip-path="url(#clip0_4345:20685)">
<path d="M972.886 319.536L943.816 358.258L962.763 370.773L972.886 319.536Z" stroke="#DEC7A9" stroke-width="1.0703"/>
<path d="M1055.06 183.521L1041.45 196.703L1006.31 175.575L1055.06 183.521Z" stroke="#DEC7A9" stroke-width="1.0703"/>
<path d="M962.763 370.773L962.235 436.213M920.815 423.344L962.763 370.773L920.815 423.344Z" stroke="#DEC7A9" stroke-width="1.0703"/>
<path d="M972.886 319.536L943.816 358.258L920.344 354.271L972.886 319.536Z" stroke="#DEC7A9" stroke-width="1.0703"/>
<path d="M1086.21 270.798L972.886 319.537L1015.75 227.309L1086.21 270.798Z" stroke="#DEC7A9" stroke-width="1.0703"/>
<path d="M1041.45 196.703L1006.31 175.575L1015.75 227.308L1041.45 196.703Z" stroke="#DEC7A9" stroke-width="1.0703"/>
<path d="M952.354 0.765625L956.367 50.0442L914.947 3.78789L918.73 0.765625H952.354Z" stroke="#DEC7A9" stroke-width="1.0703"/>
<path d="M1358.87 175.106L1374.11 192.133L1342.15 265.065L1358.87 175.106Z" stroke="#DEC7A9" stroke-width="1.0703"/>
<path d="M1358.87 175.106L1293.15 251.358L1342.15 265.065L1358.87 175.106Z" stroke="#DEC7A9" stroke-width="1.0703"/>
<path d="M956.367 50.0459L913.433 89.2502V118.309L1013.75 113.74L956.367 50.0459Z" stroke="#DEC7A9" stroke-width="1.0703"/>
<path d="M1055.06 183.521L1006.31 175.575L1013.75 113.739L1055.06 183.521Z" stroke="#DEC7A9" stroke-width="1.0703"/>
<path d="M1006.31 175.575L913.433 134.611V118.308L1013.75 113.739L1006.31 175.575Z" stroke="#DEC7A9" stroke-width="1.0703"/>
<path d="M972.886 319.538L920.344 354.272L913.433 328.519V262.909L972.886 319.538Z" stroke="#DEC7A9" stroke-width="1.0703"/>
<path d="M920.344 354.272L913.433 353.676M913.433 328.519L920.344 354.272L913.433 328.519Z" stroke="#DEC7A9" stroke-width="1.0703"/>
<path d="M1358.87 175.107L1260.78 135.25L1267.88 194.588L1358.87 175.107Z" stroke="#DEC7A9" stroke-width="1.0703"/>
<path d="M1358.87 175.106L1293.15 251.358L1267.88 194.588L1358.87 175.106Z" stroke="#DEC7A9" stroke-width="1.0703"/>
<path d="M1293.15 251.359L1240.21 253.246L1267.88 194.589L1293.15 251.359Z" stroke="#DEC7A9" stroke-width="1.0703"/>
<path d="M1366.9 259.717L1342.15 265.066L1403.36 300.737L1366.9 259.717Z" stroke="#DEC7A9" stroke-width="1.0703"/>
<path d="M1293.15 251.357L1240.21 253.245L1233.84 403.35L1293.15 251.357Z" stroke="#DEC7A9" stroke-width="1.0703"/>
<path d="M1233.84 403.352L1224.13 436.199M1205.93 436.213L1189.95 405.083L1233.83 403.366L1205.93 436.213Z" stroke="#DEC7A9" stroke-width="1.0703"/>
<path d="M1186.43 436.214L1189.95 405.083L1205.93 436.214" stroke="#DEC7A9" stroke-width="1.0703"/>
<path d="M1170.65 436.214L1189.95 405.083L1186.43 436.214" stroke="#DEC7A9" stroke-width="1.0703"/>
<path d="M1015.75 227.308L1086.21 270.797L1080.97 209.217L1015.75 227.308Z" stroke="#DEC7A9" stroke-width="1.0703"/>
<path d="M1055.05 183.521L1041.45 196.703L1080.97 209.218L1055.05 183.521Z" stroke="#DEC7A9" stroke-width="1.0703"/>
<path d="M1041.45 196.703L1015.75 227.309L1080.97 209.218L1041.45 196.703Z" stroke="#DEC7A9" stroke-width="1.0703"/>
<path d="M1015.75 227.308L972.886 319.537L913.433 241.398V226.457L1015.75 227.308Z" stroke="#DEC7A9" stroke-width="1.0703"/>
<path d="M913.433 262.909L972.886 319.538L913.433 241.398V262.909Z" stroke="#DEC7A9" stroke-width="1.0703"/>
<path d="M1006.31 175.575L913.433 134.611V220.796L1006.31 175.575Z" stroke="#DEC7A9" stroke-width="1.0703"/>
<path d="M1006.31 175.575L1015.75 227.308L913.433 226.457V220.796L1006.31 175.575Z" stroke="#DEC7A9" stroke-width="1.0703"/>
<path d="M1027 34.0547L1013.75 113.74L1116.51 117.316L1027 34.0547Z" stroke="#DEC7A9" stroke-width="1.0703"/>
<path d="M1013.75 113.739L1055.05 183.521L1116.51 117.315L1013.75 113.739Z" stroke="#DEC7A9" stroke-width="1.0703"/>
<path d="M1055.05 183.522L1080.97 209.218L1116.51 117.315L1055.05 183.522Z" stroke="#DEC7A9" stroke-width="1.0703"/>
<path d="M943.816 358.259L962.763 370.774L913.433 394.71M913.433 385.587L943.816 358.259L913.433 385.587Z" stroke="#DEC7A9" stroke-width="1.0703"/>
<path d="M943.816 358.26L920.344 354.272L913.433 366.489M913.433 385.588L943.816 358.26L913.433 385.588Z" stroke="#DEC7A9" stroke-width="1.0703"/>
<path d="M962.763 370.773L920.815 423.344M913.433 394.71L962.763 370.773L913.433 394.71Z" stroke="#DEC7A9" stroke-width="1.0703"/>
<path d="M920.344 354.273L913.433 353.677M913.433 366.489L920.344 354.273L913.433 366.489Z" stroke="#DEC7A9" stroke-width="1.0703"/>
<path d="M914.947 3.78809L956.367 50.0443L913.433 57.678V5.85969L914.947 3.78809Z" stroke="#DEC7A9" stroke-width="1.0703"/>
<path d="M914.947 3.78809L913.433 4.48335V5.85968L914.947 3.78809Z" stroke="#DEC7A9" stroke-width="1.0703"/>
<path d="M956.367 50.0459L913.433 89.2502V57.6796L956.367 50.0459Z" stroke="#DEC7A9" stroke-width="1.0703"/>
<path d="M1233.84 403.352L1232.66 433.915M1226.66 436.1L1233.83 403.366L1226.66 436.1Z" stroke="#DEC7A9" stroke-width="1.0703"/>
<path d="M1233.84 403.352L1224.13 436.199M1226.66 436.1L1233.83 403.366L1226.66 436.1Z" stroke="#DEC7A9" stroke-width="1.0703"/>
<path d="M1267.24 421.343L1233.84 403.352L1368.43 378.62L1363.76 386.268" stroke="#DEC7A9" stroke-width="1.0703"/>
<path d="M1367.54 384.878L1368.43 378.62L1363.76 386.268" stroke="#DEC7A9" stroke-width="1.0703"/>
<path d="M1403.36 300.737L1342.15 265.065L1368.43 378.62L1403.36 300.737Z" stroke="#DEC7A9" stroke-width="1.0703"/>
<path d="M1342.15 265.064L1293.15 251.357L1368.43 378.619L1342.15 265.064Z" stroke="#DEC7A9" stroke-width="1.0703"/>
<path d="M1293.15 251.357L1233.84 403.35L1368.43 378.619L1293.15 251.357Z" stroke="#DEC7A9" stroke-width="1.0703"/>
<path d="M1188.92 158.364L1212.65 254.651L1134.7 222.399L1188.92 158.364Z" stroke="#DEC7A9" stroke-width="1.0703"/>
<path d="M1240.21 253.245L1212.65 254.65L1196.63 275.366L1240.21 253.245Z" stroke="#DEC7A9" stroke-width="1.0703"/>
<path d="M1212.65 254.65L1134.7 222.398L1196.63 275.366L1212.65 254.65Z" stroke="#DEC7A9" stroke-width="1.0703"/>
<path d="M1134.7 222.398L1113.78 269.393L1196.63 275.366L1134.7 222.398Z" stroke="#DEC7A9" stroke-width="1.0703"/>
<path d="M1368.43 378.62L1367.55 384.878M1373.12 382.863L1368.43 378.62L1373.12 382.863Z" stroke="#DEC7A9" stroke-width="1.0703"/>
<path d="M1267.24 421.343L1233.84 403.352L1244.91 429.459" stroke="#DEC7A9" stroke-width="1.0703"/>
<path d="M1233.84 403.352L1232.66 433.915M1244.91 429.459L1233.84 403.352L1244.91 429.459Z" stroke="#DEC7A9" stroke-width="1.0703"/>
<path d="M1439.23 296.935L1435.62 301.021L1439.23 280.887V296.935Z" stroke="#DEC7A9" stroke-width="1.0703"/>
<path d="M1435.62 301.02L1403.36 300.736L1439.23 243.214V280.886L1435.62 301.02Z" stroke="#DEC7A9" stroke-width="1.0703"/>
<path d="M1113.78 269.393L1086.21 270.797L1090.02 314.67L1113.78 269.393Z" stroke="#DEC7A9" stroke-width="1.0703"/>
<path d="M1086.21 270.799L972.886 319.538L1090.02 314.671L1086.21 270.799Z" stroke="#DEC7A9" stroke-width="1.0703"/>
<path d="M972.886 319.538L962.763 370.774L1090.02 314.671L972.886 319.538Z" stroke="#DEC7A9" stroke-width="1.0703"/>
<path d="M983.323 0.765625L1027 34.0531L976.398 45.2199L959.736 0.765625H983.323Z" stroke="#DEC7A9" stroke-width="1.0703"/>
<path d="M952.355 0.765625L956.367 50.0442L976.398 45.2199L959.736 0.765625H952.355Z" stroke="#DEC7A9" stroke-width="1.0703"/>
<path d="M1027 34.0547L1013.75 113.74L976.398 45.2215L1027 34.0547Z" stroke="#DEC7A9" stroke-width="1.0703"/>
<path d="M956.367 50.045L1013.75 113.74L976.398 45.2207L956.367 50.045Z" stroke="#DEC7A9" stroke-width="1.0703"/>
<path d="M1090.02 314.671L962.763 370.774L1006.81 436.214H1017.22L1090.02 314.671Z" stroke="#DEC7A9" stroke-width="1.0703"/>
<path d="M962.763 370.773L962.235 436.213H1006.81L962.763 370.773Z" stroke="#DEC7A9" stroke-width="1.0703"/>
<path d="M1188.92 158.364L1134.7 222.4L1135.68 139.848L1188.92 158.364Z" stroke="#DEC7A9" stroke-width="1.0703"/>
<path d="M1134.7 222.4L1080.97 209.218L1135.68 139.848L1134.7 222.4Z" stroke="#DEC7A9" stroke-width="1.0703"/>
<path d="M913.433 2.61035L914.947 3.78804L913.433 3.63196" stroke="#DEC7A9" stroke-width="1.0703"/>
<path d="M914.947 3.78889L913.433 4.48415M913.433 3.63281L914.947 3.78889L913.433 3.63281Z" stroke="#DEC7A9" stroke-width="1.0703"/>
<path d="M1113.78 269.393L1086.21 270.798L1114.19 232.559L1113.78 269.393Z" stroke="#DEC7A9" stroke-width="1.0703"/>
<path d="M1134.7 222.398L1080.97 209.217L1114.19 232.558L1134.7 222.398Z" stroke="#DEC7A9" stroke-width="1.0703"/>
<path d="M1080.97 209.217L1086.21 270.797L1114.19 232.558L1080.97 209.217Z" stroke="#DEC7A9" stroke-width="1.0703"/>
<path d="M1439.23 243.215L1403.36 300.737L1375.39 252.466L1439.23 231.154V243.215Z" stroke="#DEC7A9" stroke-width="1.0703"/>
<path d="M1366.9 259.716L1403.36 300.737L1375.39 252.466L1366.9 259.716Z" stroke="#DEC7A9" stroke-width="1.0703"/>
<path d="M1260.78 135.25L1267.88 194.589L1232.84 207.231L1260.78 135.25Z" stroke="#DEC7A9" stroke-width="1.0703"/>
<path d="M1260.78 135.25L1188.92 158.364L1232.84 207.231L1260.78 135.25Z" stroke="#DEC7A9" stroke-width="1.0703"/>
<path d="M1267.88 194.589L1240.21 253.246L1232.84 207.231L1267.88 194.589Z" stroke="#DEC7A9" stroke-width="1.0703"/>
<path d="M1188.92 158.364L1212.65 254.651L1232.84 207.231L1188.92 158.364Z" stroke="#DEC7A9" stroke-width="1.0703"/>
<path d="M1240.21 253.245L1212.65 254.65L1232.84 207.23L1240.21 253.245Z" stroke="#DEC7A9" stroke-width="1.0703"/>
<path d="M1113.78 269.393L1090.02 314.67L1108.95 327.17L1113.78 269.393Z" stroke="#DEC7A9" stroke-width="1.0703"/>
<path d="M1090.02 314.671L1017.22 436.214H1019.06L1108.95 327.171L1090.02 314.671Z" stroke="#DEC7A9" stroke-width="1.0703"/>
<path d="M1189.95 405.082L1170.65 436.213M1131.44 436.213L1108.95 327.185L1189.95 405.082L1131.44 436.213Z" stroke="#DEC7A9" stroke-width="1.0703"/>
<path d="M1019.06 436.213L1108.95 327.17L1131.44 436.213" stroke="#DEC7A9" stroke-width="1.0703"/>
<path d="M1113.78 269.393L1108.95 327.17L1184.01 307.121L1113.78 269.393Z" stroke="#DEC7A9" stroke-width="1.0703"/>
<path d="M1108.95 327.171L1189.95 405.083L1184.01 307.122L1108.95 327.171Z" stroke="#DEC7A9" stroke-width="1.0703"/>
<path d="M1233.84 403.352L1189.95 405.083L1184.01 307.122L1233.84 403.352Z" stroke="#DEC7A9" stroke-width="1.0703"/>
<path d="M1240.21 253.245L1233.84 403.351L1184.01 307.121L1240.21 253.245Z" stroke="#DEC7A9" stroke-width="1.0703"/>
<path d="M1240.21 253.245L1196.63 275.366L1184.01 307.121L1240.21 253.245Z" stroke="#DEC7A9" stroke-width="1.0703"/>
<path d="M1196.63 275.366L1113.78 269.393L1184.01 307.121L1196.63 275.366Z" stroke="#DEC7A9" stroke-width="1.0703"/>
<path d="M1439.23 296.934L1435.62 301.02L1438.69 359.025" stroke="#DEC7A9" stroke-width="1.0703"/>
<path d="M1435.62 301.019L1403.36 300.735L1436.25 359.904M1438.69 359.024L1435.62 301.019L1438.69 359.024Z" stroke="#DEC7A9" stroke-width="1.0703"/>
<path d="M1403.36 300.735L1368.41 378.619L1403.71 371.737M1436.25 359.918L1403.36 300.75L1436.25 359.918Z" stroke="#DEC7A9" stroke-width="1.0703"/>
<path d="M1368.43 378.62L1373.12 382.863M1403.71 371.738L1368.41 378.62L1403.71 371.738Z" stroke="#DEC7A9" stroke-width="1.0703"/>
<path d="M1260.78 135.251L1188.92 158.365L1182.64 111.882L1260.78 135.251Z" stroke="#DEC7A9" stroke-width="1.0703"/>
<path d="M1188.92 158.365L1135.68 139.848L1182.64 111.882L1188.92 158.365Z" stroke="#DEC7A9" stroke-width="1.0703"/>
<path d="M1135.68 139.848L1116.51 117.316L1182.64 111.882L1135.68 139.848Z" stroke="#DEC7A9" stroke-width="1.0703"/>
<path d="M1232.33 406.927C1230.49 405.821 1229.69 403.337 1230.52 401.365C1231.36 399.393 1233.51 398.698 1235.36 399.804C1237.2 400.911 1238 403.394 1237.17 405.367C1236.33 407.325 1234.16 408.02 1232.33 406.927Z" fill="#DEC7A9"/>
<path d="M1188.44 408.644C1186.61 407.537 1185.8 405.054 1186.63 403.082C1187.47 401.11 1189.64 400.414 1191.47 401.521C1193.31 402.628 1194.11 405.111 1193.28 407.083C1192.45 409.042 1190.28 409.737 1188.44 408.644Z" fill="#DEC7A9"/>
<path d="M961.235 374.334C959.394 373.227 958.594 370.744 959.422 368.786C960.264 366.813 962.435 366.118 964.262 367.211C966.09 368.303 966.904 370.801 966.061 372.773C965.219 374.745 963.077 375.426 961.235 374.334Z" fill="#DEC7A9"/>
<path d="M941.917 362.714C940.076 361.607 939.276 359.124 940.104 357.166C940.946 355.194 943.102 354.498 944.944 355.605C946.786 356.712 947.586 359.209 946.758 361.167C945.915 363.111 943.745 363.821 941.917 362.714Z" fill="#DEC7A9"/>
<path d="M919.23 356.883C917.388 355.777 916.588 353.294 917.417 351.321C918.259 349.349 920.429 348.654 922.257 349.76C924.084 350.867 924.898 353.35 924.07 355.323C923.228 357.281 921.072 357.976 919.23 356.883Z" fill="#DEC7A9"/>
<path d="M916.589 0.765625C917.445 2.01426 917.688 3.67438 917.088 5.07909C916.431 6.63988 914.932 7.40609 913.433 7.09393V0.765625H916.589Z" fill="#DEC7A9"/>
<path d="M954.853 53.6051C953.011 52.4983 952.197 50.0153 953.04 48.043C953.882 46.0707 956.038 45.3754 957.88 46.4822C959.708 47.5889 960.521 50.072 959.693 52.0443C958.865 54.0024 956.695 54.6976 954.853 53.6051Z" fill="#DEC7A9"/>
<path d="M974.899 48.7671C973.072 47.6604 972.258 45.1773 973.1 43.205C973.943 41.2469 976.113 40.5375 977.94 41.6442C979.768 42.751 980.582 45.234 979.739 47.2063C978.897 49.1644 976.727 49.8738 974.899 48.7671Z" fill="#DEC7A9"/>
<path d="M1012.62 116.406C1010.78 115.299 1009.97 112.816 1010.81 110.844C1011.65 108.871 1013.81 108.176 1015.65 109.283C1017.48 110.39 1018.29 112.873 1017.46 114.845C1016.62 116.817 1014.45 117.513 1012.62 116.406Z" fill="#DEC7A9"/>
<path d="M1004.8 179.136C1002.96 178.03 1002.16 175.546 1002.98 173.574C1003.83 171.602 1005.98 170.907 1007.82 172.013C1009.67 173.12 1010.47 175.603 1009.62 177.576C1008.79 179.534 1006.62 180.229 1004.8 179.136Z" fill="#DEC7A9"/>
<path d="M1053.54 187.084C1051.7 185.977 1050.9 183.494 1051.73 181.521C1052.57 179.549 1054.74 178.854 1056.57 179.961C1058.41 181.067 1059.21 183.551 1058.38 185.523C1057.54 187.495 1055.37 188.19 1053.54 187.084Z" fill="#DEC7A9"/>
<path d="M1079.27 213.219C1077.44 212.113 1076.63 209.629 1077.46 207.657C1078.3 205.685 1080.47 204.99 1082.3 206.096C1084.14 207.203 1084.94 209.686 1084.11 211.658C1083.27 213.631 1081.1 214.326 1079.27 213.219Z" fill="#DEC7A9"/>
<path d="M1039.44 201.426C1037.61 200.32 1036.79 197.837 1037.64 195.864C1038.48 193.892 1040.65 193.197 1042.48 194.303C1044.32 195.41 1045.12 197.893 1044.28 199.866C1043.43 201.824 1041.28 202.533 1039.44 201.426Z" fill="#DEC7A9"/>
<path d="M1114.98 120.889C1113.14 119.783 1112.34 117.299 1113.17 115.327C1114.01 113.355 1116.18 112.66 1118.01 113.766C1119.85 114.873 1120.65 117.356 1119.82 119.328C1118.99 121.287 1116.82 121.982 1114.98 120.889Z" fill="#DEC7A9"/>
<path d="M1180.57 116.762C1178.73 115.655 1177.93 113.172 1178.76 111.2C1179.6 109.242 1181.76 108.533 1183.6 109.639C1185.44 110.746 1186.24 113.229 1185.41 115.201C1184.57 117.16 1182.4 117.855 1180.57 116.762Z" fill="#DEC7A9"/>
<path d="M1187.41 161.911C1185.58 160.805 1184.77 158.321 1185.61 156.349C1186.44 154.377 1188.62 153.682 1190.45 154.774C1192.29 155.881 1193.09 158.364 1192.27 160.336C1191.41 162.323 1189.24 163.018 1187.41 161.911Z" fill="#DEC7A9"/>
<path d="M1231.33 210.793C1229.49 209.686 1228.67 207.203 1229.52 205.23C1230.36 203.258 1232.53 202.563 1234.36 203.67C1236.2 204.776 1237 207.26 1236.17 209.232C1235.33 211.19 1233.16 211.899 1231.33 210.793Z" fill="#DEC7A9"/>
<path d="M1259.27 138.812C1257.43 137.705 1256.63 135.222 1257.47 133.264C1258.3 131.291 1260.47 130.596 1262.31 131.703C1264.15 132.81 1264.95 135.293 1264.13 137.251C1263.27 139.209 1261.1 139.918 1259.27 138.812Z" fill="#DEC7A9"/>
<path d="M1266 199.015C1264.15 197.908 1263.35 195.425 1264.18 193.453C1265.02 191.495 1267.2 190.786 1269.02 191.892C1270.86 192.999 1271.66 195.482 1270.84 197.454C1269.99 199.427 1267.84 200.122 1266 199.015Z" fill="#DEC7A9"/>
<path d="M1291.28 255.772C1289.45 254.665 1288.64 252.182 1289.48 250.21C1290.31 248.252 1292.5 247.542 1294.32 248.649C1296.17 249.756 1296.96 252.239 1296.14 254.211C1295.28 256.169 1293.11 256.879 1291.28 255.772Z" fill="#DEC7A9"/>
<path d="M1340.64 268.626C1338.81 267.519 1338 265.036 1338.84 263.078C1339.68 261.105 1341.84 260.41 1343.68 261.503C1345.52 262.609 1346.32 265.093 1345.49 267.065C1344.64 269.037 1342.47 269.732 1340.64 268.626Z" fill="#DEC7A9"/>
<path d="M1401.85 304.313C1400.01 303.206 1399.21 300.723 1400.04 298.751C1400.88 296.779 1403.03 296.083 1404.88 297.19C1406.72 298.297 1407.52 300.78 1406.69 302.752C1405.86 304.71 1403.69 305.406 1401.85 304.313Z" fill="#DEC7A9"/>
<path d="M1366.35 263.86C1364.51 262.754 1363.71 260.271 1364.54 258.313C1365.38 256.34 1367.55 255.645 1369.38 256.752C1371.21 257.858 1372.02 260.342 1371.19 262.3C1370.37 264.272 1368.2 264.967 1366.35 263.86Z" fill="#DEC7A9"/>
<path d="M1373.87 256.013C1372.04 254.906 1371.22 252.423 1372.05 250.451C1372.89 248.493 1375.06 247.784 1376.89 248.89C1378.72 249.997 1379.53 252.48 1378.71 254.452C1377.88 256.425 1375.71 257.12 1373.87 256.013Z" fill="#DEC7A9"/>
<path d="M1357.36 178.669C1355.52 177.562 1354.72 175.079 1355.55 173.106C1356.39 171.134 1358.54 170.439 1360.39 171.546C1362.23 172.652 1363.03 175.135 1362.2 177.108C1361.36 179.066 1359.2 179.775 1357.36 178.669Z" fill="#DEC7A9"/>
<path d="M1372.22 196.546C1370.4 195.44 1369.58 192.957 1370.42 190.984C1371.27 189.026 1373.42 188.317 1375.26 189.424C1377.09 190.53 1377.91 193.013 1377.06 194.986C1376.22 196.958 1374.06 197.653 1372.22 196.546Z" fill="#DEC7A9"/>
<path d="M1366.9 382.182C1365.06 381.075 1364.26 378.592 1365.08 376.62C1365.93 374.648 1368.08 373.953 1369.92 375.059C1371.77 376.166 1372.57 378.649 1371.74 380.621C1370.91 382.594 1368.74 383.289 1366.9 382.182Z" fill="#DEC7A9"/>
<path d="M1434.1 304.583C1432.28 303.476 1431.46 300.993 1432.3 299.021C1433.15 297.048 1435.3 296.353 1437.14 297.46C1438.32 298.169 1439.07 299.432 1439.24 300.78V301.943C1439.2 302.312 1439.1 302.681 1438.96 303.022C1438.1 304.994 1435.93 305.689 1434.1 304.583Z" fill="#DEC7A9"/>
<path d="M1237.71 255.645C1235.87 254.538 1235.07 252.055 1235.9 250.097C1236.74 248.124 1238.9 247.429 1240.74 248.536C1242.58 249.643 1243.38 252.126 1242.54 254.098C1241.71 256.056 1239.55 256.751 1237.71 255.645Z" fill="#DEC7A9"/>
<path d="M1211.14 258.213C1209.3 257.107 1208.48 254.624 1209.33 252.651C1210.17 250.679 1212.34 249.984 1214.17 251.091C1215.99 252.197 1216.81 254.68 1215.98 256.653C1215.14 258.611 1212.97 259.32 1211.14 258.213Z" fill="#DEC7A9"/>
<path d="M1195.38 279.086C1193.54 277.979 1192.74 275.496 1193.56 273.538C1194.41 271.565 1196.56 270.87 1198.4 271.963C1200.25 273.069 1201.05 275.567 1200.22 277.525C1199.38 279.483 1197.22 280.192 1195.38 279.086Z" fill="#DEC7A9"/>
<path d="M1182.51 310.668C1180.67 309.561 1179.87 307.078 1180.71 305.105C1181.56 303.147 1183.71 302.438 1185.55 303.545C1187.38 304.651 1188.2 307.134 1187.35 309.107C1186.51 311.079 1184.34 311.774 1182.51 310.668Z" fill="#DEC7A9"/>
<path d="M1112.11 237.439C1110.27 236.332 1109.45 233.849 1110.3 231.877C1111.14 229.919 1113.31 229.209 1115.14 230.316C1116.98 231.423 1117.78 233.906 1116.95 235.878C1116.11 237.836 1113.95 238.532 1112.11 237.439Z" fill="#DEC7A9"/>
<path d="M1132.98 226.415C1131.16 225.308 1130.33 222.825 1131.17 220.853C1132.01 218.88 1134.17 218.185 1136.01 219.292C1137.84 220.398 1138.65 222.882 1137.82 224.854C1136.98 226.812 1134.83 227.507 1132.98 226.415Z" fill="#DEC7A9"/>
<path d="M1112.27 272.955C1110.42 271.848 1109.61 269.365 1110.45 267.407C1111.3 265.435 1113.45 264.74 1115.29 265.846C1117.12 266.953 1117.93 269.436 1117.11 271.394C1116.28 273.352 1114.11 274.062 1112.27 272.955Z" fill="#DEC7A9"/>
<path d="M1085.08 273.466C1083.25 272.36 1082.44 269.877 1083.27 267.919C1084.11 265.946 1086.28 265.251 1088.11 266.344C1089.94 267.45 1090.76 269.933 1089.92 271.906C1089.08 273.878 1086.92 274.573 1085.08 273.466Z" fill="#DEC7A9"/>
<path d="M1088.76 318.373C1086.94 317.266 1086.12 314.783 1086.97 312.825C1087.81 310.853 1089.96 310.158 1091.81 311.264C1093.65 312.371 1094.46 314.854 1093.62 316.827C1092.76 318.785 1090.59 319.48 1088.76 318.373Z" fill="#DEC7A9"/>
<path d="M1107.03 331.726C1105.18 330.619 1104.37 328.136 1105.21 326.178C1106.06 324.205 1108.21 323.51 1110.05 324.617C1111.9 325.724 1112.69 328.207 1111.87 330.165C1111.02 332.137 1108.85 332.832 1107.03 331.726Z" fill="#DEC7A9"/>
<path d="M1135.85 144.417C1134.01 143.31 1133.2 140.827 1134.04 138.854C1134.88 136.896 1137.04 136.187 1138.88 137.294C1140.72 138.4 1141.52 140.898 1140.69 142.856C1139.85 144.814 1137.7 145.523 1135.85 144.417Z" fill="#DEC7A9"/>
<path d="M1014.93 231.31C1013.09 230.203 1012.29 227.72 1013.12 225.748C1013.95 223.79 1016.13 223.08 1017.96 224.187C1019.79 225.294 1020.6 227.777 1019.77 229.749C1018.95 231.707 1016.78 232.403 1014.93 231.31Z" fill="#DEC7A9"/>
<path d="M1026.66 38.3257C1024.83 37.219 1024.01 34.7359 1024.86 32.7636C1025.7 30.8055 1027.87 30.0961 1029.7 31.2028C1031.54 32.3096 1032.35 34.7927 1031.51 36.7649C1030.65 38.723 1028.48 39.4325 1026.66 38.3257Z" fill="#DEC7A9"/>
<path d="M971.001 322.887C969.159 321.78 968.36 319.297 969.188 317.325C970.03 315.367 972.186 314.658 974.028 315.764C975.87 316.871 976.67 319.354 975.827 321.326C974.999 323.299 972.843 323.994 971.001 322.887Z" fill="#DEC7A9"/>
</g>
<g opacity="0.1" clip-path="url(#clip1_4345:20685)">
<path d="M481.189 422.062L511.135 462.015L491.617 474.928L481.189 422.062Z" stroke="#DEC7A9" stroke-width="1.0703"/>
<path d="M396.544 281.718L410.561 295.319L446.757 273.52L396.544 281.718Z" stroke="#DEC7A9" stroke-width="1.0703"/>
<path d="M491.617 474.929L492.161 542.451M534.829 529.172L491.617 474.929L534.829 529.172Z" stroke="#DEC7A9" stroke-width="1.0703"/>
<path d="M481.189 422.062L511.135 462.015L535.315 457.901L481.189 422.062Z" stroke="#DEC7A9" stroke-width="1.0703"/>
<path d="M364.451 371.773L481.189 422.063L437.035 326.899L364.451 371.773Z" stroke="#DEC7A9" stroke-width="1.0703"/>
<path d="M410.561 295.319L446.757 273.52L437.035 326.899L410.561 295.319Z" stroke="#DEC7A9" stroke-width="1.0703"/>
<path d="M502.339 93.1475L498.206 143.994L540.874 96.2659L536.977 93.1475H502.339Z" stroke="#DEC7A9" stroke-width="1.0703"/>
<path d="M83.5714 273.037L67.8778 290.606L100.794 365.858L83.5714 273.037Z" stroke="#DEC7A9" stroke-width="1.0703"/>
<path d="M83.5712 273.037L151.272 351.715L100.794 365.858L83.5712 273.037Z" stroke="#DEC7A9" stroke-width="1.0703"/>
<path d="M498.206 143.996L542.433 184.448V214.432L439.094 209.717L498.206 143.996Z" stroke="#DEC7A9" stroke-width="1.0703"/>
<path d="M396.544 281.718L446.757 273.519L439.094 209.716L396.544 281.718Z" stroke="#DEC7A9" stroke-width="1.0703"/>
<path d="M446.757 273.519L542.433 231.252V214.43L439.094 209.716L446.757 273.519Z" stroke="#DEC7A9" stroke-width="1.0703"/>
<path d="M481.189 422.063L535.315 457.903L542.433 431.331V363.633L481.189 422.063Z" stroke="#DEC7A9" stroke-width="1.0703"/>
<path d="M535.315 457.903L542.433 457.288M542.433 431.33L535.315 457.903L542.433 431.33Z" stroke="#DEC7A9" stroke-width="1.0703"/>
<path d="M83.5714 273.036L184.616 231.911L177.306 293.138L83.5714 273.036Z" stroke="#DEC7A9" stroke-width="1.0703"/>
<path d="M83.5713 273.037L151.272 351.715L177.306 293.139L83.5713 273.037Z" stroke="#DEC7A9" stroke-width="1.0703"/>
<path d="M151.272 351.715L205.81 353.663L177.306 293.139L151.272 351.715Z" stroke="#DEC7A9" stroke-width="1.0703"/>
<path d="M75.3054 360.339L100.794 365.858L37.741 402.665L75.3054 360.339Z" stroke="#DEC7A9" stroke-width="1.0703"/>
<path d="M151.272 351.714L205.81 353.661L212.37 508.543L151.272 351.714Z" stroke="#DEC7A9" stroke-width="1.0703"/>
<path d="M437.035 326.899L364.451 371.772L369.849 308.232L437.035 326.899Z" stroke="#DEC7A9" stroke-width="1.0703"/>
<path d="M396.544 281.719L410.561 295.32L369.849 308.233L396.544 281.719Z" stroke="#DEC7A9" stroke-width="1.0703"/>
<path d="M410.561 295.32L437.035 326.9L369.849 308.233L410.561 295.32Z" stroke="#DEC7A9" stroke-width="1.0703"/>
<path d="M437.035 326.9L481.189 422.063L542.433 341.438V326.021L437.035 326.9Z" stroke="#DEC7A9" stroke-width="1.0703"/>
<path d="M542.433 363.633L481.189 422.063L542.433 341.438V363.633Z" stroke="#DEC7A9" stroke-width="1.0703"/>
<path d="M446.757 273.52L542.433 231.253V320.179L446.757 273.52Z" stroke="#DEC7A9" stroke-width="1.0703"/>
<path d="M446.757 273.52L437.035 326.899L542.433 326.02V320.179L446.757 273.52Z" stroke="#DEC7A9" stroke-width="1.0703"/>
<path d="M425.445 127.496L439.095 209.717L333.241 213.407L425.445 127.496Z" stroke="#DEC7A9" stroke-width="1.0703"/>
<path d="M439.095 209.716L396.544 281.718L333.241 213.405L439.095 209.716Z" stroke="#DEC7A9" stroke-width="1.0703"/>
<path d="M396.544 281.72L369.849 308.234L333.241 213.407L396.544 281.72Z" stroke="#DEC7A9" stroke-width="1.0703"/>
<path d="M511.135 462.017L491.617 474.93L542.433 499.628M542.433 490.214L511.135 462.017L542.433 490.214Z" stroke="#DEC7A9" stroke-width="1.0703"/>
<path d="M511.135 462.017L535.315 457.903L542.433 470.509M542.433 490.215L511.135 462.017L542.433 490.215Z" stroke="#DEC7A9" stroke-width="1.0703"/>
<path d="M491.617 474.929L534.829 529.172M542.433 499.627L491.617 474.929L542.433 499.627Z" stroke="#DEC7A9" stroke-width="1.0703"/>
<path d="M535.315 457.903L542.433 457.288M542.433 470.509L535.315 457.903L542.433 470.509Z" stroke="#DEC7A9" stroke-width="1.0703"/>
<path d="M540.874 96.2666L498.206 143.995L542.433 151.871V98.4041L540.874 96.2666Z" stroke="#DEC7A9" stroke-width="1.0703"/>
<path d="M540.874 96.2666L542.433 96.984V98.4041L540.874 96.2666Z" stroke="#DEC7A9" stroke-width="1.0703"/>
<path d="M498.206 143.996L542.433 184.448V151.873L498.206 143.996Z" stroke="#DEC7A9" stroke-width="1.0703"/>
<path d="M177.967 527.109L212.37 508.545L73.7314 483.026L78.541 490.918" stroke="#DEC7A9" stroke-width="1.0703"/>
<path d="M74.6433 489.483L73.7314 483.026L78.5409 490.918" stroke="#DEC7A9" stroke-width="1.0703"/>
<path d="M37.741 402.664L100.794 365.857L73.7317 483.025L37.741 402.664Z" stroke="#DEC7A9" stroke-width="1.0703"/>
<path d="M100.794 365.857L151.272 351.714L73.7315 483.025L100.794 365.857Z" stroke="#DEC7A9" stroke-width="1.0703"/>
<path d="M151.272 351.714L212.37 508.543L73.7314 483.024L151.272 351.714Z" stroke="#DEC7A9" stroke-width="1.0703"/>
<path d="M258.641 255.761L234.197 355.111L314.503 321.833L258.641 255.761Z" stroke="#DEC7A9" stroke-width="1.0703"/>
<path d="M205.81 353.661L234.197 355.111L250.699 376.486L205.81 353.661Z" stroke="#DEC7A9" stroke-width="1.0703"/>
<path d="M234.197 355.111L314.503 321.833L250.699 376.486L234.197 355.111Z" stroke="#DEC7A9" stroke-width="1.0703"/>
<path d="M314.503 321.833L336.05 370.322L250.699 376.486L314.503 321.833Z" stroke="#DEC7A9" stroke-width="1.0703"/>
<path d="M73.7314 483.026L74.6286 489.483M68.8924 487.404L73.7314 483.026L68.8924 487.404Z" stroke="#DEC7A9" stroke-width="1.0703"/>
<path d="M0.794128 398.741L4.51532 402.958L0.794128 382.183V398.741Z" stroke="#DEC7A9" stroke-width="1.0703"/>
<path d="M4.51527 402.956L37.7408 402.663L0.794127 343.311V382.181L4.51527 402.956Z" stroke="#DEC7A9" stroke-width="1.0703"/>
<path d="M336.05 370.323L364.451 371.773L360.524 417.041L336.05 370.323Z" stroke="#DEC7A9" stroke-width="1.0703"/>
<path d="M364.451 371.773L481.189 422.064L360.524 417.042L364.451 371.773Z" stroke="#DEC7A9" stroke-width="1.0703"/>
<path d="M481.189 422.063L491.617 474.929L360.524 417.041L481.189 422.063Z" stroke="#DEC7A9" stroke-width="1.0703"/>
<path d="M470.437 93.1475L425.445 127.494L477.571 139.016L494.735 93.1475H470.437Z" stroke="#DEC7A9" stroke-width="1.0703"/>
<path d="M502.339 93.1475L498.206 143.994L477.571 139.016L494.735 93.1475H502.339Z" stroke="#DEC7A9" stroke-width="1.0703"/>
<path d="M425.445 127.496L439.095 209.717L477.571 139.018L425.445 127.496Z" stroke="#DEC7A9" stroke-width="1.0703"/>
<path d="M498.206 143.996L439.095 209.718L477.571 139.019L498.206 143.996Z" stroke="#DEC7A9" stroke-width="1.0703"/>
<path d="M360.524 417.041L491.617 474.93L446.243 542.452H435.52L360.524 417.041Z" stroke="#DEC7A9" stroke-width="1.0703"/>
<path d="M491.617 474.929L492.161 542.451H446.243L491.617 474.929Z" stroke="#DEC7A9" stroke-width="1.0703"/>
<path d="M258.641 255.761L314.503 321.834L313.488 236.655L258.641 255.761Z" stroke="#DEC7A9" stroke-width="1.0703"/>
<path d="M314.502 321.834L369.849 308.233L313.488 236.655L314.502 321.834Z" stroke="#DEC7A9" stroke-width="1.0703"/>
<path d="M542.433 95.0518L540.874 96.2669L542.433 96.1059" stroke="#DEC7A9" stroke-width="1.0703"/>
<path d="M540.874 96.2675L542.433 96.9849M542.433 96.1064L540.874 96.2675L542.433 96.1064Z" stroke="#DEC7A9" stroke-width="1.0703"/>
<path d="M336.05 370.323L364.451 371.772L335.623 332.316L336.05 370.323Z" stroke="#DEC7A9" stroke-width="1.0703"/>
<path d="M314.502 321.833L369.849 308.232L335.623 332.316L314.502 321.833Z" stroke="#DEC7A9" stroke-width="1.0703"/>
<path d="M369.849 308.232L364.451 371.772L335.623 332.316L369.849 308.232Z" stroke="#DEC7A9" stroke-width="1.0703"/>
<path d="M0.794069 343.312L37.7408 402.664L66.5539 352.857L0.794069 330.867V343.312Z" stroke="#DEC7A9" stroke-width="1.0703"/>
<path d="M75.3053 360.338L37.741 402.663L66.5541 352.856L75.3053 360.338Z" stroke="#DEC7A9" stroke-width="1.0703"/>
<path d="M184.616 231.911L177.306 293.138L213.399 306.182L184.616 231.911Z" stroke="#DEC7A9" stroke-width="1.0703"/>
<path d="M184.616 231.911L258.641 255.761L213.399 306.182L184.616 231.911Z" stroke="#DEC7A9" stroke-width="1.0703"/>
<path d="M177.306 293.139L205.81 353.663L213.399 306.183L177.306 293.139Z" stroke="#DEC7A9" stroke-width="1.0703"/>
<path d="M258.641 255.761L234.196 355.111L213.399 306.183L258.641 255.761Z" stroke="#DEC7A9" stroke-width="1.0703"/>
<path d="M205.81 353.662L234.196 355.111L213.399 306.183L205.81 353.662Z" stroke="#DEC7A9" stroke-width="1.0703"/>
<path d="M336.05 370.323L360.524 417.041L341.021 429.939L336.05 370.323Z" stroke="#DEC7A9" stroke-width="1.0703"/>
<path d="M360.524 417.041L435.52 542.452H433.623L341.021 429.939L360.524 417.041Z" stroke="#DEC7A9" stroke-width="1.0703"/>
<path d="M257.582 510.329L277.468 542.451M317.856 542.451L341.021 429.953L257.582 510.329L317.856 542.451Z" stroke="#DEC7A9" stroke-width="1.0703"/>
<path d="M433.623 542.451L341.021 429.938L317.856 542.451" stroke="#DEC7A9" stroke-width="1.0703"/>
<path d="M336.05 370.323L341.021 429.939L263.701 409.252L336.05 370.323Z" stroke="#DEC7A9" stroke-width="1.0703"/>
<path d="M341.021 429.939L257.582 510.33L263.701 409.252L341.021 429.939Z" stroke="#DEC7A9" stroke-width="1.0703"/>
<path d="M212.37 508.544L257.582 510.33L263.701 409.252L212.37 508.544Z" stroke="#DEC7A9" stroke-width="1.0703"/>
<path d="M205.81 353.661L212.37 508.543L263.701 409.251L205.81 353.661Z" stroke="#DEC7A9" stroke-width="1.0703"/>
<path d="M205.81 353.661L250.699 376.486L263.701 409.251L205.81 353.661Z" stroke="#DEC7A9" stroke-width="1.0703"/>
<path d="M250.699 376.487L336.05 370.323L263.701 409.252L250.699 376.487Z" stroke="#DEC7A9" stroke-width="1.0703"/>
<path d="M0.794128 398.74L4.51532 402.957L1.35301 462.807" stroke="#DEC7A9" stroke-width="1.0703"/>
<path d="M4.51536 402.956L37.7408 402.663L3.8682 463.714M1.35309 462.806L4.51536 402.956L1.35309 462.806Z" stroke="#DEC7A9" stroke-width="1.0703"/>
<path d="M37.7407 402.663L73.7461 483.025L37.3877 475.924M3.86804 463.729L37.7407 402.678L3.86804 463.729Z" stroke="#DEC7A9" stroke-width="1.0703"/>
<path d="M73.7314 483.025L68.8925 487.403M37.3879 475.925L73.7461 483.025L37.3879 475.925Z" stroke="#DEC7A9" stroke-width="1.0703"/>
<path d="M184.616 231.913L258.641 255.762L265.113 207.8L184.616 231.913Z" stroke="#DEC7A9" stroke-width="1.0703"/>
<path d="M258.641 255.762L313.488 236.656L265.113 207.8L258.641 255.762Z" stroke="#DEC7A9" stroke-width="1.0703"/>
<path d="M313.488 236.656L333.241 213.407L265.113 207.8L313.488 236.656Z" stroke="#DEC7A9" stroke-width="1.0703"/>
<path d="M213.929 512.233C215.826 511.091 216.65 508.529 215.797 506.494C214.929 504.459 212.708 503.742 210.811 504.884C208.913 506.026 208.089 508.588 208.943 510.623C209.81 512.643 212.046 513.361 213.929 512.233Z" fill="#DEC7A9"/>
<path d="M259.141 514.005C261.024 512.863 261.862 510.301 261.009 508.266C260.141 506.231 257.906 505.513 256.023 506.655C254.126 507.797 253.302 510.359 254.155 512.394C255.008 514.415 257.244 515.132 259.141 514.005Z" fill="#DEC7A9"/>
<path d="M493.191 478.603C495.088 477.461 495.912 474.899 495.059 472.879C494.191 470.844 491.955 470.126 490.073 471.254C488.19 472.381 487.352 474.958 488.219 476.993C489.087 479.028 491.293 479.73 493.191 478.603Z" fill="#DEC7A9"/>
<path d="M513.091 466.613C514.988 465.471 515.812 462.909 514.959 460.889C514.091 458.854 511.87 458.136 509.973 459.278C508.075 460.42 507.252 462.997 508.105 465.017C508.973 467.023 511.208 467.755 513.091 466.613Z" fill="#DEC7A9"/>
<path d="M536.462 460.597C538.359 459.456 539.183 456.893 538.33 454.858C537.462 452.823 535.226 452.106 533.344 453.248C531.461 454.39 530.623 456.952 531.476 458.987C532.344 461.007 534.565 461.725 536.462 460.597Z" fill="#DEC7A9"/>
<path d="M539.183 93.1475C538.3 94.4358 538.05 96.1488 538.668 97.5982C539.345 99.2086 540.889 99.9992 542.433 99.6771V93.1475H539.183Z" fill="#DEC7A9"/>
<path d="M499.765 147.669C501.663 146.527 502.501 143.965 501.633 141.93C500.765 139.895 498.544 139.177 496.647 140.319C494.764 141.461 493.926 144.023 494.779 146.058C495.632 148.079 497.868 148.796 499.765 147.669Z" fill="#DEC7A9"/>
<path d="M479.115 142.677C480.998 141.535 481.836 138.973 480.968 136.938C480.101 134.918 477.865 134.186 475.982 135.328C474.1 136.47 473.261 139.032 474.129 141.067C474.997 143.087 477.233 143.819 479.115 142.677Z" fill="#DEC7A9"/>
<path d="M440.257 212.469C442.154 211.327 442.992 208.765 442.124 206.73C441.257 204.694 439.036 203.977 437.138 205.119C435.256 206.261 434.417 208.823 435.27 210.858C436.138 212.893 438.374 213.611 440.257 212.469Z" fill="#DEC7A9"/>
<path d="M448.317 277.194C450.214 276.052 451.038 273.49 450.184 271.455C449.317 269.42 447.096 268.703 445.198 269.845C443.301 270.987 442.477 273.549 443.345 275.584C444.198 277.604 446.434 278.321 448.317 277.194Z" fill="#DEC7A9"/>
<path d="M398.103 285.394C400 284.252 400.824 281.69 399.971 279.655C399.103 277.62 396.868 276.903 394.985 278.045C393.088 279.187 392.264 281.749 393.117 283.784C393.985 285.819 396.221 286.536 398.103 285.394Z" fill="#DEC7A9"/>
<path d="M371.599 312.362C373.482 311.22 374.32 308.658 373.467 306.623C372.599 304.588 370.364 303.871 368.481 305.013C366.584 306.155 365.76 308.717 366.613 310.752C367.481 312.787 369.717 313.504 371.599 312.362Z" fill="#DEC7A9"/>
<path d="M412.635 300.194C414.517 299.052 415.356 296.49 414.488 294.455C413.62 292.42 411.385 291.703 409.502 292.845C407.605 293.987 406.781 296.549 407.649 298.584C408.517 300.604 410.737 301.336 412.635 300.194Z" fill="#DEC7A9"/>
<path d="M334.814 217.095C336.712 215.953 337.535 213.39 336.682 211.355C335.815 209.32 333.579 208.603 331.696 209.745C329.799 210.887 328.975 213.449 329.828 215.484C330.681 217.504 332.917 218.222 334.814 217.095Z" fill="#DEC7A9"/>
<path d="M267.246 212.836C269.143 211.694 269.967 209.132 269.113 207.097C268.246 205.076 266.025 204.344 264.127 205.486C262.23 206.628 261.406 209.19 262.26 211.225C263.127 213.246 265.363 213.963 267.246 212.836Z" fill="#DEC7A9"/>
<path d="M260.2 259.422C262.083 258.28 262.921 255.718 262.054 253.683C261.201 251.648 258.95 250.931 257.068 252.058C255.17 253.2 254.347 255.762 255.2 257.797C256.082 259.847 258.318 260.564 260.2 259.422Z" fill="#DEC7A9"/>
<path d="M214.958 309.857C216.856 308.715 217.694 306.153 216.826 304.118C215.958 302.083 213.723 301.366 211.84 302.508C209.943 303.65 209.119 306.212 209.972 308.247C210.84 310.267 213.076 310.999 214.958 309.857Z" fill="#DEC7A9"/>
<path d="M186.175 235.587C188.072 234.445 188.896 231.883 188.028 229.862C187.175 227.827 184.939 227.11 183.042 228.252C181.145 229.394 180.321 231.956 181.174 233.976C182.056 235.997 184.292 236.729 186.175 235.587Z" fill="#DEC7A9"/>
<path d="M179.247 297.706C181.145 296.564 181.968 294.002 181.115 291.967C180.247 289.946 178.012 289.214 176.129 290.356C174.232 291.498 173.408 294.06 174.261 296.095C175.129 298.13 177.35 298.848 179.247 297.706Z" fill="#DEC7A9"/>
<path d="M153.199 356.269C155.082 355.127 155.92 352.565 155.052 350.53C154.199 348.51 151.949 347.778 150.066 348.92C148.169 350.062 147.345 352.624 148.198 354.659C149.081 356.679 151.316 357.411 153.199 356.269Z" fill="#DEC7A9"/>
<path d="M102.353 369.531C104.236 368.389 105.075 365.827 104.207 363.806C103.339 361.771 101.118 361.054 99.2207 362.181C97.3233 363.323 96.4997 365.885 97.3528 367.92C98.2352 369.955 100.471 370.673 102.353 369.531Z" fill="#DEC7A9"/>
<path d="M39.3 406.354C41.1973 405.212 42.021 402.65 41.1679 400.615C40.3001 398.58 38.0793 397.863 36.182 399.005C34.2846 400.147 33.461 402.709 34.314 404.744C35.1671 406.764 37.4027 407.482 39.3 406.354Z" fill="#DEC7A9"/>
<path d="M75.8644 364.614C77.7617 363.472 78.5854 360.91 77.7323 358.89C76.8645 356.855 74.6289 356.137 72.7463 357.279C70.8637 358.421 70.0254 360.983 70.8784 363.004C71.7315 365.039 73.9671 365.756 75.8644 364.614Z" fill="#DEC7A9"/>
<path d="M68.1277 356.517C70.0103 355.375 70.8486 352.813 69.9956 350.778C69.1278 348.758 66.8922 348.026 65.0095 349.168C63.1269 350.31 62.2886 352.872 63.1416 354.907C63.9947 356.942 66.2303 357.659 68.1277 356.517Z" fill="#DEC7A9"/>
<path d="M85.1302 276.712C87.0276 275.57 87.8512 273.008 86.9981 270.973C86.1304 268.938 83.9095 268.22 82.0122 269.362C80.1149 270.504 79.2912 273.066 80.1443 275.101C81.012 277.122 83.2329 277.854 85.1302 276.712Z" fill="#DEC7A9"/>
<path d="M69.8192 295.159C71.7018 294.017 72.5401 291.455 71.6724 289.42C70.8046 287.399 68.5837 286.667 66.6864 287.809C64.8038 288.951 63.9654 291.513 64.8332 293.548C65.7009 295.583 67.9218 296.301 69.8192 295.159Z" fill="#DEC7A9"/>
<path d="M75.3052 486.701C77.2026 485.559 78.0263 482.997 77.1732 480.962C76.3054 478.927 74.0844 478.21 72.1871 479.351C70.2897 480.493 69.4661 483.055 70.3191 485.09C71.1722 487.125 73.4078 487.843 75.3052 486.701Z" fill="#DEC7A9"/>
<path d="M6.07439 406.632C7.95702 405.49 8.79535 402.928 7.92757 400.893C7.0598 398.858 4.8389 398.14 2.94157 399.282C1.73551 400.014 0.955977 401.317 0.77948 402.708V403.909C0.823604 404.289 0.926578 404.67 1.07366 405.021C1.95614 407.056 4.19176 407.774 6.07439 406.632Z" fill="#DEC7A9"/>
<path d="M208.384 356.138C210.281 354.996 211.105 352.433 210.252 350.413C209.384 348.378 207.163 347.661 205.266 348.803C203.368 349.945 202.545 352.507 203.412 354.542C204.265 356.562 206.486 357.279 208.384 356.138Z" fill="#DEC7A9"/>
<path d="M235.756 358.788C237.653 357.646 238.491 355.084 237.623 353.049C236.756 351.014 234.52 350.296 232.637 351.438C230.755 352.58 229.916 355.142 230.77 357.177C231.637 359.198 233.873 359.93 235.756 358.788Z" fill="#DEC7A9"/>
<path d="M251.993 380.324C253.891 379.182 254.714 376.62 253.861 374.599C252.993 372.564 250.773 371.847 248.875 372.974C246.978 374.116 246.154 376.693 247.007 378.713C247.875 380.734 250.096 381.466 251.993 380.324Z" fill="#DEC7A9"/>
<path d="M265.245 412.911C267.143 411.769 267.966 409.207 267.099 407.172C266.231 405.151 264.01 404.419 262.112 405.561C260.23 406.703 259.392 409.265 260.259 411.3C261.127 413.335 263.363 414.053 265.245 412.911Z" fill="#DEC7A9"/>
<path d="M337.771 337.352C339.668 336.21 340.506 333.648 339.639 331.613C338.771 329.593 336.535 328.861 334.653 330.003C332.755 331.145 331.932 333.707 332.785 335.742C333.652 337.762 335.873 338.48 337.771 337.352Z" fill="#DEC7A9"/>
<path d="M316.267 325.976C318.15 324.834 319.003 322.272 318.135 320.237C317.268 318.202 315.047 317.485 313.149 318.627C311.267 319.769 310.428 322.331 311.281 324.366C312.149 326.386 314.37 327.104 316.267 325.976Z" fill="#DEC7A9"/>
<path d="M337.609 373.998C339.506 372.856 340.345 370.294 339.477 368.273C338.609 366.238 336.388 365.521 334.491 366.663C332.608 367.805 331.77 370.367 332.623 372.387C333.476 374.408 335.712 375.14 337.609 373.998Z" fill="#DEC7A9"/>
<path d="M365.613 374.526C367.496 373.384 368.334 370.822 367.481 368.801C366.613 366.766 364.378 366.049 362.495 367.176C360.612 368.318 359.759 370.88 360.627 372.915C361.495 374.95 363.716 375.668 365.613 374.526Z" fill="#DEC7A9"/>
<path d="M361.818 420.862C363.701 419.72 364.539 417.158 363.672 415.138C362.804 413.103 360.583 412.385 358.686 413.527C356.788 414.669 355.95 417.231 356.818 419.266C357.7 421.287 359.936 422.004 361.818 420.862Z" fill="#DEC7A9"/>
<path d="M343.007 434.64C344.904 433.498 345.742 430.935 344.875 428.915C344.007 426.88 341.786 426.163 339.889 427.305C337.991 428.447 337.168 431.009 338.021 433.029C338.889 435.064 341.124 435.782 343.007 434.64Z" fill="#DEC7A9"/>
<path d="M313.311 241.37C315.208 240.228 316.047 237.666 315.179 235.631C314.311 233.61 312.09 232.878 310.193 234.02C308.296 235.162 307.472 237.739 308.325 239.759C309.193 241.78 311.414 242.512 313.311 241.37Z" fill="#DEC7A9"/>
<path d="M437.874 331.029C439.771 329.887 440.595 327.325 439.742 325.29C438.889 323.27 436.638 322.537 434.756 323.679C432.873 324.821 432.035 327.383 432.888 329.418C433.741 331.439 435.976 332.156 437.874 331.029Z" fill="#DEC7A9"/>
<path d="M425.798 131.903C427.681 130.761 428.519 128.199 427.652 126.164C426.784 124.144 424.548 123.411 422.666 124.553C420.768 125.695 419.93 128.258 420.798 130.293C421.68 132.313 423.916 133.045 425.798 131.903Z" fill="#DEC7A9"/>
<path d="M483.13 425.519C485.028 424.377 485.851 421.815 484.998 419.78C484.131 417.76 481.91 417.028 480.012 418.17C478.115 419.312 477.291 421.874 478.159 423.909C479.012 425.944 481.233 426.661 483.13 425.519Z" fill="#DEC7A9"/>
</g>
<path d="M0 447.812C119.904 351.836 310.485 272.816 584.207 338.428C1057.59 451.901 1295.53 338.428 1440 42V506H0.195312L0 447.812Z" fill="#3D3D40"/>
<defs>
<clipPath id="clip0_4345:20685">
<rect width="527.338" height="436.966" fill="white" transform="translate(912.662)"/>
</clipPath>
<clipPath id="clip1_4345:20685">
<rect width="543" height="414" fill="white" transform="matrix(-1 0 0 1 543 92)"/>
</clipPath>
</defs>
</svg>
