<svg width="811" height="863" viewBox="0 0 811 863" fill="none" xmlns="http://www.w3.org/2000/svg">
<path opacity="0.6" fill-rule="evenodd" clip-rule="evenodd" d="M120.326 1.49814C120.329 0.945857 120.779 0.500293 121.331 0.502941C121.666 0.504547 122.001 0.506358 122.337 0.508377C122.889 0.5117 123.334 0.962101 123.331 1.51438C123.327 2.06665 122.877 2.51166 122.325 2.50834C121.99 2.50633 121.656 2.50452 121.322 2.50292C120.769 2.50027 120.324 2.05041 120.326 1.49814ZM108.282 1.53696C108.288 2.08922 107.845 2.54166 107.293 2.54753C106.956 2.55111 106.62 2.55485 106.284 2.55876C105.732 2.56517 105.279 2.12268 105.273 1.57043C105.266 1.01819 105.709 0.565303 106.261 0.55889C106.597 0.554981 106.934 0.551232 107.272 0.547647C107.824 0.541777 108.276 0.984709 108.282 1.53696ZM135.391 1.69644C135.404 1.14432 135.863 0.70783 136.415 0.721503C136.749 0.729767 137.083 0.738276 137.417 0.747034C137.969 0.761506 138.405 1.2208 138.39 1.7729C138.376 2.32499 137.917 2.76082 137.365 2.74635C137.031 2.73761 136.698 2.72913 136.366 2.72089C135.814 2.70722 135.377 2.24856 135.391 1.69644ZM93.2273 1.78584C93.2403 2.33798 92.8032 2.79607 92.2511 2.80903C91.9194 2.81681 91.5882 2.8247 91.2574 2.83269C90.7053 2.84604 90.2469 2.40927 90.2335 1.85715C90.2202 1.30502 90.657 0.846621 91.2091 0.833278C91.5403 0.825273 91.872 0.817372 92.2042 0.809578C92.7563 0.796622 93.2144 1.23371 93.2273 1.78584ZM0.514521 1.83104C0.607776 1.28668 1.12466 0.920996 1.66902 1.01425C1.82362 1.04074 1.97931 1.06683 2.13609 1.09254C2.68109 1.18192 3.05045 1.69619 2.96107 2.2412C2.87169 2.7862 2.35742 3.15556 1.81241 3.06618C1.65104 3.03971 1.49066 3.01283 1.33131 2.98553C0.786952 2.89228 0.421265 2.37539 0.514521 1.83104ZM78.1648 2.20029C78.1824 2.7523 77.7491 3.21404 77.1971 3.23163L76.2022 3.26351C75.6502 3.2813 75.1883 2.84824 75.1705 2.29624C75.1527 1.74425 75.5858 1.28234 76.1378 1.26455L77.1334 1.23264C77.6854 1.21506 78.1472 1.64829 78.1648 2.20029ZM150.438 2.21755C150.464 1.6659 150.933 1.24026 151.485 1.26685C151.82 1.28303 152.156 1.2995 152.492 1.31626C153.044 1.34378 153.468 1.81325 153.441 2.36485C153.413 2.91645 152.944 3.3413 152.392 3.31378C152.058 3.29707 151.723 3.28066 151.388 3.26453C150.837 3.23794 150.411 2.76919 150.438 2.21755ZM63.1108 2.70575C63.1299 3.2577 62.6979 3.72061 62.146 3.73968L61.1508 3.77403C60.5988 3.79306 60.1359 3.36103 60.1169 2.80908C60.0979 2.25712 60.5299 1.79425 61.0819 1.77522L62.0769 1.74087C62.6289 1.7218 63.0918 2.15379 63.1108 2.70575ZM165.466 3.1133C165.508 2.56257 165.988 2.1497 166.539 2.19112C166.873 2.21625 167.207 2.2417 167.541 2.26749C168.092 2.30997 168.504 2.7908 168.461 3.34145C168.419 3.8921 167.938 4.30405 167.387 4.26157C167.054 4.23588 166.722 4.21052 166.389 4.18548C165.838 4.14406 165.425 3.66403 165.466 3.1133ZM48.0641 3.20247C48.0802 3.75452 47.6457 4.21506 47.0936 4.2311C46.7625 4.24073 46.4323 4.25021 46.1031 4.25953C45.5511 4.27517 45.0908 3.84031 45.0752 3.28824C45.0596 2.73618 45.4944 2.27597 46.0465 2.26033C46.3751 2.25103 46.7048 2.24156 47.0355 2.23195C47.5875 2.2159 48.0481 2.65042 48.0641 3.20247ZM14.9582 3.31956C14.9811 2.76775 15.4469 2.33896 15.9988 2.36182C16.3234 2.37528 16.6503 2.38803 16.9795 2.40009C17.5314 2.42032 17.9624 2.88413 17.9422 3.43604C17.9219 3.98796 17.4581 4.41898 16.9062 4.39875C16.5739 4.38657 16.2438 4.3737 15.9159 4.36011C15.3641 4.33724 14.9353 3.87137 14.9582 3.31956ZM33.0327 3.53819C33.0382 4.09045 32.5951 4.54266 32.0428 4.54823C31.6989 4.5517 31.3566 4.55481 31.0157 4.55755C30.4635 4.562 30.0122 4.1179 30.0077 3.56563C30.0033 3.01336 30.4474 2.56206 30.9996 2.55762C31.3391 2.55488 31.6801 2.55179 32.0226 2.54833C32.5749 2.54276 33.0271 2.98593 33.0327 3.53819ZM180.471 4.43741C180.529 3.8882 181.021 3.4902 181.571 3.54845C181.903 3.58376 182.236 3.61943 182.569 3.65547C183.118 3.71491 183.515 4.20821 183.456 4.75729C183.396 5.30636 182.903 5.70329 182.354 5.64385C182.022 5.60796 181.691 5.57245 181.36 5.5373C180.81 5.47905 180.412 4.98661 180.471 4.43741ZM195.415 6.24375C195.492 5.69688 195.998 5.31611 196.545 5.39327C196.877 5.44014 197.21 5.48742 197.542 5.53512C198.088 5.61362 198.468 6.12043 198.389 6.6671C198.311 7.21378 197.804 7.59332 197.257 7.51482C196.927 7.46735 196.596 7.4203 196.266 7.37365C195.719 7.29649 195.338 6.79062 195.415 6.24375ZM210.289 8.59227C210.387 8.04881 210.907 7.68792 211.451 7.78622C211.781 7.84592 212.111 7.90608 212.441 7.96669C212.984 8.06648 213.343 8.58771 213.244 9.13091C213.144 9.67411 212.623 10.0336 212.079 9.93378C211.751 9.87349 211.423 9.81367 211.095 9.75429C210.551 9.65599 210.19 9.13574 210.289 8.59227ZM225.053 11.5442C225.174 11.0055 225.71 10.6675 226.248 10.7893C226.576 10.8632 226.903 10.9377 227.23 11.0127C227.768 11.1361 228.105 11.6726 227.981 12.2109C227.858 12.7492 227.321 13.0856 226.783 12.9621C226.458 12.8876 226.133 12.8136 225.807 12.74C225.269 12.6183 224.931 12.0829 225.053 11.5442ZM239.667 15.1648C239.815 14.6327 240.366 14.321 240.898 14.4687C241.222 14.5585 241.545 14.6488 241.868 14.7397C242.4 14.8892 242.71 15.4414 242.56 15.973C242.411 16.5047 241.858 16.8145 241.327 16.665C241.006 16.5747 240.685 16.485 240.363 16.3958C239.831 16.2482 239.519 15.697 239.667 15.1648ZM254.077 19.5208C254.253 18.9973 254.82 18.7157 255.344 18.8917C255.503 18.9452 255.662 18.9989 255.821 19.0527L256.045 19.1286C256.137 19.1597 256.228 19.1908 256.32 19.2219C256.843 19.3997 257.122 19.9677 256.945 20.4906C256.767 21.0135 256.199 21.2933 255.676 21.1155C255.511 21.0594 255.345 21.0032 255.18 20.9471C255.022 20.8937 254.864 20.8405 254.706 20.7874C254.183 20.6113 253.901 20.0442 254.077 19.5208ZM268.587 24.6931C268.785 24.1773 269.363 23.9194 269.879 24.1169C270.199 24.2393 270.517 24.3618 270.834 24.4844C271.349 24.6834 271.606 25.2623 271.407 25.7775C271.208 26.2927 270.629 26.549 270.113 26.35C269.798 26.2281 269.481 26.1063 269.164 25.9846C268.648 25.787 268.39 25.2088 268.587 24.6931ZM282.782 30.4397C283.002 29.9331 283.591 29.7008 284.097 29.9208C284.416 30.0594 284.734 30.198 285.051 30.3368C285.557 30.5583 285.787 31.1481 285.566 31.6539C285.344 32.1598 284.754 32.3903 284.248 32.1688C283.934 32.0309 283.618 31.893 283.3 31.7553C282.794 31.5353 282.562 30.9462 282.782 30.4397ZM296.712 36.8192C296.955 36.323 297.554 36.1176 298.05 36.3603C298.363 36.5133 298.674 36.6663 298.985 36.8194C299.48 37.0636 299.684 37.6631 299.44 38.1585C299.196 38.6539 298.596 38.8575 298.101 38.6134C297.792 38.4612 297.482 38.309 297.171 38.1568C296.675 37.9142 296.469 37.3153 296.712 36.8192ZM310.373 43.8209C310.636 43.3353 311.243 43.155 311.728 43.4182C312.032 43.583 312.336 43.7479 312.638 43.9126C313.123 44.177 313.302 44.7844 313.037 45.2693C312.773 45.7542 312.165 45.933 311.681 45.6686C311.38 45.5046 311.078 45.3406 310.775 45.1765C310.29 44.9134 310.109 44.3064 310.373 43.8209ZM323.764 51.3337C324.042 50.8564 324.654 50.6948 325.131 50.9726C325.3 51.0706 325.468 51.1686 325.636 51.2665C325.765 51.3419 325.894 51.4173 326.023 51.4927C326.5 51.7713 326.661 52.3837 326.382 52.8606C326.104 53.3375 325.491 53.4982 325.014 53.2197C324.719 53.0469 324.422 52.874 324.125 52.7011C323.648 52.4232 323.486 51.811 323.764 51.3337ZM336.981 59.1429C337.264 58.6684 337.877 58.5128 338.352 58.7954L339.231 59.319C339.706 59.6015 339.862 60.2152 339.579 60.6898C339.297 61.1644 338.683 61.3201 338.208 61.0376L337.329 60.5137C336.854 60.2311 336.698 59.6174 336.981 59.1429ZM350.202 66.922C350.476 66.4425 351.087 66.2759 351.567 66.5499C351.862 66.7187 352.158 66.8872 352.453 67.0553C352.934 67.3282 353.102 67.9387 352.829 68.4188C352.556 68.899 351.945 69.067 351.465 68.794C351.168 68.6251 350.871 68.4559 350.574 68.2864C350.095 68.0124 349.928 67.4015 350.202 66.922ZM363.662 74.2939C363.913 73.8022 364.515 73.6074 365.007 73.8589C365.307 74.0124 365.608 74.1655 365.91 74.3182C366.403 74.5678 366.6 75.1695 366.35 75.6622C366.101 76.1549 365.499 76.352 365.006 76.1025C364.702 75.9485 364.399 75.7942 364.097 75.6395C363.605 75.3881 363.41 74.7856 363.662 74.2939ZM377.496 80.8929C377.715 80.3856 378.303 80.1514 378.81 80.3698C379.12 80.5032 379.431 80.6362 379.743 80.7687C380.251 80.9846 380.488 81.5718 380.272 82.0801C380.056 82.5884 379.469 82.8254 378.961 82.6095C378.646 82.4757 378.332 82.3415 378.019 82.2068C377.512 81.9884 377.278 81.4002 377.496 80.8929ZM391.763 86.5048C391.944 85.9829 392.513 85.7064 393.035 85.8871C393.355 85.9977 393.676 86.1079 393.998 86.2177C394.521 86.3958 394.8 86.964 394.622 87.4868C394.444 88.0096 393.875 88.2889 393.353 88.1107C393.028 87.9999 392.704 87.8887 392.381 87.777C391.859 87.5963 391.583 87.0267 391.763 86.5048ZM406.404 91.0724C406.548 90.5392 407.097 90.2236 407.63 90.3675C407.801 90.4136 407.972 90.4596 408.144 90.5055C408.299 90.547 408.455 90.5884 408.61 90.6297C409.144 90.7713 409.462 91.3188 409.321 91.8527C409.179 92.3865 408.632 92.7045 408.098 92.5629C407.767 92.4752 407.437 92.387 407.109 92.2984C406.576 92.1545 406.26 91.6056 406.404 91.0724ZM421.344 94.6677C421.455 94.1267 421.984 93.7781 422.525 93.8891C422.851 93.956 423.178 94.0225 423.506 94.0886C424.047 94.1977 424.398 94.725 424.289 95.2664C424.18 95.8078 423.652 96.1583 423.111 96.0492C422.78 95.9827 422.451 95.9157 422.123 95.8483C421.582 95.7373 421.233 95.2087 421.344 94.6677ZM436.42 97.4014C436.503 96.8555 437.013 96.4803 437.559 96.5635C437.9 96.6155 438.243 96.6672 438.586 96.7184C439.133 96.7999 439.509 97.3088 439.428 97.855C439.346 98.4013 438.837 98.778 438.291 98.6965C437.946 98.6449 437.601 98.593 437.258 98.5407C436.712 98.4575 436.337 97.9474 436.42 97.4014ZM451.637 99.4243C451.697 98.8753 452.191 98.4789 452.74 98.539C453.071 98.5752 453.404 98.6112 453.738 98.6469C454.287 98.7055 454.685 99.1983 454.626 99.7474C454.567 100.297 454.075 100.694 453.526 100.636C453.19 100.6 452.856 100.564 452.522 100.527C451.973 100.467 451.577 99.9733 451.637 99.4243ZM466.88 100.85C466.921 100.299 467.401 99.8858 467.952 99.9267C468.292 99.952 468.633 99.977 468.975 100.002C469.526 100.041 469.94 100.52 469.901 101.071C469.861 101.622 469.382 102.036 468.831 101.996C468.488 101.972 468.145 101.947 467.804 101.921C467.253 101.88 466.839 101.401 466.88 100.85ZM602.013 101.755C602.014 101.202 602.462 100.755 603.014 100.755C603.347 100.756 603.68 100.756 604.013 100.756C604.565 100.757 605.013 101.205 605.012 101.758C605.011 102.31 604.563 102.757 604.01 102.756C603.678 102.756 603.345 102.756 603.013 102.755C602.46 102.755 602.013 102.307 602.013 101.755ZM590.169 101.796C590.173 102.348 589.728 102.799 589.176 102.802L588.186 102.809C587.633 102.814 587.182 102.369 587.178 101.817C587.174 101.265 587.619 100.814 588.171 100.81L589.162 100.803C589.715 100.799 590.165 101.243 590.169 101.796ZM482.223 101.789C482.248 101.237 482.715 100.81 483.267 100.835C483.453 100.843 483.64 100.852 483.827 100.86C483.987 100.867 484.148 100.874 484.308 100.881C484.86 100.905 485.288 101.372 485.264 101.923C485.24 102.475 484.773 102.903 484.221 102.879C484.046 102.871 483.871 102.864 483.695 102.856C483.522 102.848 483.349 102.841 483.177 102.833C482.625 102.808 482.198 102.34 482.223 101.789ZM616.859 101.837C616.866 101.285 617.32 100.843 617.872 100.85C618.205 100.854 618.538 100.859 618.87 100.863C619.422 100.871 619.864 101.325 619.856 101.877C619.849 102.429 619.395 102.871 618.843 102.863C618.511 102.858 618.179 102.854 617.846 102.85C617.294 102.843 616.852 102.389 616.859 101.837ZM575.33 101.931C575.337 102.483 574.894 102.936 574.342 102.943L573.36 102.954C572.808 102.96 572.355 102.518 572.349 101.966C572.342 101.413 572.785 100.96 573.337 100.954L574.319 100.943C574.871 100.936 575.324 101.379 575.33 101.931ZM560.498 102.113C560.505 102.665 560.063 103.119 559.51 103.126L558.529 103.138C557.977 103.145 557.523 102.703 557.516 102.151C557.509 101.599 557.951 101.145 558.503 101.138L559.485 101.126C560.037 101.119 560.491 101.561 560.498 102.113ZM631.704 102.13C631.72 101.578 632.181 101.144 632.733 101.16C633.066 101.17 633.398 101.18 633.729 101.191C634.281 101.208 634.715 101.669 634.698 102.221C634.68 102.774 634.219 103.207 633.667 103.19C633.336 103.179 633.005 103.169 632.674 103.159C632.122 103.143 631.687 102.682 631.704 102.13ZM545.664 102.295C545.67 102.848 545.228 103.3 544.675 103.306L543.693 103.317C543.141 103.323 542.688 102.881 542.682 102.328C542.676 101.776 543.119 101.323 543.671 101.317L544.653 101.307C545.205 101.3 545.658 101.743 545.664 102.295ZM497.601 102.317C497.612 101.765 498.069 101.326 498.622 101.338C498.971 101.345 499.322 101.352 499.673 101.359C500.225 101.37 500.664 101.826 500.654 102.379C500.643 102.931 500.186 103.37 499.634 103.359C499.282 103.352 498.93 103.345 498.58 103.338C498.027 103.326 497.589 102.869 497.601 102.317ZM530.829 102.437C530.833 102.989 530.389 103.44 529.836 103.444L528.853 103.45C528.3 103.454 527.85 103.009 527.846 102.457C527.842 101.905 528.287 101.454 528.839 101.45L529.823 101.444C530.375 101.44 530.826 101.885 530.829 102.437ZM512.972 102.499C512.973 101.947 513.421 101.5 513.973 101.5L514.997 101.5C515.55 101.5 515.998 101.947 515.998 102.5C515.998 103.052 515.55 103.5 514.998 103.5L513.972 103.5C513.419 103.5 512.972 103.052 512.972 102.499ZM646.538 102.712C646.567 102.161 647.038 101.737 647.589 101.767C647.92 101.784 648.251 101.802 648.581 101.82C649.133 101.85 649.556 102.321 649.525 102.873C649.495 103.424 649.024 103.847 648.472 103.817C648.143 103.799 647.814 103.781 647.484 103.764C646.932 103.735 646.509 103.264 646.538 102.712ZM661.345 103.677C661.391 103.127 661.874 102.717 662.424 102.763C662.753 102.79 663.081 102.818 663.41 102.846C663.96 102.893 664.368 103.377 664.321 103.927C664.274 104.477 663.79 104.885 663.24 104.839C662.913 104.811 662.586 104.783 662.259 104.756C661.709 104.711 661.299 104.227 661.345 103.677ZM676.096 105.135C676.162 104.587 676.661 104.196 677.209 104.263C677.453 104.293 677.696 104.323 677.939 104.353L678.185 104.383C678.733 104.452 679.122 104.951 679.054 105.499C678.985 106.047 678.486 106.436 677.938 106.368C677.615 106.328 677.291 106.288 676.968 106.248C676.419 106.182 676.029 105.683 676.096 105.135ZM690.754 107.221C690.847 106.676 691.364 106.311 691.909 106.404C692.24 106.461 692.57 106.518 692.9 106.576C693.444 106.672 693.807 107.19 693.712 107.734C693.616 108.278 693.098 108.642 692.554 108.546C692.226 108.489 691.899 108.432 691.57 108.375C691.026 108.282 690.66 107.765 690.754 107.221ZM705.336 110.113C705.463 109.575 706.002 109.242 706.539 109.37C706.863 109.446 707.186 109.523 707.509 109.601C708.046 109.731 708.376 110.271 708.246 110.808C708.117 111.345 707.577 111.675 707.04 111.545C706.72 111.468 706.4 111.392 706.079 111.316C705.542 111.189 705.209 110.65 705.336 110.113ZM719.647 113.987C719.816 113.461 720.379 113.172 720.905 113.34C721.219 113.441 721.532 113.542 721.845 113.644C722.37 113.815 722.656 114.38 722.485 114.905C722.313 115.43 721.749 115.717 721.224 115.545C720.915 115.444 720.605 115.344 720.295 115.245C719.769 115.076 719.479 114.513 719.647 113.987ZM733.565 119.063C733.783 118.555 734.371 118.321 734.878 118.538C735.186 118.67 735.492 118.803 735.798 118.937C736.304 119.159 736.535 119.749 736.313 120.254C736.092 120.76 735.502 120.991 734.996 120.769C734.695 120.637 734.392 120.506 734.089 120.376C733.582 120.158 733.347 119.57 733.565 119.063ZM746.899 125.565C747.173 125.086 747.784 124.92 748.264 125.194C748.552 125.36 748.839 125.526 749.125 125.693C749.602 125.972 749.763 126.584 749.484 127.061C749.206 127.538 748.593 127.698 748.116 127.42C747.835 127.255 747.552 127.092 747.269 126.93C746.79 126.655 746.624 126.044 746.899 125.565ZM759.32 133.634C759.655 133.195 760.283 133.11 760.722 133.446C760.986 133.647 761.25 133.85 761.512 134.054C761.948 134.393 762.026 135.022 761.687 135.458C761.348 135.893 760.72 135.972 760.284 135.633C760.026 135.433 759.768 135.233 759.509 135.035C759.07 134.7 758.985 134.073 759.32 133.634ZM770.528 143.317C770.922 142.93 771.555 142.934 771.942 143.328C772.176 143.565 772.409 143.804 772.641 144.044C773.025 144.441 773.014 145.074 772.616 145.458C772.219 145.842 771.586 145.831 771.202 145.434C770.975 145.198 770.747 144.964 770.517 144.731C770.13 144.338 770.135 143.704 770.528 143.317ZM780.269 154.511C780.713 154.183 781.34 154.277 781.668 154.721C781.863 154.984 782.056 155.249 782.249 155.515C782.574 155.962 782.474 156.587 782.027 156.912C781.58 157.236 780.955 157.136 780.63 156.689C780.441 156.428 780.251 156.168 780.059 155.91C779.731 155.465 779.825 154.839 780.269 154.511ZM788.354 166.88C788.837 166.612 789.446 166.787 789.713 167.27C789.811 167.445 789.908 167.621 790.004 167.797C790.067 167.912 790.13 168.028 790.193 168.143C790.456 168.628 790.277 169.235 789.792 169.499C789.306 169.763 788.699 169.583 788.435 169.098C788.279 168.811 788.122 168.524 787.964 168.239C787.696 167.756 787.871 167.147 788.354 166.88ZM794.871 180.206C795.381 179.995 795.966 180.239 796.176 180.749C796.305 181.06 796.432 181.373 796.559 181.686C796.766 182.198 796.518 182.781 796.006 182.988C795.494 183.195 794.911 182.947 794.704 182.435C794.579 182.126 794.454 181.818 794.327 181.511C794.117 181.001 794.36 180.416 794.871 180.206ZM799.936 194.202C800.465 194.043 801.023 194.342 801.183 194.871C801.277 195.181 801.37 195.493 801.462 195.806C801.619 196.336 801.317 196.892 800.787 197.049C800.257 197.205 799.701 196.903 799.544 196.373C799.453 196.064 799.361 195.756 799.268 195.449C799.109 194.92 799.408 194.362 799.936 194.202ZM803.695 208.506C804.235 208.39 804.767 208.733 804.883 209.273C804.952 209.589 805.019 209.906 805.086 210.223C805.2 210.764 804.854 211.294 804.313 211.408C803.773 211.522 803.242 211.176 803.129 210.635C803.093 210.463 803.056 210.292 803.02 210.121C802.989 209.978 802.959 209.836 802.928 209.695C802.812 209.155 803.155 208.623 803.695 208.506ZM806.377 223.07C806.923 222.99 807.431 223.368 807.51 223.915C807.557 224.235 807.603 224.557 807.649 224.879C807.727 225.425 807.346 225.932 806.799 226.009C806.253 226.087 805.746 225.706 805.669 225.159C805.624 224.84 805.578 224.521 805.531 224.204C805.452 223.657 805.83 223.149 806.377 223.07ZM808.148 237.795C808.698 237.746 809.183 238.153 809.232 238.703C809.261 239.025 809.289 239.348 809.317 239.671C809.364 240.221 808.956 240.706 808.405 240.753C807.855 240.8 807.371 240.392 807.324 239.842C807.296 239.52 807.268 239.2 807.24 238.88C807.191 238.33 807.598 237.844 808.148 237.795ZM809.15 252.622C809.702 252.599 810.167 253.028 810.19 253.58C810.204 253.901 810.216 254.223 810.229 254.545C810.25 255.097 809.82 255.562 809.268 255.583C808.716 255.604 808.252 255.174 808.23 254.622C808.218 254.302 808.205 253.982 808.192 253.662C808.169 253.11 808.598 252.645 809.15 252.622ZM809.499 267.488C810.051 267.488 810.499 267.935 810.5 268.487L810.5 269C810.5 269.178 810.5 269.356 810.499 269.534C810.495 270.086 810.045 270.531 809.493 270.528C808.94 270.525 808.495 270.074 808.499 269.522C808.499 269.439 808.499 269.355 808.5 269.271C808.5 269.181 808.5 269.091 808.5 269C808.5 268.83 808.5 268.66 808.5 268.49C808.499 267.937 808.946 267.489 809.499 267.488ZM808.37 282.568C808.913 282.671 809.27 283.194 809.167 283.736C809.106 284.058 809.043 284.378 808.978 284.696C808.868 285.237 808.34 285.587 807.799 285.477C807.258 285.367 806.908 284.839 807.019 284.297C807.082 283.988 807.143 283.677 807.202 283.364C807.304 282.822 807.828 282.465 808.37 282.568ZM804.189 296.949C804.695 297.171 804.925 297.76 804.703 298.266C804.569 298.573 804.433 298.877 804.294 299.181C804.065 299.683 803.472 299.905 802.969 299.675C802.467 299.446 802.246 298.853 802.475 298.35C802.609 298.056 802.742 297.761 802.871 297.464C803.093 296.958 803.683 296.728 804.189 296.949ZM796.837 309.974C797.279 310.305 797.369 310.932 797.038 311.374C796.834 311.646 796.628 311.917 796.419 312.187C796.081 312.624 795.453 312.704 795.016 312.366C794.579 312.029 794.499 311.401 794.837 310.964C794.955 310.81 795.073 310.657 795.19 310.502C795.273 310.393 795.355 310.284 795.437 310.175C795.769 309.733 796.395 309.643 796.837 309.974ZM786.816 321.083C787.182 321.496 787.144 322.128 786.731 322.494C786.475 322.722 786.216 322.949 785.956 323.174C785.538 323.536 784.906 323.49 784.545 323.073C784.184 322.655 784.229 322.023 784.647 321.662C784.901 321.442 785.153 321.221 785.404 320.998C785.817 320.632 786.449 320.67 786.816 321.083ZM774.937 330.173C775.233 330.639 775.095 331.257 774.629 331.553C774.341 331.737 774.05 331.919 773.759 332.101C773.29 332.393 772.673 332.25 772.381 331.781C772.089 331.312 772.232 330.695 772.701 330.403C772.988 330.225 773.273 330.046 773.556 329.865C774.022 329.569 774.64 329.707 774.937 330.173ZM761.883 337.494C762.121 337.992 761.91 338.589 761.412 338.827C761.107 338.973 760.801 339.118 760.493 339.262C759.993 339.496 759.398 339.281 759.163 338.781C758.929 338.281 759.144 337.686 759.644 337.451C759.947 337.309 760.249 337.166 760.55 337.022C761.049 336.785 761.646 336.996 761.883 337.494ZM748.074 343.391C748.266 343.909 748.001 344.484 747.482 344.675C747.171 344.79 746.858 344.905 746.545 345.019C746.026 345.207 745.452 344.939 745.263 344.42C745.075 343.901 745.343 343.327 745.862 343.139C746.172 343.026 746.482 342.913 746.79 342.799C747.308 342.608 747.883 342.873 748.074 343.391ZM733.741 348.163C733.895 348.693 733.59 349.248 733.06 349.402C732.747 349.493 732.432 349.584 732.118 349.674C731.587 349.826 731.033 349.518 730.881 348.988C730.729 348.457 731.036 347.903 731.567 347.751C731.88 347.662 732.191 347.572 732.502 347.481C733.032 347.327 733.587 347.632 733.741 348.163ZM719.225 351.99C719.35 352.528 719.014 353.065 718.476 353.19C718.142 353.267 717.807 353.344 717.471 353.421C716.932 353.544 716.396 353.207 716.273 352.669C716.151 352.13 716.488 351.594 717.026 351.471C717.22 351.427 717.413 351.383 717.606 351.338C717.746 351.306 717.885 351.274 718.025 351.241C718.563 351.117 719.1 351.452 719.225 351.99ZM704.614 355.072C704.715 355.615 704.357 356.137 703.814 356.238L703.438 356.308C703.234 356.345 703.029 356.383 702.823 356.421C702.28 356.52 701.759 356.161 701.66 355.617C701.56 355.074 701.92 354.553 702.463 354.453C702.632 354.422 702.801 354.391 702.97 354.36C703.129 354.331 703.289 354.301 703.448 354.272C703.991 354.171 704.513 354.529 704.614 355.072ZM689.733 357.591C689.815 358.137 689.438 358.646 688.892 358.727L688.768 358.746C688.484 358.788 688.2 358.83 687.915 358.872C687.369 358.952 686.861 358.574 686.78 358.028C686.7 357.481 687.078 356.973 687.624 356.893C687.949 356.845 688.273 356.797 688.597 356.749C689.143 356.668 689.652 357.045 689.733 357.591ZM674.849 359.609C674.914 360.158 674.522 360.655 673.974 360.721C673.636 360.761 673.298 360.801 672.96 360.841C672.411 360.905 671.914 360.512 671.85 359.964C671.786 359.415 672.178 358.919 672.727 358.854C672.906 358.833 673.086 358.812 673.266 358.791L673.737 358.735C674.286 358.669 674.783 359.061 674.849 359.609ZM659.965 361.219C660.017 361.769 659.614 362.257 659.064 362.309C658.732 362.34 658.4 362.371 658.068 362.402C657.518 362.454 657.03 362.049 656.979 361.499C656.928 360.949 657.332 360.462 657.882 360.411C658.214 360.38 658.545 360.349 658.875 360.318C659.425 360.266 659.913 360.669 659.965 361.219ZM644.879 362.506C644.919 363.057 644.506 363.537 643.955 363.577C643.628 363.601 643.3 363.625 642.972 363.649C642.422 363.689 641.943 363.275 641.903 362.724C641.862 362.174 642.277 361.695 642.827 361.655C643.101 361.635 643.375 361.615 643.648 361.595L643.808 361.583C644.358 361.542 644.838 361.955 644.879 362.506ZM629.997 363.492C630.028 364.044 629.607 364.516 629.055 364.548C628.72 364.567 628.385 364.585 628.05 364.604C627.499 364.635 627.027 364.213 626.996 363.661C626.965 363.11 627.387 362.638 627.939 362.607C628.273 362.589 628.608 362.57 628.942 362.551C629.493 362.519 629.965 362.941 629.997 363.492ZM614.944 364.25C614.967 364.802 614.538 365.268 613.987 365.291C613.656 365.305 613.325 365.319 612.994 365.333C612.443 365.355 611.977 364.927 611.954 364.375C611.931 363.823 612.36 363.357 612.912 363.334L613.902 363.293C614.454 363.27 614.92 363.698 614.944 364.25ZM599.957 364.802C599.973 365.354 599.539 365.815 598.987 365.832C598.651 365.842 598.315 365.852 597.979 365.862C597.427 365.878 596.966 365.443 596.95 364.891C596.934 364.339 597.368 363.879 597.92 363.862C598.256 363.853 598.592 363.843 598.927 363.832C599.479 363.816 599.94 364.25 599.957 364.802ZM417.651 363.834L418.661 363.832C419.213 363.831 419.662 364.278 419.663 364.83C419.664 365.382 419.217 365.831 418.665 365.832L417.656 365.834C417.104 365.836 416.655 365.389 416.654 364.837C416.652 364.285 417.099 363.836 417.651 363.834ZM431.675 364.835C431.676 364.283 432.125 363.836 432.677 363.837L433.676 363.84C434.228 363.842 434.674 364.291 434.673 364.843C434.671 365.396 434.222 365.842 433.67 365.84L432.672 365.837C432.12 365.836 431.673 365.387 431.675 364.835ZM446.719 364.901C446.722 364.349 447.173 363.904 447.725 363.908L448.734 363.914C449.286 363.918 449.731 364.368 449.727 364.921C449.723 365.473 449.273 365.918 448.72 365.914L447.712 365.907C447.16 365.904 446.715 365.453 446.719 364.901ZM404.636 364.904C404.641 365.456 404.197 365.908 403.645 365.913L402.653 365.922C402.101 365.927 401.649 365.484 401.643 364.932C401.638 364.379 402.082 363.928 402.634 363.922L403.627 363.913C404.179 363.908 404.631 364.352 404.636 364.904ZM461.723 365.013C461.728 364.461 462.179 364.017 462.732 364.022L463.732 364.031C464.284 364.036 464.728 364.487 464.723 365.04C464.718 365.592 464.267 366.036 463.714 366.031L462.714 366.022C462.162 366.017 461.718 365.566 461.723 365.013ZM389.588 365.093C389.598 365.646 389.158 366.101 388.606 366.111C388.27 366.117 387.935 366.123 387.6 366.129C387.047 366.139 386.592 365.7 386.581 365.148C386.571 364.595 387.011 364.14 387.563 364.129C387.898 364.123 388.234 364.117 388.57 364.111C389.123 364.102 389.578 364.541 389.588 365.093ZM476.769 365.152C476.774 364.6 477.226 364.156 477.779 364.162L478.785 364.171C479.337 364.177 479.78 364.629 479.775 365.181C479.769 365.733 479.317 366.177 478.765 366.171L477.759 366.162C477.207 366.156 476.764 365.704 476.769 365.152ZM584.931 365.186C584.942 365.738 584.503 366.195 583.951 366.206L582.953 366.225C582.401 366.236 581.945 365.797 581.934 365.245C581.924 364.693 582.363 364.236 582.915 364.226C583.247 364.219 583.579 364.213 583.911 364.206C584.463 364.195 584.92 364.634 584.931 365.186ZM491.777 365.297C491.782 364.745 492.234 364.301 492.786 364.306L493.787 364.316C494.34 364.321 494.783 364.773 494.778 365.325C494.773 365.877 494.321 366.321 493.769 366.316L492.767 366.306C492.215 366.301 491.772 365.849 491.777 365.297ZM506.806 365.43C506.81 364.877 507.261 364.433 507.813 364.438L508.815 364.445C509.368 364.45 509.812 364.901 509.808 365.453C509.803 366.005 509.352 366.45 508.8 366.445L507.798 366.438C507.245 366.433 506.801 365.982 506.806 365.43ZM569.9 365.429C569.906 365.981 569.464 366.434 568.911 366.44L567.903 366.451C567.351 366.458 566.898 366.015 566.892 365.462C566.886 364.91 567.329 364.458 567.881 364.452L568.888 364.44C569.441 364.434 569.893 364.876 569.9 365.429ZM374.642 365.426C374.658 365.978 374.223 366.438 373.671 366.454C373.343 366.464 373.016 366.473 372.688 366.483C372.136 366.499 371.675 366.065 371.659 365.513C371.643 364.961 372.077 364.5 372.629 364.484C372.957 364.474 373.285 364.465 373.614 364.455C374.166 364.439 374.626 364.874 374.642 365.426ZM521.833 365.532C521.836 364.979 522.286 364.534 522.838 364.537L523.839 364.542C524.391 364.545 524.836 364.995 524.834 365.547C524.831 366.099 524.381 366.545 523.829 366.542L522.828 366.537C522.275 366.534 521.83 366.084 521.833 365.532ZM552.883 364.564L553.883 364.559C554.435 364.557 554.885 365.003 554.887 365.555C554.89 366.107 554.444 366.557 553.892 366.559L552.892 366.564C552.34 366.566 551.89 366.12 551.888 365.568C551.885 365.016 552.331 364.566 552.883 364.564ZM536.842 365.584C536.843 365.032 537.291 364.585 537.844 364.586L538.849 364.586C539.401 364.587 539.848 365.035 539.848 365.587C539.847 366.14 539.399 366.587 538.847 366.586L537.841 366.586C537.289 366.585 536.842 366.137 536.842 365.584ZM359.53 365.946C359.553 366.498 359.125 366.964 358.573 366.988C358.24 367.002 357.908 367.016 357.575 367.03C357.023 367.055 356.557 366.627 356.533 366.075C356.509 365.523 356.936 365.056 357.488 365.032C357.821 365.018 358.155 365.004 358.488 364.989C359.04 364.966 359.507 365.394 359.53 365.946ZM344.614 366.685C344.647 367.236 344.226 367.71 343.675 367.742C343.335 367.763 342.995 367.783 342.656 367.804C342.105 367.837 341.631 367.418 341.597 366.866C341.564 366.315 341.983 365.841 342.535 365.807C342.875 365.787 343.215 365.766 343.556 365.746C344.108 365.713 344.581 366.134 344.614 366.685ZM329.573 367.713C329.617 368.263 329.207 368.746 328.657 368.79C328.33 368.817 328.003 368.844 327.677 368.87C327.126 368.916 326.643 368.506 326.598 367.956C326.553 367.406 326.962 366.923 327.512 366.877C327.84 366.85 328.167 366.823 328.496 366.797C329.046 366.752 329.528 367.163 329.573 367.713ZM314.563 369.095C314.622 369.644 314.225 370.137 313.676 370.197C313.488 370.217 313.299 370.238 313.11 370.258C312.966 370.274 312.822 370.29 312.678 370.306C312.13 370.366 311.636 369.97 311.575 369.421C311.515 368.872 311.911 368.378 312.46 368.318C312.793 368.281 313.127 368.244 313.462 368.208C314.011 368.149 314.504 368.546 314.563 369.095ZM299.77 370.901C299.848 371.448 299.468 371.954 298.921 372.032C298.58 372.081 298.241 372.13 297.902 372.179C297.355 372.258 296.848 371.879 296.769 371.333C296.689 370.786 297.068 370.279 297.615 370.199C297.955 370.15 298.297 370.101 298.639 370.052C299.186 369.974 299.692 370.355 299.77 370.901ZM284.906 373.295C285.008 373.838 284.651 374.36 284.108 374.462C283.79 374.522 283.474 374.582 283.158 374.643C282.615 374.747 282.091 374.391 281.987 373.849C281.883 373.306 282.239 372.782 282.781 372.678C283.1 372.617 283.419 372.557 283.738 372.497C284.281 372.395 284.804 372.752 284.906 373.295ZM270.129 376.45C270.264 376.986 269.938 377.529 269.403 377.663C269.084 377.743 268.767 377.823 268.451 377.904C267.916 378.041 267.371 377.719 267.234 377.184C267.097 376.648 267.42 376.104 267.955 375.967C268.274 375.885 268.595 375.804 268.916 375.723C269.452 375.589 269.995 375.914 270.129 376.45ZM255.682 380.597C255.86 381.119 255.581 381.688 255.058 381.866C254.744 381.974 254.43 382.082 254.118 382.19C253.597 382.372 253.027 382.097 252.845 381.576C252.663 381.054 252.938 380.484 253.46 380.302C253.644 380.238 253.829 380.173 254.015 380.11C254.147 380.064 254.28 380.019 254.412 379.973C254.935 379.795 255.503 380.074 255.682 380.597ZM241.742 386.123C241.982 386.621 241.774 387.219 241.277 387.459C240.976 387.604 240.677 387.75 240.38 387.897C239.885 388.143 239.285 387.94 239.04 387.445C238.795 386.951 238.997 386.351 239.492 386.105C239.795 385.955 240.1 385.806 240.407 385.658C240.904 385.418 241.502 385.626 241.742 386.123ZM228.767 393.605C229.094 394.05 228.998 394.676 228.553 395.003C228.287 395.199 228.023 395.396 227.761 395.594C227.321 395.927 226.694 395.841 226.36 395.401C226.027 394.961 226.113 394.334 226.553 394C226.822 393.796 227.094 393.593 227.369 393.391C227.814 393.064 228.44 393.16 228.767 393.605ZM217.794 403.713C218.23 404.053 218.307 404.681 217.968 405.117C217.768 405.373 217.572 405.631 217.378 405.89C217.048 406.333 216.422 406.424 215.979 406.094C215.536 405.764 215.445 405.138 215.775 404.695C215.977 404.424 216.182 404.155 216.391 403.887C216.73 403.452 217.358 403.374 217.794 403.713ZM210.483 416.676C211.008 416.847 211.296 417.41 211.126 417.936C211.025 418.249 210.927 418.565 210.832 418.882C210.675 419.412 210.118 419.713 209.588 419.556C209.059 419.398 208.758 418.841 208.915 418.312C209.014 417.979 209.117 417.649 209.223 417.32C209.393 416.794 209.957 416.506 210.483 416.676ZM207.987 431.469C208.539 431.465 208.99 431.91 208.994 432.462C208.995 432.635 208.997 432.809 209 432.983L209 433V433.45C209 434.003 208.552 434.45 208 434.45C207.448 434.45 207 434.003 207 433.45V433.009C206.997 432.831 206.995 432.653 206.994 432.477C206.99 431.924 207.434 431.473 207.987 431.469ZM208 445.059C208.552 445.059 209 445.507 209 446.059V446.509C209 446.67 209.001 446.831 209.001 446.992C209.004 447.544 208.558 447.994 208.005 447.996C207.453 447.998 207.004 447.553 207.001 447C207.001 446.837 207 446.673 207 446.509V446.059C207 445.507 207.448 445.059 208 445.059ZM208.746 459.503C209.294 459.434 209.794 459.823 209.862 460.371C209.902 460.689 209.944 461.007 209.986 461.324C210.06 461.872 209.676 462.375 209.129 462.449C208.581 462.522 208.078 462.138 208.004 461.591C207.961 461.268 207.919 460.944 207.878 460.62C207.809 460.072 208.198 459.572 208.746 459.503ZM211.363 473.759C211.897 473.619 212.444 473.939 212.584 474.473C212.665 474.782 212.747 475.091 212.831 475.399C212.976 475.932 212.661 476.481 212.128 476.626C211.595 476.771 211.046 476.456 210.901 475.923C210.816 475.61 210.732 475.295 210.649 474.98C210.509 474.446 210.828 473.9 211.363 473.759ZM215.832 487.543C216.343 487.333 216.927 487.578 217.136 488.089C217.257 488.384 217.379 488.679 217.503 488.973C217.716 489.482 217.477 490.068 216.968 490.282C216.458 490.496 215.872 490.256 215.659 489.747C215.533 489.448 215.409 489.148 215.285 488.847C215.076 488.336 215.321 487.752 215.832 487.543ZM222.069 500.62C222.548 500.346 223.159 500.513 223.433 500.992C223.592 501.27 223.751 501.546 223.912 501.822C224.19 502.3 224.029 502.912 223.552 503.19C223.075 503.468 222.462 503.307 222.184 502.829C222.021 502.548 221.858 502.267 221.697 501.984C221.423 501.505 221.589 500.894 222.069 500.62ZM229.944 512.786C230.385 512.453 231.012 512.54 231.345 512.981C231.538 513.236 231.731 513.49 231.926 513.743C232.263 514.181 232.181 514.809 231.743 515.146C231.305 515.482 230.677 515.4 230.341 514.962C230.142 514.705 229.945 514.446 229.749 514.187C229.416 513.746 229.504 513.119 229.944 512.786ZM239.295 523.857C239.691 523.472 240.324 523.48 240.71 523.875C240.933 524.104 241.156 524.332 241.381 524.559C241.77 524.951 241.767 525.584 241.375 525.973C240.983 526.362 240.349 526.359 239.961 525.967C239.732 525.736 239.504 525.504 239.277 525.271C238.892 524.876 238.9 524.242 239.295 523.857ZM611.033 529.444C611.038 528.892 611.49 528.448 612.042 528.453C612.377 528.457 612.712 528.46 613.047 528.464C613.599 528.47 614.042 528.922 614.036 529.475C614.03 530.027 613.577 530.47 613.025 530.464C612.691 530.46 612.357 530.456 612.023 530.453C611.471 530.448 611.028 529.996 611.033 529.444ZM599.168 529.448C599.173 530 598.73 530.452 598.178 530.457L597.181 530.468C596.628 530.474 596.176 530.031 596.17 529.479C596.164 528.927 596.606 528.474 597.159 528.468C597.492 528.464 597.825 528.461 598.158 528.458C598.711 528.452 599.163 528.896 599.168 529.448ZM584.294 529.714C584.309 530.266 583.874 530.726 583.322 530.741C582.991 530.751 582.66 530.76 582.329 530.77C581.777 530.786 581.316 530.352 581.3 529.799C581.284 529.247 581.718 528.787 582.27 528.771C582.602 528.761 582.934 528.751 583.266 528.742C583.818 528.727 584.278 529.161 584.294 529.714ZM625.906 529.731C625.924 529.179 626.386 528.747 626.938 528.765C627.15 528.772 627.361 528.779 627.572 528.786L627.927 528.798C628.479 528.817 628.911 529.28 628.892 529.832C628.873 530.384 628.41 530.816 627.858 530.797C627.53 530.785 627.201 530.774 626.873 530.764C626.321 530.745 625.888 530.283 625.906 529.731ZM569.417 530.241C569.442 530.792 569.015 531.26 568.463 531.284L567.473 531.329C566.921 531.354 566.454 530.927 566.428 530.376C566.403 529.824 566.83 529.356 567.382 529.331C567.712 529.316 568.043 529.301 568.374 529.286C568.925 529.262 569.393 529.689 569.417 530.241ZM640.79 530.388C640.823 529.837 641.297 529.417 641.848 529.449C642.175 529.469 642.501 529.489 642.827 529.509C643.378 529.543 643.798 530.017 643.764 530.568C643.73 531.12 643.255 531.539 642.704 531.505C642.379 531.485 642.054 531.465 641.729 531.446C641.177 531.413 640.757 530.939 640.79 530.388ZM554.544 531.003C554.577 531.555 554.157 532.028 553.606 532.061C553.277 532.081 552.948 532.1 552.619 532.12C552.067 532.154 551.593 531.734 551.56 531.183C551.527 530.631 551.946 530.157 552.498 530.124C552.828 530.104 553.157 530.084 553.487 530.065C554.038 530.032 554.512 530.452 554.544 531.003ZM655.644 531.47C655.694 530.92 656.18 530.515 656.73 530.565C656.932 530.583 657.134 530.602 657.335 530.62L657.708 530.655C658.258 530.706 658.662 531.194 658.61 531.744C658.559 532.294 658.072 532.698 657.522 532.646C657.198 532.616 656.874 532.586 656.549 532.557C655.999 532.507 655.594 532.02 655.644 531.47ZM539.682 531.979C539.722 532.53 539.308 533.009 538.757 533.049C538.429 533.073 538.101 533.098 537.772 533.122C537.221 533.163 536.742 532.75 536.701 532.199C536.66 531.648 537.073 531.168 537.624 531.128C537.953 531.103 538.282 531.079 538.611 531.055C539.162 531.014 539.641 531.428 539.682 531.979ZM670.446 533.048C670.517 532.501 671.018 532.114 671.566 532.184C671.89 532.226 672.215 532.268 672.539 532.31C673.086 532.382 673.472 532.884 673.4 533.432C673.328 533.979 672.826 534.365 672.279 534.293C671.957 534.251 671.634 534.209 671.311 534.168C670.763 534.097 670.376 533.596 670.446 533.048ZM524.843 533.148C524.891 533.698 524.483 534.183 523.933 534.23C523.602 534.258 523.272 534.287 522.941 534.315C522.391 534.363 521.906 533.956 521.859 533.405C521.811 532.855 522.219 532.37 522.769 532.323C522.986 532.304 523.204 532.285 523.422 532.266L523.762 532.237C524.312 532.19 524.796 532.598 524.843 533.148ZM249.949 533.683C250.294 533.251 250.923 533.182 251.355 533.527C251.467 533.617 251.579 533.706 251.691 533.795C251.829 533.905 251.967 534.014 252.105 534.123C252.539 534.464 252.614 535.093 252.272 535.527C251.931 535.961 251.302 536.036 250.868 535.694C250.613 535.493 250.358 535.291 250.105 535.088C249.674 534.743 249.604 534.114 249.949 533.683ZM510.028 534.494C510.081 535.044 509.679 535.533 509.129 535.586L508.142 535.683C507.592 535.737 507.103 535.335 507.049 534.785C506.995 534.236 507.397 533.746 507.946 533.692C508.276 533.66 508.606 533.628 508.936 533.596C509.485 533.542 509.974 533.944 510.028 534.494ZM685.166 535.214C685.26 534.67 685.778 534.305 686.322 534.4L686.613 534.45C686.838 534.49 687.062 534.529 687.287 534.569C687.831 534.665 688.193 535.184 688.097 535.728C688.001 536.271 687.482 536.634 686.938 536.538C686.62 536.482 686.3 536.426 685.98 536.37C685.436 536.276 685.072 535.758 685.166 535.214ZM495.22 536.005C495.279 536.554 494.882 537.047 494.333 537.107C494.004 537.142 493.676 537.178 493.347 537.214C492.798 537.273 492.304 536.877 492.245 536.328C492.185 535.778 492.582 535.285 493.131 535.225C493.46 535.19 493.789 535.154 494.118 535.118C494.667 535.059 495.16 535.456 495.22 536.005ZM480.425 537.668C480.49 538.217 480.098 538.714 479.549 538.779C479.221 538.817 478.893 538.856 478.564 538.895C478.016 538.96 477.519 538.568 477.453 538.02C477.388 537.472 477.78 536.974 478.329 536.909C478.657 536.87 478.986 536.831 479.315 536.792C479.863 536.728 480.36 537.12 480.425 537.668ZM699.75 538.085C699.874 537.546 700.411 537.21 700.949 537.334C701.185 537.389 701.422 537.443 701.657 537.498L701.898 537.555C702.436 537.68 702.77 538.218 702.644 538.756C702.518 539.294 701.98 539.628 701.442 539.502C701.129 539.428 700.815 539.356 700.5 539.283C699.962 539.159 699.626 538.623 699.75 538.085ZM465.652 539.473C465.721 540.02 465.334 540.521 464.786 540.591L463.801 540.717C463.253 540.787 462.752 540.4 462.682 539.852C462.612 539.304 462.999 538.803 463.547 538.733C463.876 538.691 464.204 538.649 464.533 538.607C465.081 538.537 465.582 538.925 465.652 539.473ZM450.904 541.408C450.979 541.955 450.596 542.459 450.049 542.534C449.72 542.578 449.392 542.623 449.063 542.668C448.516 542.743 448.012 542.36 447.937 541.813C447.862 541.266 448.245 540.761 448.792 540.687L449.779 540.552C450.326 540.477 450.83 540.861 450.904 541.408ZM714.138 541.822C714.298 541.293 714.857 540.994 715.385 541.154C715.711 541.253 716.037 541.353 716.361 541.453C716.889 541.616 717.184 542.175 717.022 542.703C716.859 543.231 716.299 543.527 715.771 543.364C715.45 543.265 715.128 543.166 714.805 543.069C714.277 542.909 713.978 542.35 714.138 541.822ZM261.723 542.132C262.013 541.662 262.629 541.516 263.099 541.806C263.371 541.974 263.644 542.141 263.917 542.306C264.389 542.593 264.54 543.208 264.253 543.68C263.967 544.152 263.352 544.303 262.88 544.017C262.602 543.848 262.325 543.679 262.048 543.508C261.579 543.218 261.433 542.602 261.723 542.132ZM436.155 543.47C436.233 544.017 435.854 544.524 435.308 544.603L434.33 544.745C433.783 544.824 433.276 544.445 433.197 543.898C433.117 543.352 433.496 542.845 434.043 542.765C434.369 542.718 434.695 542.671 435.022 542.624C435.568 542.545 436.076 542.924 436.155 543.47ZM421.42 545.65C421.504 546.196 421.128 546.706 420.582 546.789C420.256 546.839 419.93 546.889 419.604 546.939C419.058 547.022 418.548 546.647 418.465 546.101C418.381 545.556 418.756 545.045 419.302 544.962L420.281 544.812C420.827 544.729 421.337 545.104 421.42 545.65ZM728.261 546.662C728.466 546.149 729.049 545.901 729.561 546.107C729.702 546.163 729.843 546.22 729.983 546.277C730.155 546.346 730.327 546.416 730.498 546.486C731.009 546.696 731.253 547.28 731.044 547.791C730.835 548.302 730.251 548.546 729.739 548.337C729.433 548.211 729.125 548.087 728.816 547.962C728.303 547.756 728.055 547.174 728.261 546.662ZM406.707 547.941C406.794 548.486 406.423 548.999 405.878 549.086C405.551 549.138 405.225 549.191 404.898 549.243C404.353 549.331 403.84 548.959 403.753 548.414C403.665 547.869 404.036 547.356 404.582 547.268L405.562 547.111C406.107 547.024 406.62 547.396 406.707 547.941ZM274.435 549.091C274.666 548.589 275.26 548.37 275.762 548.601C276.052 548.735 276.343 548.868 276.635 548.999C277.138 549.226 277.362 549.819 277.135 550.322C276.908 550.825 276.316 551.049 275.812 550.822C275.516 550.689 275.22 550.554 274.925 550.418C274.423 550.187 274.204 549.593 274.435 549.091ZM392.019 550.336C392.11 550.881 391.742 551.396 391.197 551.487L390.216 551.651C389.671 551.743 389.156 551.375 389.064 550.83C388.973 550.286 389.341 549.77 389.885 549.679L390.867 549.514C391.412 549.423 391.928 549.791 392.019 550.336ZM377.357 552.83C377.451 553.374 377.087 553.892 376.543 553.987L375.559 554.158C375.015 554.253 374.497 553.889 374.402 553.345C374.307 552.801 374.671 552.283 375.215 552.188L376.2 552.016C376.744 551.922 377.262 552.286 377.357 552.83ZM741.8 552.86C742.063 552.375 742.671 552.195 743.156 552.459C743.448 552.618 743.739 552.777 744.029 552.938C744.511 553.206 744.686 553.815 744.418 554.298C744.15 554.781 743.541 554.955 743.058 554.687C742.774 554.529 742.488 554.372 742.201 554.216C741.716 553.952 741.536 553.345 741.8 552.86ZM287.899 554.46C288.067 553.934 288.63 553.644 289.156 553.813C289.297 553.858 289.438 553.903 289.58 553.948C289.743 553.999 289.906 554.051 290.069 554.101C290.597 554.266 290.891 554.826 290.727 555.354C290.562 555.881 290.002 556.175 289.474 556.011C289.164 555.914 288.855 555.816 288.546 555.717C288.02 555.549 287.73 554.986 287.899 554.46ZM362.721 555.419C362.82 555.963 362.459 556.483 361.915 556.581L360.927 556.76C360.384 556.858 359.863 556.497 359.765 555.954C359.667 555.41 360.027 554.89 360.571 554.792L361.559 554.613C362.103 554.515 362.623 554.876 362.721 555.419ZM348.093 558.103C348.194 558.646 347.837 559.168 347.294 559.27L346.814 559.359C346.653 559.39 346.493 559.419 346.332 559.449C345.789 559.548 345.268 559.188 345.168 558.645C345.069 558.102 345.429 557.581 345.972 557.482C346.13 557.453 346.288 557.423 346.446 557.394L346.926 557.304C347.469 557.202 347.991 557.56 348.093 558.103ZM301.911 558.15C302.014 557.607 302.538 557.251 303.08 557.354C303.394 557.413 303.708 557.472 304.022 557.529C304.565 557.627 304.926 558.148 304.827 558.691C304.728 559.235 304.208 559.595 303.665 559.497C303.345 559.439 303.026 559.379 302.707 559.319C302.164 559.216 301.808 558.692 301.911 558.15ZM333.726 560.074C333.763 560.625 333.346 561.102 332.795 561.139C332.47 561.16 332.144 561.181 331.819 561.2C331.268 561.232 330.795 560.812 330.762 560.26C330.73 559.709 331.15 559.236 331.702 559.203C332.021 559.185 332.341 559.164 332.661 559.143C333.212 559.106 333.689 559.523 333.726 560.074ZM316.27 560.096C316.306 559.544 316.782 559.127 317.333 559.162C317.536 559.175 317.74 559.188 317.944 559.2C318.059 559.207 318.175 559.214 318.29 559.22C318.841 559.251 319.263 559.724 319.232 560.275C319.201 560.826 318.729 561.248 318.177 561.217C317.959 561.205 317.741 561.192 317.522 561.178C317.416 561.172 317.31 561.165 317.204 561.158C316.652 561.122 316.235 560.647 316.27 560.096ZM754.344 560.736C754.679 560.297 755.306 560.212 755.746 560.547C756.011 560.75 756.275 560.953 756.537 561.158C756.972 561.498 757.049 562.127 756.709 562.562C756.369 562.997 755.74 563.074 755.305 562.734C755.049 562.534 754.792 562.335 754.533 562.137C754.093 561.802 754.009 561.175 754.344 560.736ZM765.383 570.723C765.799 570.36 766.431 570.404 766.793 570.821C767.014 571.074 767.233 571.33 767.449 571.586C767.805 572.008 767.752 572.639 767.33 572.995C766.907 573.351 766.276 573.298 765.92 572.876C765.711 572.627 765.499 572.38 765.285 572.134C764.922 571.717 764.966 571.085 765.383 570.723ZM773.914 582.853C774.405 582.602 775.008 582.797 775.259 583.289C775.411 583.586 775.56 583.885 775.707 584.185C775.95 584.681 775.745 585.28 775.249 585.523C774.753 585.766 774.154 585.561 773.911 585.065C773.837 584.913 773.762 584.763 773.687 584.612C773.618 584.474 773.548 584.336 773.478 584.199C773.227 583.707 773.422 583.104 773.914 582.853ZM779.161 596.691C779.7 596.569 780.235 596.908 780.357 597.446C780.386 597.576 780.415 597.706 780.443 597.836C780.487 598.035 780.529 598.235 780.571 598.435C780.684 598.975 780.337 599.505 779.797 599.618C779.256 599.731 778.726 599.384 778.613 598.844C778.546 598.523 778.477 598.204 778.405 597.886C778.284 597.348 778.622 596.812 779.161 596.691ZM780.996 611.486C781.549 611.484 781.998 611.93 782 612.482C782.001 612.656 782.001 612.829 782 613.003L781.999 613.518C781.997 614.07 781.549 614.517 780.996 614.515C780.444 614.514 779.997 614.065 779.999 613.513L780 612.997C780.001 612.828 780.001 612.659 780 612.49C779.998 611.938 780.444 611.488 780.996 611.486ZM781.024 626.706C781.577 626.702 782.027 627.147 782.031 627.699L782.037 628.695C782.041 629.247 781.597 629.698 781.044 629.702C780.492 629.706 780.041 629.261 780.037 628.709C780.035 628.377 780.033 628.045 780.031 627.712C780.027 627.16 780.472 626.709 781.024 626.706ZM781.165 641.9C781.717 641.893 782.17 642.335 782.176 642.888L782.188 643.884C782.195 644.436 781.753 644.889 781.201 644.896C780.648 644.902 780.195 644.46 780.189 643.908L780.177 642.911C780.17 642.359 780.612 641.906 781.165 641.9ZM781.355 657.084C781.907 657.078 782.36 657.52 782.367 658.072L782.379 659.071C782.386 659.623 781.943 660.076 781.391 660.082C780.839 660.089 780.386 659.647 780.379 659.095L780.367 658.096C780.36 657.544 780.803 657.091 781.355 657.084ZM781.506 672.261C782.059 672.257 782.509 672.703 782.512 673.255C782.514 673.599 782.516 673.943 782.518 674.287C782.52 674.839 782.075 675.289 781.523 675.292C780.97 675.295 780.52 674.849 780.518 674.297C780.516 673.954 780.514 673.61 780.512 673.266C780.509 672.714 780.954 672.264 781.506 672.261ZM781.506 687.48C782.059 687.485 782.502 687.937 782.497 688.489C782.494 688.833 782.49 689.176 782.487 689.518C782.481 690.07 782.028 690.513 781.476 690.507C780.924 690.501 780.481 690.049 780.487 689.497C780.491 689.155 780.494 688.813 780.497 688.471C780.502 687.919 780.954 687.475 781.506 687.48ZM781.209 702.695C781.761 702.714 782.193 703.178 782.173 703.73C782.165 703.972 782.156 704.214 782.147 704.456L782.136 704.751C782.115 705.303 781.651 705.734 781.099 705.713C780.547 705.692 780.117 705.228 780.137 704.676C780.15 704.338 780.162 703.999 780.174 703.659C780.194 703.107 780.657 702.675 781.209 702.695ZM780.427 717.875C780.978 717.917 781.39 718.397 781.349 718.948C781.323 719.285 781.297 719.622 781.27 719.958C781.227 720.509 780.745 720.92 780.195 720.876C779.644 720.833 779.233 720.351 779.277 719.801C779.303 719.467 779.329 719.132 779.354 718.797C779.396 718.246 779.876 717.833 780.427 717.875ZM778.921 732.965C779.468 733.039 779.852 733.542 779.778 734.09C779.733 734.422 779.687 734.753 779.641 735.083C779.564 735.63 779.059 736.012 778.512 735.935C777.965 735.858 777.583 735.353 777.66 734.806C777.706 734.478 777.751 734.15 777.796 733.821C777.87 733.274 778.374 732.891 778.921 732.965ZM776.378 747.93C776.918 748.049 777.258 748.583 777.139 749.122C777.065 749.458 776.99 749.792 776.914 750.126C776.792 750.665 776.256 751.002 775.717 750.879C775.179 750.757 774.841 750.221 774.964 749.682C775.039 749.353 775.113 749.022 775.186 748.691C775.305 748.152 775.839 747.811 776.378 747.93ZM772.429 762.602C772.952 762.78 773.231 763.348 773.053 763.871C772.944 764.192 772.833 764.513 772.721 764.832C772.539 765.354 771.968 765.628 771.447 765.446C770.926 765.264 770.651 764.693 770.833 764.172C770.943 763.857 771.052 763.542 771.16 763.226C771.338 762.703 771.906 762.424 772.429 762.602ZM766.72 776.642C767.213 776.891 767.412 777.492 767.163 777.985C767.01 778.29 766.855 778.594 766.698 778.897C766.445 779.388 765.841 779.58 765.351 779.326C764.86 779.073 764.668 778.47 764.921 777.979C765.075 777.682 765.227 777.384 765.377 777.085C765.626 776.592 766.227 776.394 766.72 776.642ZM759 789.692C759.448 790.015 759.55 790.64 759.227 791.088C759.027 791.365 758.826 791.641 758.623 791.917C758.295 792.361 757.669 792.456 757.225 792.129C756.78 791.801 756.685 791.175 757.013 790.73C757.212 790.461 757.409 790.19 757.604 789.919C757.927 789.471 758.552 789.369 759 789.692ZM749.274 801.374C749.666 801.764 749.667 802.397 749.277 802.789C749.041 803.025 748.804 803.26 748.565 803.495C748.172 803.882 747.538 803.877 747.151 803.483C746.764 803.09 746.769 802.456 747.163 802.069C747.397 801.839 747.629 801.608 747.86 801.377C748.25 800.986 748.883 800.984 749.274 801.374ZM737.95 811.373C738.281 811.814 738.192 812.441 737.751 812.773C737.48 812.976 737.208 813.178 736.935 813.38C736.491 813.708 735.865 813.613 735.537 813.169C735.209 812.724 735.303 812.098 735.748 811.77C736.017 811.572 736.284 811.373 736.549 811.174C736.991 810.842 737.618 810.931 737.95 811.373ZM725.346 819.815C725.623 820.293 725.46 820.905 724.982 821.182C724.685 821.354 724.386 821.525 724.085 821.696C723.605 821.969 722.995 821.802 722.721 821.322C722.448 820.842 722.616 820.231 723.096 819.958C723.392 819.789 723.687 819.62 723.98 819.451C724.458 819.174 725.07 819.337 725.346 819.815ZM711.863 826.855C712.093 827.358 711.872 827.951 711.37 828.181C711.149 828.282 710.928 828.382 710.706 828.483L710.417 828.613C709.913 828.84 709.321 828.616 709.094 828.112C708.867 827.609 709.092 827.017 709.595 826.79C709.911 826.648 710.225 826.505 710.538 826.362C711.04 826.132 711.634 826.353 711.863 826.855ZM697.827 832.701C698.018 833.219 697.753 833.794 697.235 833.985C696.907 834.106 696.577 834.227 696.247 834.347C695.728 834.536 695.154 834.268 694.965 833.749C694.777 833.23 695.044 832.656 695.563 832.467C695.891 832.348 696.218 832.229 696.543 832.109C697.061 831.918 697.636 832.183 697.827 832.701ZM683.458 837.563C683.618 838.092 683.319 838.65 682.79 838.81C682.456 838.911 682.121 839.011 681.785 839.112C681.256 839.27 680.699 838.969 680.541 838.439C680.383 837.91 680.684 837.353 681.213 837.195C681.547 837.096 681.88 836.996 682.211 836.896C682.74 836.736 683.298 837.035 683.458 837.563ZM668.877 841.631C669.011 842.167 668.686 842.71 668.15 842.844C667.815 842.928 667.479 843.012 667.143 843.096C666.607 843.229 666.064 842.902 665.931 842.366C665.799 841.83 666.125 841.287 666.661 841.154C666.996 841.071 667.331 840.988 667.664 840.904C668.199 840.77 668.742 841.095 668.877 841.631ZM654.13 845.059C654.243 845.599 653.897 846.13 653.357 846.243C653.024 846.313 652.69 846.383 652.356 846.452C651.815 846.565 651.285 846.217 651.173 845.676C651.061 845.136 651.408 844.606 651.949 844.494C652.282 844.425 652.614 844.355 652.945 844.286C653.486 844.172 654.016 844.518 654.13 845.059ZM639.211 847.969C639.308 848.513 638.945 849.032 638.401 849.128C638.072 849.186 637.743 849.244 637.413 849.301C636.869 849.397 636.351 849.033 636.256 848.489C636.161 847.945 636.525 847.427 637.069 847.331C637.398 847.274 637.725 847.216 638.053 847.158C638.596 847.062 639.115 847.425 639.211 847.969ZM624.089 850.454C624.17 851.001 623.793 851.51 623.247 851.591C622.924 851.639 622.601 851.687 622.277 851.735C621.731 851.816 621.223 851.438 621.142 850.892C621.061 850.345 621.439 849.837 621.985 849.756C622.308 849.709 622.63 849.661 622.952 849.613C623.498 849.531 624.007 849.908 624.089 850.454ZM609.153 852.53C609.222 853.078 608.834 853.578 608.286 853.647C607.943 853.691 607.6 853.734 607.257 853.777C606.709 853.845 606.209 853.456 606.14 852.908C606.072 852.36 606.461 851.86 607.009 851.792C607.352 851.749 607.694 851.706 608.035 851.663C608.583 851.594 609.083 851.982 609.153 852.53ZM594.124 854.298C594.183 854.847 593.786 855.34 593.236 855.399C592.903 855.434 592.569 855.47 592.235 855.505C591.685 855.563 591.193 855.165 591.135 854.616C591.077 854.067 591.475 853.575 592.024 853.516L592.492 853.467C592.669 853.448 592.846 853.429 593.024 853.41C593.573 853.351 594.066 853.749 594.124 854.298ZM578.798 855.821C578.847 856.371 578.441 856.857 577.891 856.906C577.567 856.935 577.242 856.964 576.917 856.993C576.367 857.042 575.882 856.636 575.833 856.086C575.784 855.536 576.19 855.05 576.74 855.001L577.712 854.914C578.262 854.865 578.748 855.271 578.798 855.821ZM563.879 857.068C563.921 857.619 563.508 858.099 562.958 858.14L561.937 858.217C561.386 858.258 560.907 857.845 560.865 857.295C560.824 856.744 561.237 856.264 561.788 856.223C562.128 856.197 562.468 856.172 562.807 856.146C563.358 856.104 563.838 856.517 563.879 857.068ZM548.629 858.135C548.664 858.686 548.245 859.161 547.694 859.196C547.365 859.217 547.036 859.237 546.706 859.258C546.155 859.292 545.68 858.873 545.646 858.322C545.612 857.77 546.031 857.296 546.582 857.261C546.911 857.241 547.24 857.22 547.568 857.2C548.119 857.165 548.594 857.584 548.629 858.135ZM533.535 859.01C533.564 859.561 533.14 860.032 532.588 860.06L531.559 860.113C531.007 860.141 530.537 859.717 530.509 859.165C530.481 858.614 530.905 858.144 531.457 858.116L532.485 858.063C533.036 858.034 533.507 858.458 533.535 859.01ZM518.331 859.73C518.354 860.282 517.926 860.748 517.374 860.771L516.38 860.812C515.829 860.835 515.363 860.406 515.34 859.854C515.317 859.303 515.746 858.837 516.298 858.814C516.629 858.8 516.96 858.787 517.29 858.773C517.842 858.75 518.308 859.178 518.331 859.73ZM503.18 860.305C503.199 860.857 502.766 861.319 502.214 861.337C501.871 861.349 501.527 861.36 501.183 861.371C500.631 861.389 500.169 860.956 500.152 860.404C500.134 859.852 500.567 859.39 501.119 859.372C501.462 859.361 501.805 859.35 502.148 859.338C502.7 859.32 503.162 859.753 503.18 860.305ZM487.959 860.754C487.973 861.306 487.536 861.765 486.984 861.779L485.991 861.803C485.439 861.817 484.981 861.38 484.967 860.828C484.954 860.276 485.39 859.818 485.942 859.804L486.934 859.779C487.486 859.766 487.945 860.202 487.959 860.754ZM472.84 861.086C472.85 861.638 472.411 862.094 471.858 862.103C471.517 862.11 471.175 862.116 470.832 862.122C470.28 862.131 469.825 861.692 469.815 861.139C469.805 860.587 470.245 860.132 470.797 860.122L471.823 860.104C472.375 860.094 472.83 860.533 472.84 861.086ZM457.52 861.317C457.526 861.869 457.084 862.322 456.531 862.328C456.202 862.332 455.873 862.336 455.543 862.339C454.991 862.345 454.539 861.903 454.533 861.35C454.526 860.798 454.969 860.345 455.521 860.339C455.851 860.336 456.18 860.332 456.508 860.328C457.061 860.322 457.513 860.764 457.52 861.317ZM440.476 860.461C440.815 860.46 441.154 860.458 441.493 860.456C442.045 860.453 442.496 860.898 442.499 861.45C442.502 862.002 442.057 862.453 441.504 862.456L440.486 862.461C439.934 862.464 439.484 862.019 439.481 861.467C439.478 860.914 439.924 860.464 440.476 860.461ZM425.5 860.5L426.024 860.5C426.576 860.5 427.024 860.948 427.024 861.5C427.024 862.052 426.576 862.5 426.024 862.5L425.5 862.5C424.948 862.5 424.5 862.052 424.5 861.5C424.5 860.948 424.948 860.5 425.5 860.5Z" fill="url(#paint0_linear)"/>
<defs>
<linearGradient id="paint0_linear" x1="734.466" y1="68.2077" x2="81.938" y2="704.659" gradientUnits="userSpaceOnUse">
<stop stop-color="#FC0A88"/>
<stop offset="1" stop-color="#4C17D0"/>
</linearGradient>
</defs>
</svg>
