<svg width="113" height="38" viewBox="0 0 113 38" fill="none" xmlns="http://www.w3.org/2000/svg">
<g clip-path="url(#clip0)">
<mask id="mask0" style="mask-type:alpha" maskUnits="userSpaceOnUse" x="0" y="0" width="113" height="38">
<path d="M32.0873 5.03218C35.9175 8.49339 38.3211 13.4799 38.3211 19.0231C38.3211 29.3624 29.9581 37.7637 19.5736 37.9438C20.4279 36.9223 20.3917 35.4345 20.1716 34.1988L18.2051 23.157L29.4919 21.1807C31.3057 20.8632 32.5909 19.9663 32.2356 17.9731C31.8812 15.9827 30.3886 15.5535 28.5477 15.8761L17.2604 17.8521L15.7508 9.3761L29.2672 7.00961C30.462 6.80011 31.7463 6.30051 32.0873 5.03218ZM19.2337 0.0976562C22.0373 0.0976562 24.6992 0.697363 27.0977 1.77375L12.0263 4.41216C9.1745 4.91146 7.97484 6.61123 8.47844 9.43882L13.1079 35.4351C13.2092 36.0037 13.36 36.5785 13.5956 37.108C5.80652 34.724 0.146484 27.5289 0.146484 19.0231C0.146484 8.57056 8.69204 0.0976562 19.2337 0.0976562ZM58.4406 12.4408C59.0768 12.4408 59.6833 12.5107 60.2596 12.6504C60.8379 12.7898 61.3828 12.9998 61.8927 13.2786C62.4056 13.5574 62.8562 13.8978 63.2412 14.2973C63.6279 14.6991 63.9495 15.1585 64.203 15.6731C64.3629 15.9697 64.495 16.2767 64.5997 16.5956C64.7049 16.9174 64.7827 17.2533 64.8318 17.603C64.8769 17.944 64.9111 18.3256 64.9341 18.7497C64.9567 19.1784 64.969 19.6401 64.969 20.1323V28.6464C64.969 29.1387 64.9096 29.5786 64.7916 29.964C64.6686 30.3658 64.4819 30.7061 64.2349 30.9807C63.9863 31.2578 63.696 31.467 63.369 31.6067C63.0441 31.7452 62.684 31.8148 62.293 31.8148C61.8987 31.8148 61.5354 31.7435 61.204 31.6013C60.8721 31.4591 60.5778 31.2462 60.3238 30.9637C60.0716 30.6813 59.884 30.3417 59.7608 29.9442C59.6416 29.5619 59.5823 29.1285 59.5823 28.6464V21.0184C59.5823 20.2852 59.5313 19.6432 59.4315 19.0961C59.3334 18.5609 59.1862 18.1074 58.9926 17.7381C58.8247 17.4184 58.5666 17.1761 58.223 17.0135C57.856 16.8402 57.3861 16.7525 56.814 16.7525C56.4445 16.7525 56.0917 16.806 55.759 16.9134C55.4219 17.0211 55.1008 17.1846 54.794 17.4039C54.4889 17.6239 54.2243 17.886 54.0016 18.1871C53.7792 18.4885 53.5958 18.8329 53.454 19.2194C53.3502 19.5352 53.2701 19.996 53.2162 20.6016C53.1626 21.2242 53.1341 21.9966 53.1341 22.9172V28.6464C53.1341 29.1452 53.0734 29.5883 52.9528 29.9733C52.8265 30.3782 52.6334 30.7181 52.3768 30.9926C52.1215 31.2637 51.8281 31.4704 51.4982 31.6081C51.1685 31.7455 50.8075 31.8148 50.418 31.8148C50.0325 31.8148 49.6755 31.743 49.3521 31.601C49.0262 31.458 48.7364 31.2445 48.4852 30.962C48.2362 30.6796 48.0489 30.34 47.9263 29.9442C47.8074 29.5619 47.7481 29.1285 47.7481 28.6464V15.426C47.7481 14.461 47.9711 13.7234 48.4165 13.2206L48.4196 13.2178C48.6529 12.9591 48.9269 12.7632 49.2412 12.6337C49.5506 12.5056 49.8967 12.4408 50.2794 12.4408C50.5124 12.4408 50.7388 12.4697 50.9561 12.5263C51.1722 12.5828 51.379 12.6688 51.5726 12.7818C51.7739 12.8972 51.9518 13.0408 52.1067 13.2096C52.259 13.3756 52.3936 13.5707 52.5076 13.7918C52.671 14.1104 52.7748 14.4706 52.8201 14.8743C53.0326 14.6459 53.2499 14.4344 53.4715 14.2402C53.942 13.8274 54.4313 13.4898 54.9371 13.2283C55.4467 12.9659 55.9968 12.768 56.5856 12.6362C57.1702 12.5062 57.7896 12.4408 58.4406 12.4408ZM82.731 12.4064C83.6626 12.4064 84.5323 12.5053 85.3379 12.7015C86.1483 12.8995 86.8917 13.1972 87.5675 13.5936C88.2413 13.9871 88.8322 14.4398 89.3395 14.9524C89.8479 15.4661 90.2731 16.0395 90.6139 16.6731C90.9483 17.2942 91.1995 17.9262 91.3692 18.5682C91.5389 19.2114 91.6239 19.8589 91.6239 20.5095C91.6239 21.1377 91.5289 21.6647 91.3404 22.0882C91.1374 22.5443 90.828 22.8807 90.4148 23.0945C90.0476 23.2819 89.6101 23.4219 89.104 23.5132C88.6092 23.6034 88.0508 23.6489 87.4312 23.6489H78.8107C78.8338 23.9941 78.882 24.3252 78.9547 24.6407C79.0539 25.0696 79.1991 25.4677 79.3875 25.8344C79.5774 26.2 79.797 26.5192 80.0439 26.7895C80.2912 27.0603 80.5698 27.2863 80.8769 27.4664C81.1863 27.6507 81.5111 27.7881 81.8522 27.88C82.1952 27.9719 82.5562 28.0177 82.9332 28.0177C83.2015 28.0177 83.449 28.0036 83.6763 27.9747C83.9064 27.9456 84.1263 27.9003 84.3356 27.8401L84.3413 27.8384C84.5512 27.7816 84.757 27.7067 84.9581 27.6159C85.1597 27.5243 85.3595 27.4146 85.5577 27.2868C85.7668 27.1545 85.9649 27.018 86.1554 26.8766C86.3442 26.7361 86.5238 26.5905 86.6941 26.4412C86.886 26.2752 87.0919 26.0923 87.3129 25.8918C87.5441 25.6812 87.8042 25.4412 88.0916 25.1734L88.1056 25.1612C88.2647 25.0267 88.4546 24.9257 88.6757 24.8587C88.8832 24.7962 89.115 24.7645 89.3691 24.7645C89.6469 24.7645 89.9041 24.8044 90.1376 24.8836C90.3808 24.9647 90.5961 25.0883 90.7815 25.25C90.9709 25.4151 91.1163 25.6201 91.2132 25.8612C91.3065 26.0892 91.3533 26.3462 91.3533 26.6284C91.3533 26.8738 91.3039 27.1378 91.2078 27.4205C91.1183 27.6846 90.9848 27.9665 90.8097 28.2676L90.808 28.2724C90.6281 28.5724 90.4034 28.869 90.1339 29.1565C89.875 29.4333 89.5719 29.7047 89.2257 29.9674C88.8755 30.2368 88.4835 30.484 88.0508 30.7045C87.6243 30.9219 87.1515 31.1173 86.6345 31.2897C86.1143 31.4661 85.556 31.5973 84.9629 31.6841C84.3672 31.7712 83.7359 31.8148 83.0715 31.8148C81.5439 31.8148 80.1814 31.5962 78.9863 31.1608C77.7804 30.7214 76.7456 30.0607 75.8816 29.1797C75.0196 28.3012 74.3737 27.2676 73.945 26.0802C73.5196 24.902 73.3075 23.5723 73.3075 22.0933C73.3075 21.4037 73.3599 20.73 73.4651 20.0766C73.5692 19.4294 73.7269 18.8038 73.9362 18.2052C74.1469 17.6018 74.4056 17.044 74.7107 16.5312C75.021 16.0104 75.3808 15.5309 75.7875 15.0943L75.7903 15.0915C76.1995 14.658 76.6578 14.2733 77.1631 13.9402C77.6618 13.6094 78.2102 13.3281 78.8053 13.0974C79.3981 12.8678 80.0248 12.6939 80.6822 12.5788C81.3355 12.4646 82.0187 12.4064 82.731 12.4064ZM104.945 6.23098C105.288 6.23098 105.615 6.29544 105.927 6.42435C106.233 6.55018 106.522 6.73846 106.793 6.98731C106.982 7.16341 107.137 7.35825 107.256 7.57027C107.372 7.78206 107.457 8.01357 107.508 8.26326C107.556 8.49056 107.59 8.76088 107.612 9.0727C107.634 9.38626 107.645 9.73711 107.645 10.1247V12.8531H108.942C109.304 12.8531 109.632 12.8975 109.92 12.986C110.223 13.0787 110.483 13.2212 110.697 13.4103C110.912 13.6012 111.074 13.8217 111.184 14.0702C111.292 14.3173 111.347 14.5877 111.347 14.8769C111.347 15.2524 111.268 15.5783 111.11 15.8537C110.948 16.1373 110.708 16.3576 110.393 16.5156C110.113 16.6558 109.779 16.7602 109.392 16.8272C109.017 16.8916 108.591 16.9241 108.112 16.9241H107.645V24.9416C107.645 25.3111 107.65 25.6235 107.661 25.8752C107.672 26.1409 107.691 26.3651 107.715 26.5441C107.736 26.6996 107.774 26.8415 107.827 26.9667C107.877 27.0818 107.94 27.1831 108.016 27.2676C108.085 27.3397 108.178 27.3965 108.293 27.4347C108.431 27.4805 108.603 27.5034 108.81 27.5034C108.935 27.5034 109.08 27.4929 109.242 27.472C109.405 27.4511 109.599 27.4163 109.824 27.3694L109.829 27.3679C110.057 27.3233 110.271 27.2857 110.471 27.2591C110.673 27.2322 110.845 27.2173 110.984 27.2173C111.225 27.2173 111.456 27.2667 111.676 27.3637C111.887 27.457 112.086 27.5956 112.269 27.7776C112.457 27.964 112.597 28.174 112.69 28.4058C112.784 28.636 112.829 28.8845 112.829 29.15C112.829 29.5998 112.704 29.9999 112.453 30.3491C112.214 30.6832 111.86 30.9629 111.397 31.1863C110.955 31.3995 110.425 31.5581 109.806 31.6618C109.199 31.7639 108.505 31.8148 107.725 31.8148C106.98 31.8148 106.319 31.7506 105.742 31.6245C105.149 31.4936 104.648 31.2948 104.241 31.0305C103.828 30.7633 103.485 30.4438 103.216 30.0751C102.945 29.7039 102.745 29.282 102.618 28.8102C102.498 28.3705 102.408 27.8543 102.347 27.2634C102.288 26.677 102.258 26.0264 102.258 25.313V16.9241H102.044C101.673 16.9241 101.34 16.8792 101.047 16.789C100.741 16.6951 100.479 16.5506 100.263 16.3559C100.045 16.1653 99.8802 15.9431 99.7699 15.6934C99.6592 15.4435 99.6045 15.1695 99.6045 14.8769C99.6045 14.584 99.6629 14.3125 99.7791 14.064C99.8951 13.8155 100.067 13.5944 100.291 13.4041L100.295 13.3993C100.518 13.2161 100.791 13.0767 101.112 12.9851C101.416 12.8972 101.76 12.8531 102.143 12.8531H102.258V10.4911C102.258 10.1456 102.263 9.81375 102.273 9.4923C102.283 9.19571 102.298 8.93753 102.319 8.72154C102.342 8.47955 102.384 8.25815 102.445 8.05858C102.508 7.85495 102.592 7.66355 102.696 7.48745C102.805 7.29688 102.937 7.12521 103.091 6.97286C103.242 6.82417 103.418 6.69123 103.618 6.577C103.816 6.4614 104.028 6.37432 104.25 6.31723C104.473 6.25977 104.705 6.23098 104.945 6.23098ZM82.5813 16.3751C82.0571 16.3751 81.5835 16.4642 81.1612 16.6397C80.7417 16.813 80.3665 17.0765 80.0351 17.4285C79.7021 17.7853 79.4312 18.2309 79.2253 18.7653C79.055 19.2066 78.9287 19.7062 78.8469 20.2638H86.3397C86.2743 19.691 86.1609 19.1823 85.9998 18.7387C85.8061 18.2063 85.5415 17.7639 85.2081 17.413C84.8788 17.0686 84.4975 16.8091 84.0669 16.6374C83.6301 16.4627 83.1342 16.3751 82.5813 16.3751Z" fill="white"/>
</mask>
<g mask="url(#mask0)">
<path fill-rule="evenodd" clip-rule="evenodd" d="M19.2337 0.0976562C22.0373 0.0976562 24.6992 0.697363 27.0977 1.77375L12.0263 4.41216C9.1745 4.91146 7.97484 6.61123 8.47844 9.43882L13.1079 35.4351C13.2092 36.0037 13.36 36.5785 13.5956 37.108C5.80652 34.724 0.146484 27.5289 0.146484 19.0231C0.146484 8.57056 8.69204 0.0976562 19.2337 0.0976562ZM52.8201 14.8743C53.0326 14.6459 53.2499 14.4344 53.4715 14.2402C53.942 13.8274 54.4313 13.4898 54.9371 13.2283C55.4467 12.9659 55.9968 12.768 56.5856 12.6362C57.1702 12.5062 57.7896 12.4408 58.4406 12.4408C59.0768 12.4408 59.6833 12.5107 60.2596 12.6504C60.8379 12.7898 61.3828 12.9998 61.8927 13.2786C62.4056 13.5574 62.8562 13.8978 63.2412 14.2973C63.6279 14.6991 63.9495 15.1585 64.203 15.6731C64.3629 15.9697 64.495 16.2767 64.5997 16.5956C64.7049 16.9174 64.7827 17.2533 64.8318 17.603C64.8769 17.944 64.9111 18.3256 64.9341 18.7497C64.9567 19.1784 64.969 19.6401 64.969 20.1323V28.6464C64.969 29.1387 64.9096 29.5786 64.7916 29.964C64.6686 30.3658 64.4819 30.7061 64.2349 30.9807C63.9863 31.2578 63.696 31.467 63.369 31.6067C63.0441 31.7452 62.684 31.8148 62.293 31.8148C61.8987 31.8148 61.5354 31.7435 61.204 31.6013C60.8721 31.4591 60.5778 31.2462 60.3238 30.9637C60.0716 30.6813 59.884 30.3417 59.7608 29.9442C59.6416 29.5619 59.5823 29.1285 59.5823 28.6464V21.0184C59.5823 20.2852 59.5313 19.6432 59.4315 19.0961C59.3334 18.5609 59.1862 18.1074 58.9926 17.7381C58.8247 17.4184 58.5666 17.1761 58.223 17.0135C57.856 16.8402 57.3861 16.7525 56.814 16.7525C56.4445 16.7525 56.0917 16.806 55.759 16.9134C55.4219 17.0211 55.1008 17.1846 54.794 17.4039C54.4889 17.6239 54.2243 17.886 54.0016 18.1871C53.7792 18.4885 53.5958 18.8329 53.454 19.2194C53.3502 19.5352 53.2701 19.996 53.2162 20.6016C53.1626 21.2242 53.1341 21.9966 53.1341 22.9172V28.6464C53.1341 29.1452 53.0734 29.5883 52.9528 29.9733C52.8265 30.3782 52.6334 30.7181 52.3768 30.9926C52.1215 31.2637 51.8281 31.4704 51.4982 31.6081C51.1685 31.7455 50.8075 31.8148 50.418 31.8148C50.0325 31.8148 49.6755 31.743 49.3521 31.601C49.0262 31.458 48.7364 31.2445 48.4852 30.962C48.2362 30.6796 48.0489 30.34 47.9263 29.9442C47.8074 29.5619 47.7481 29.1285 47.7481 28.6464V15.426C47.7481 14.461 47.9711 13.7234 48.4165 13.2206L48.4196 13.2178C48.6529 12.9591 48.9269 12.7632 49.2412 12.6337C49.5506 12.5056 49.8967 12.4408 50.2794 12.4408C50.5124 12.4408 50.7388 12.4697 50.9561 12.5263C51.1722 12.5828 51.379 12.6688 51.5726 12.7818C51.7739 12.8972 51.9518 13.0408 52.1067 13.2096C52.259 13.3756 52.3936 13.5707 52.5076 13.7918C52.671 14.1104 52.7748 14.4706 52.8201 14.8743ZM87.4312 23.6489H78.8107C78.8338 23.9941 78.882 24.3252 78.9547 24.6407C79.0539 25.0696 79.1991 25.4677 79.3875 25.8344C79.5774 26.2 79.797 26.5192 80.0439 26.7895C80.2912 27.0603 80.5698 27.2863 80.8769 27.4664C81.1863 27.6507 81.5111 27.7881 81.8522 27.88C82.1952 27.9719 82.5562 28.0177 82.9332 28.0177C83.2015 28.0177 83.449 28.0036 83.6763 27.9747C83.9064 27.9456 84.1263 27.9003 84.3356 27.8401L84.3413 27.8384C84.5512 27.7816 84.757 27.7067 84.9581 27.6159C85.1597 27.5243 85.3595 27.4146 85.5577 27.2868C85.7668 27.1545 85.9649 27.018 86.1554 26.8766C86.3442 26.7361 86.5238 26.5905 86.6941 26.4412C86.886 26.2752 87.0919 26.0923 87.3129 25.8918C87.5441 25.6812 87.8042 25.4412 88.0916 25.1734L88.1056 25.1612C88.2647 25.0267 88.4546 24.9257 88.6757 24.8587C88.8832 24.7962 89.115 24.7645 89.3691 24.7645C89.6469 24.7645 89.9041 24.8044 90.1376 24.8836C90.3808 24.9647 90.5961 25.0883 90.7815 25.25C90.9709 25.4151 91.1163 25.6201 91.2132 25.8612C91.3065 26.0892 91.3533 26.3462 91.3533 26.6284C91.3533 26.8738 91.3039 27.1378 91.2078 27.4205C91.1183 27.6846 90.9848 27.9665 90.8097 28.2676L90.808 28.2724C90.6281 28.5724 90.4034 28.869 90.1339 29.1565C89.875 29.4333 89.5719 29.7047 89.2257 29.9674C88.8755 30.2368 88.4835 30.484 88.0508 30.7045C87.6243 30.9219 87.1515 31.1173 86.6345 31.2897C86.1143 31.4661 85.556 31.5973 84.9629 31.6841C84.3672 31.7712 83.7359 31.8148 83.0715 31.8148C81.5439 31.8148 80.1814 31.5962 78.9863 31.1608C77.7804 30.7214 76.7456 30.0607 75.8816 29.1797C75.0196 28.3012 74.3737 27.2676 73.945 26.0802C73.5196 24.902 73.3075 23.5723 73.3075 22.0933C73.3075 21.4037 73.3599 20.73 73.4651 20.0766C73.5692 19.4294 73.7269 18.8038 73.9362 18.2052C74.1469 17.6018 74.4056 17.044 74.7107 16.5312C75.021 16.0104 75.3808 15.5309 75.7875 15.0943L75.7903 15.0915C76.1995 14.658 76.6578 14.2733 77.1631 13.9402C77.6618 13.6094 78.2102 13.3281 78.8053 13.0974C79.3981 12.8678 80.0248 12.6939 80.6822 12.5788C81.3355 12.4646 82.0187 12.4064 82.731 12.4064C83.6626 12.4064 84.5323 12.5053 85.3379 12.7015C86.1483 12.8995 86.8917 13.1972 87.5675 13.5936C88.2413 13.9871 88.8322 14.4398 89.3395 14.9524C89.8479 15.4661 90.2731 16.0395 90.6139 16.6731C90.9483 17.2942 91.1995 17.9262 91.3692 18.5682C91.5389 19.2114 91.6239 19.8589 91.6239 20.5095C91.6239 21.1377 91.5289 21.6647 91.3404 22.0882C91.1374 22.5443 90.828 22.8807 90.4148 23.0945C90.0476 23.2819 89.6101 23.4219 89.104 23.5132C88.6092 23.6034 88.0508 23.6489 87.4312 23.6489ZM78.8469 20.2638H86.3397C86.2743 19.691 86.1609 19.1823 85.9998 18.7387C85.8061 18.2063 85.5415 17.7639 85.2081 17.413C84.8788 17.0686 84.4975 16.8091 84.0669 16.6374C83.6301 16.4627 83.1342 16.3751 82.5813 16.3751C82.0571 16.3751 81.5835 16.4642 81.1612 16.6397C80.7417 16.813 80.3665 17.0765 80.0351 17.4285C79.7021 17.7853 79.4312 18.2309 79.2253 18.7653C79.055 19.2066 78.9287 19.7062 78.8469 20.2638ZM102.143 12.8531H102.258V10.4911C102.258 10.1456 102.263 9.81375 102.273 9.4923C102.283 9.19571 102.298 8.93753 102.319 8.72154C102.342 8.47955 102.384 8.25815 102.445 8.05858C102.508 7.85495 102.592 7.66355 102.696 7.48745C102.805 7.29688 102.937 7.12521 103.091 6.97286C103.242 6.82417 103.418 6.69123 103.618 6.577C103.816 6.4614 104.028 6.37432 104.25 6.31723C104.473 6.25977 104.705 6.23098 104.945 6.23098C105.288 6.23098 105.615 6.29544 105.927 6.42435C106.233 6.55018 106.522 6.73846 106.793 6.98731C106.982 7.16341 107.137 7.35825 107.256 7.57027C107.372 7.78206 107.457 8.01357 107.508 8.26326C107.556 8.49056 107.59 8.76088 107.612 9.0727C107.634 9.38626 107.645 9.73711 107.645 10.1247V12.8531H108.942C109.304 12.8531 109.632 12.8975 109.92 12.986C110.223 13.0787 110.483 13.2212 110.697 13.4103C110.912 13.6012 111.074 13.8217 111.184 14.0702C111.292 14.3173 111.347 14.5877 111.347 14.8769C111.347 15.2524 111.268 15.5783 111.11 15.8537C110.948 16.1373 110.708 16.3576 110.393 16.5156C110.113 16.6558 109.779 16.7602 109.392 16.8272C109.017 16.8916 108.591 16.9241 108.112 16.9241H107.645V24.9416C107.645 25.3111 107.65 25.6235 107.661 25.8752C107.672 26.1409 107.691 26.3651 107.715 26.5441C107.736 26.6996 107.774 26.8415 107.827 26.9667C107.877 27.0818 107.94 27.1831 108.016 27.2676C108.085 27.3397 108.178 27.3965 108.293 27.4347C108.431 27.4805 108.603 27.5034 108.81 27.5034C108.935 27.5034 109.08 27.4929 109.242 27.472C109.405 27.4511 109.599 27.4163 109.824 27.3694L109.829 27.3679C110.057 27.3233 110.271 27.2857 110.471 27.2591C110.673 27.2322 110.845 27.2173 110.984 27.2173C111.225 27.2173 111.456 27.2667 111.676 27.3637C111.887 27.457 112.086 27.5956 112.269 27.7776C112.457 27.964 112.597 28.174 112.69 28.4058C112.784 28.636 112.829 28.8845 112.829 29.15C112.829 29.5998 112.704 29.9999 112.453 30.3491C112.214 30.6832 111.86 30.9629 111.397 31.1863C110.955 31.3995 110.425 31.5581 109.806 31.6618C109.199 31.7639 108.505 31.8148 107.725 31.8148C106.98 31.8148 106.319 31.7506 105.742 31.6245C105.149 31.4936 104.648 31.2948 104.241 31.0305C103.828 30.7633 103.485 30.4438 103.216 30.0751C102.945 29.7039 102.745 29.282 102.618 28.8102C102.498 28.3705 102.408 27.8543 102.347 27.2634C102.288 26.677 102.258 26.0264 102.258 25.313V16.9241H102.044C101.673 16.9241 101.34 16.8792 101.047 16.789C100.741 16.6951 100.479 16.5506 100.263 16.3559C100.045 16.1653 99.8802 15.9431 99.7699 15.6934C99.6592 15.4435 99.6045 15.1695 99.6045 14.8769C99.6045 14.584 99.6629 14.3125 99.7791 14.064C99.8951 13.8155 100.067 13.5944 100.291 13.4041L100.295 13.3993C100.518 13.2161 100.791 13.0767 101.112 12.9851C101.416 12.8972 101.76 12.8531 102.143 12.8531ZM32.0873 5.03218C35.9175 8.49339 38.3211 13.4799 38.3211 19.0231C38.3211 29.3624 29.9581 37.7637 19.5736 37.9438C20.4279 36.9223 20.3917 35.4345 20.1716 34.1988L18.2051 23.157L29.4919 21.1807C31.3057 20.8632 32.5909 19.9663 32.2356 17.9731C31.8812 15.9827 30.3886 15.5535 28.5477 15.8761L17.2604 17.8521L15.7508 9.3761L29.2672 7.00961C30.462 6.80011 31.7463 6.30051 32.0873 5.03218Z" fill="url(#paint0_linear)"/>
</g>
</g>
<defs>
<linearGradient id="paint0_linear" x1="60.3949" y1="17.3036" x2="22.6776" y2="34.7768" gradientUnits="userSpaceOnUse">
<stop stop-color="#E00985"/>
<stop offset="1" stop-color="#53219D"/>
</linearGradient>
<clipPath id="clip0">
<rect width="113" height="37.983" fill="white"/>
</clipPath>
</defs>
</svg>
