<svg width="48" height="48" viewBox="0 0 48 48" fill="none" xmlns="http://www.w3.org/2000/svg">
<circle cx="24" cy="24" r="24" fill="#4C17D0" fill-opacity="0.3"/>
<ellipse cx="23.9984" cy="24" rx="15" ry="15" fill="url(#paint0_linear_1400:7598)"/>
<path fill-rule="evenodd" clip-rule="evenodd" d="M23.9999 15.001C25.3219 15.001 26.577 15.2862 27.708 15.7981L20.6016 17.053C19.2569 17.2905 18.6912 18.0989 18.9287 19.4437L21.1116 31.8078C21.1593 32.0782 21.2304 32.3516 21.3415 32.6035C17.6688 31.4696 15 28.0475 15 24.0021C15 19.0308 19.0294 15.001 23.9999 15.001ZM30.0607 17.3479C31.8667 18.9941 33 21.3657 33 24.0021C33 28.9195 29.0567 32.9153 24.1602 33.001C24.563 32.5151 24.5459 31.8075 24.4422 31.2198L23.5149 25.9682L28.8369 25.0283C29.6921 24.8772 30.2981 24.4507 30.1306 23.5027C29.9635 22.556 29.2597 22.3519 28.3917 22.5053L23.0695 23.4451L22.3577 19.4139L28.7309 18.2884C29.2943 18.1887 29.8998 17.9511 30.0607 17.3479Z" fill="white"/>
<defs>
<linearGradient id="paint0_linear_1400:7598" x1="56.3453" y1="22.6388" x2="26.6148" y2="36.2936" gradientUnits="userSpaceOnUse">
<stop stop-color="#E00985"/>
<stop offset="1" stop-color="#4C17D0"/>
</linearGradient>
</defs>
</svg>
