<svg width="39" height="38" viewBox="0 0 39 38" fill="none" xmlns="http://www.w3.org/2000/svg">
<path d="M32.0873 5.03218C35.9175 8.49339 38.3211 13.4799 38.3211 19.0231C38.3211 29.3624 29.9581 37.7637 19.5736 37.9438C20.4279 36.9223 20.3917 35.4345 20.1716 34.1988L18.2051 23.157L29.4919 21.1807C31.3057 20.8632 32.5909 19.9663 32.2356 17.9731C31.8812 15.9827 30.3886 15.5535 28.5477 15.8761L17.2604 17.8521L15.7508 9.3761L29.2672 7.00961C30.462 6.80011 31.7463 6.30051 32.0873 5.03218ZM19.2337 0.0976562C22.0373 0.0976562 24.6992 0.697363 27.0977 1.77375L12.0263 4.41216C9.1745 4.91146 7.97484 6.61123 8.47844 9.43882L13.1079 35.4351C13.2092 36.0037 13.36 36.5785 13.5956 37.108C5.80652 34.724 0.146484 27.5289 0.146484 19.0231C0.146484 8.57056 8.69204 0.0976562 19.2337 0.0976562Z" fill="white"/>
<path fill-rule="evenodd" clip-rule="evenodd" d="M19.2337 0.0976562C22.0373 0.0976562 24.6992 0.697363 27.0977 1.77375L12.0263 4.41216C9.1745 4.91146 7.97484 6.61123 8.47844 9.43882L13.1079 35.4351C13.2092 36.0037 13.36 36.5785 13.5956 37.108C5.80652 34.724 0.146484 27.5289 0.146484 19.0231C0.146484 8.57056 8.69204 0.0976562 19.2337 0.0976562ZM32.0873 5.03218C35.9175 8.49339 38.3211 13.4799 38.3211 19.0231C38.3211 29.3624 29.9581 37.7637 19.5736 37.9438C20.4279 36.9223 20.3917 35.4345 20.1716 34.1988L18.2051 23.157L29.4919 21.1807C31.3057 20.8632 32.5909 19.9663 32.2356 17.9731C31.8812 15.9827 30.3886 15.5535 28.5477 15.8761L17.2604 17.8521L15.7508 9.3761L29.2672 7.00961C30.462 6.80011 31.7463 6.30051 32.0873 5.03218Z" fill="url(#paint0_linear)"/>
<defs>
<linearGradient id="paint0_linear" x1="60.3949" y1="17.3036" x2="22.6776" y2="34.7768" gradientUnits="userSpaceOnUse">
<stop stop-color="#E00985"/>
<stop offset="1" stop-color="#53219D"/>
</linearGradient>
</defs>
</svg>
