<svg width="1440" height="493" viewBox="0 0 1440 493" fill="none" xmlns="http://www.w3.org/2000/svg">
<path fill-rule="evenodd" clip-rule="evenodd" d="M1307 492.205C1256.69 492.186 1206.24 483.033 1150.71 472.96C1040.2 452.912 909.586 429.219 720 466.612C533.991 503.299 428.386 482.773 330.536 463.754C235.325 445.247 147.456 428.168 0 466.612L0.000244141 -103.389C267.078 -28.1453 685.249 -97.6182 685.249 -97.6182C685.249 -97.6182 706.41 -101.312 720 -103.389C899.951 -130.895 1082.57 -114.861 1184.23 -93.847C1275.43 -74.9935 1343.29 -60.9656 1440 -103.389V466.612C1393.78 485.401 1350.59 492.189 1307.31 492.205C1307.21 492.205 1307.11 492.205 1307 492.205Z" fill="#F8F6FE"/>
</svg>
